<mxfile host="Electron" modified="2023-04-12T22:37:06.593Z" agent="Mozilla/5.0 (Windows NT 10.0; Win64; x64) AppleWebKit/537.36 (KHTML, like Gecko) draw.io/21.1.2 Chrome/106.0.5249.199 Electron/21.4.3 Safari/537.36" etag="lMQ9EctU5SaCsKyP_1xT" version="21.1.2" type="device" pages="4">
  <diagram id="Zac-kEpHMHBNO2JVTt9g" name="C4-Context">
    <mxGraphModel dx="3300" dy="1330" grid="1" gridSize="10" guides="1" tooltips="1" connect="1" arrows="1" fold="1" page="1" pageScale="1" pageWidth="1100" pageHeight="850" math="0" shadow="0">
      <root>
        <mxCell id="0" />
        <mxCell id="1" parent="0" />
        <mxCell id="r8ZZmmpSei9Ew5Ez-7gX-1" style="edgeStyle=orthogonalEdgeStyle;rounded=0;orthogonalLoop=1;jettySize=auto;html=1;" parent="1" source="r8ZZmmpSei9Ew5Ez-7gX-2" target="r8ZZmmpSei9Ew5Ez-7gX-10" edge="1">
          <mxGeometry relative="1" as="geometry" />
        </mxCell>
        <object placeholders="1" c4Name="Customer" c4Type="Customer" c4Description="Banking Customer " label="&lt;font style=&quot;font-size: 16px&quot;&gt;&lt;b&gt;%c4Name%&lt;/b&gt;&lt;/font&gt;&lt;div&gt;[%c4Type%]&lt;/div&gt;&lt;br&gt;&lt;div&gt;&lt;font style=&quot;font-size: 11px&quot;&gt;&lt;font color=&quot;#cccccc&quot;&gt;%c4Description%&lt;/font&gt;&lt;/div&gt;" id="r8ZZmmpSei9Ew5Ez-7gX-2">
          <mxCell style="html=1;fontSize=11;dashed=0;whiteSpace=wrap;fillColor=#083F75;strokeColor=#06315C;fontColor=#ffffff;shape=mxgraph.c4.person2;align=center;metaEdit=1;points=[[0.5,0,0],[1,0.5,0],[1,0.75,0],[0.75,1,0],[0.5,1,0],[0.25,1,0],[0,0.75,0],[0,0.5,0]];resizable=0;" parent="1" vertex="1">
            <mxGeometry x="-660" y="30" width="200" height="180" as="geometry" />
          </mxCell>
        </object>
        <object placeholders="1" c4Name="Core&#39;s System" c4Type="Core&#39;s System" c4Description="Core&#39;s Systems  that retrieve Basic and Advanced Customer information" label="&lt;font style=&quot;font-size: 16px&quot;&gt;&lt;b&gt;%c4Name%&lt;/b&gt;&lt;/font&gt;&lt;div&gt;[%c4Type%]&lt;/div&gt;&lt;br&gt;&lt;div&gt;&lt;font style=&quot;font-size: 11px&quot;&gt;&lt;font color=&quot;#cccccc&quot;&gt;%c4Description%&lt;/font&gt;&lt;/div&gt;" id="r8ZZmmpSei9Ew5Ez-7gX-5">
          <mxCell style="rounded=1;whiteSpace=wrap;html=1;labelBackgroundColor=none;fillColor=#1061B0;fontColor=#ffffff;align=center;arcSize=10;strokeColor=#0D5091;metaEdit=1;resizable=0;points=[[0.25,0,0],[0.5,0,0],[0.75,0,0],[1,0.25,0],[1,0.5,0],[1,0.75,0],[0.75,1,0],[0.5,1,0],[0.25,1,0],[0,0.75,0],[0,0.5,0],[0,0.25,0]];" parent="1" vertex="1">
            <mxGeometry x="-460" y="635" width="240" height="120" as="geometry" />
          </mxCell>
        </object>
        <mxCell id="r8ZZmmpSei9Ew5Ez-7gX-7" style="edgeStyle=orthogonalEdgeStyle;rounded=0;orthogonalLoop=1;jettySize=auto;html=1;entryX=0.5;entryY=0;entryDx=0;entryDy=0;entryPerimeter=0;" parent="1" source="r8ZZmmpSei9Ew5Ez-7gX-10" target="r8ZZmmpSei9Ew5Ez-7gX-5" edge="1">
          <mxGeometry relative="1" as="geometry">
            <Array as="points">
              <mxPoint x="-560" y="455" />
              <mxPoint x="-320" y="455" />
            </Array>
          </mxGeometry>
        </mxCell>
        <mxCell id="r8ZZmmpSei9Ew5Ez-7gX-8" style="edgeStyle=orthogonalEdgeStyle;rounded=0;orthogonalLoop=1;jettySize=auto;html=1;" parent="1" source="r8ZZmmpSei9Ew5Ez-7gX-10" target="r8ZZmmpSei9Ew5Ez-7gX-14" edge="1">
          <mxGeometry relative="1" as="geometry" />
        </mxCell>
        <mxCell id="r8ZZmmpSei9Ew5Ez-7gX-9" style="edgeStyle=orthogonalEdgeStyle;rounded=0;orthogonalLoop=1;jettySize=auto;html=1;entryX=1;entryY=0.5;entryDx=0;entryDy=0;entryPerimeter=0;" parent="1" source="r8ZZmmpSei9Ew5Ez-7gX-10" target="r8ZZmmpSei9Ew5Ez-7gX-15" edge="1">
          <mxGeometry relative="1" as="geometry" />
        </mxCell>
        <mxCell id="9VO1fTpIox7iDasmrHu0-5" style="edgeStyle=orthogonalEdgeStyle;rounded=0;orthogonalLoop=1;jettySize=auto;html=1;exitX=0;exitY=0.75;exitDx=0;exitDy=0;exitPerimeter=0;" parent="1" source="r8ZZmmpSei9Ew5Ez-7gX-10" target="r8ZZmmpSei9Ew5Ez-7gX-11" edge="1">
          <mxGeometry relative="1" as="geometry">
            <Array as="points">
              <mxPoint x="-780" y="462" />
            </Array>
          </mxGeometry>
        </mxCell>
        <object placeholders="1" c4Name="Business Capabillity Backbone" c4Type="Business Capability Backbone" c4Description="Business Capability Solution Backbone that enable, attenda, translate, enriches the  message information interchange from channels to core and external system.  &#xa;&#xa;If is necessary to create  a new core system, it will be done on this backbone " label="&lt;font style=&quot;font-size: 16px&quot;&gt;&lt;b&gt;%c4Name%&lt;/b&gt;&lt;/font&gt;&lt;div&gt;[%c4Type%]&lt;/div&gt;&lt;br&gt;&lt;div&gt;&lt;font style=&quot;font-size: 11px&quot;&gt;&lt;font color=&quot;#cccccc&quot;&gt;%c4Description%&lt;/font&gt;&lt;/div&gt;" id="r8ZZmmpSei9Ew5Ez-7gX-10">
          <mxCell style="rounded=1;whiteSpace=wrap;html=1;labelBackgroundColor=none;fillColor=#1061B0;fontColor=#ffffff;align=center;arcSize=10;strokeColor=#0D5091;metaEdit=1;resizable=1;points=[[0.25,0,0],[0.5,0,0],[0.75,0,0],[1,0.25,0],[1,0.5,0],[1,0.75,0],[0.75,1,0],[0.5,1,0],[0.25,1,0],[0,0.75,0],[0,0.5,0],[0,0.25,0]];movable=1;rotatable=1;deletable=1;editable=1;locked=0;connectable=1;" parent="1" vertex="1">
            <mxGeometry x="-745" y="245" width="370" height="290" as="geometry" />
          </mxCell>
        </object>
        <object placeholders="1" c4Name="External Notification System" c4Type="Notification System" c4Description="External Notification System" label="&lt;font style=&quot;font-size: 16px&quot;&gt;&lt;b&gt;%c4Name%&lt;/b&gt;&lt;/font&gt;&lt;div&gt;[%c4Type%]&lt;/div&gt;&lt;br&gt;&lt;div&gt;&lt;font style=&quot;font-size: 11px&quot;&gt;&lt;font color=&quot;#cccccc&quot;&gt;%c4Description%&lt;/font&gt;&lt;/div&gt;" id="r8ZZmmpSei9Ew5Ez-7gX-11">
          <mxCell style="rounded=1;whiteSpace=wrap;html=1;labelBackgroundColor=none;fillColor=#8C8496;fontColor=#ffffff;align=center;arcSize=10;strokeColor=#736782;metaEdit=1;resizable=0;points=[[0.25,0,0],[0.5,0,0],[0.75,0,0],[1,0.25,0],[1,0.5,0],[1,0.75,0],[0.75,1,0],[0.5,1,0],[0.25,1,0],[0,0.75,0],[0,0.5,0],[0,0.25,0]];" parent="1" vertex="1">
            <mxGeometry x="-900" y="635" width="240" height="120" as="geometry" />
          </mxCell>
        </object>
        <object placeholders="1" c4Name="External Biometric System" c4Type="Biometric  System" c4Description="External Biometric System" label="&lt;font style=&quot;font-size: 16px&quot;&gt;&lt;b&gt;%c4Name%&lt;/b&gt;&lt;/font&gt;&lt;div&gt;[%c4Type%]&lt;/div&gt;&lt;br&gt;&lt;div&gt;&lt;font style=&quot;font-size: 11px&quot;&gt;&lt;font color=&quot;#cccccc&quot;&gt;%c4Description%&lt;/font&gt;&lt;/div&gt;" id="r8ZZmmpSei9Ew5Ez-7gX-14">
          <mxCell style="rounded=1;whiteSpace=wrap;html=1;labelBackgroundColor=none;fillColor=#8C8496;fontColor=#ffffff;align=center;arcSize=10;strokeColor=#736782;metaEdit=1;resizable=0;points=[[0.25,0,0],[0.5,0,0],[0.75,0,0],[1,0.25,0],[1,0.5,0],[1,0.75,0],[0.75,1,0],[0.5,1,0],[0.25,1,0],[0,0.75,0],[0,0.5,0],[0,0.25,0]];" parent="1" vertex="1">
            <mxGeometry x="-310" y="305" width="240" height="120" as="geometry" />
          </mxCell>
        </object>
        <object placeholders="1" c4Name="External Sign Digital System" c4Type="Sign Digital  System" c4Description="External Sign Digital System" label="&lt;font style=&quot;font-size: 16px&quot;&gt;&lt;b&gt;%c4Name%&lt;/b&gt;&lt;/font&gt;&lt;div&gt;[%c4Type%]&lt;/div&gt;&lt;br&gt;&lt;div&gt;&lt;font style=&quot;font-size: 11px&quot;&gt;&lt;font color=&quot;#cccccc&quot;&gt;%c4Description%&lt;/font&gt;&lt;/div&gt;" id="r8ZZmmpSei9Ew5Ez-7gX-15">
          <mxCell style="rounded=1;whiteSpace=wrap;html=1;labelBackgroundColor=none;fillColor=#8C8496;fontColor=#ffffff;align=center;arcSize=10;strokeColor=#736782;metaEdit=1;resizable=0;points=[[0.25,0,0],[0.5,0,0],[0.75,0,0],[1,0.25,0],[1,0.5,0],[1,0.75,0],[0.75,1,0],[0.5,1,0],[0.25,1,0],[0,0.75,0],[0,0.5,0],[0,0.25,0]];" parent="1" vertex="1">
            <mxGeometry x="-1050" y="305" width="240" height="120" as="geometry" />
          </mxCell>
        </object>
        <mxCell id="r8ZZmmpSei9Ew5Ez-7gX-16" value="&lt;ul&gt;&lt;li&gt;Transferencias cuentas propias&lt;/li&gt;&lt;li&gt;Transferencias cuentas interbancarias&lt;/li&gt;&lt;li&gt;Pagos&lt;/li&gt;&lt;li&gt;Consultar Transferencias&lt;/li&gt;&lt;li&gt;Consulta Histórico de movimientos&lt;/li&gt;&lt;li&gt;Consultas de Clientes&lt;/li&gt;&lt;li&gt;Consulta de Movimientos&lt;/li&gt;&lt;li&gt;Consulta de Productos&lt;/li&gt;&lt;li&gt;Crear cuenta de usuario&lt;/li&gt;&lt;li&gt;Firmar Difitalmente&lt;/li&gt;&lt;li&gt;Validación de Identidad y biometría&lt;/li&gt;&lt;/ul&gt;" style="text;html=1;strokeColor=none;fillColor=none;align=left;verticalAlign=middle;whiteSpace=wrap;rounded=0;" parent="1" vertex="1">
          <mxGeometry x="-450" y="115" width="340" height="30" as="geometry" />
        </mxCell>
        <mxCell id="r8ZZmmpSei9Ew5Ez-7gX-17" value="&lt;span style=&quot;background-color: initial;&quot;&gt;Firmar Difitalmente&lt;/span&gt;" style="text;html=1;strokeColor=none;fillColor=none;align=left;verticalAlign=middle;whiteSpace=wrap;rounded=0;" parent="1" vertex="1">
          <mxGeometry x="-900" y="255" width="250" height="30" as="geometry" />
        </mxCell>
        <mxCell id="r8ZZmmpSei9Ew5Ez-7gX-18" value="&lt;span style=&quot;background-color: initial;&quot;&gt;Validación de Identidad y biometría&amp;nbsp; través de&amp;nbsp;&lt;/span&gt;" style="text;whiteSpace=wrap;html=1;" parent="1" vertex="1">
          <mxGeometry x="-290" y="255" width="240" height="70" as="geometry" />
        </mxCell>
        <mxCell id="r8ZZmmpSei9Ew5Ez-7gX-19" value="&lt;span style=&quot;background-color: initial;&quot;&gt;Obtener la información básica y detallada&amp;nbsp; del cliente, sus productos, movimientos y transferencias&lt;/span&gt;" style="text;html=1;strokeColor=none;fillColor=none;align=left;verticalAlign=middle;whiteSpace=wrap;rounded=0;" parent="1" vertex="1">
          <mxGeometry x="-280" y="585" width="250" height="30" as="geometry" />
        </mxCell>
        <mxCell id="r8ZZmmpSei9Ew5Ez-7gX-22" value="&lt;span style=&quot;background-color: initial;&quot;&gt;Enviar de notificaciones con sistema Externo (email, sms, slack, chatbot)&lt;/span&gt;" style="text;html=1;strokeColor=none;fillColor=none;align=left;verticalAlign=middle;whiteSpace=wrap;rounded=0;" parent="1" vertex="1">
          <mxGeometry x="-1050" y="585" width="250" height="30" as="geometry" />
        </mxCell>
      </root>
    </mxGraphModel>
  </diagram>
  <diagram name="C4-Container" id="HhLGo_aCulKUMJ_54KH_">
    <mxGraphModel dx="1760" dy="1064" grid="1" gridSize="10" guides="1" tooltips="1" connect="1" arrows="1" fold="1" page="1" pageScale="1" pageWidth="850" pageHeight="1100" math="0" shadow="0">
      <root>
        <mxCell id="yi8AeXn8OY7Mouasb5kO-0" />
        <mxCell id="yi8AeXn8OY7Mouasb5kO-1" parent="yi8AeXn8OY7Mouasb5kO-0" />
        <mxCell id="yi8AeXn8OY7Mouasb5kO-2" style="edgeStyle=orthogonalEdgeStyle;rounded=0;orthogonalLoop=1;jettySize=auto;html=1;" parent="yi8AeXn8OY7Mouasb5kO-1" source="yi8AeXn8OY7Mouasb5kO-3" edge="1">
          <mxGeometry relative="1" as="geometry">
            <mxPoint x="430" y="240" as="targetPoint" />
          </mxGeometry>
        </mxCell>
        <object placeholders="1" c4Name="Customer" c4Type="Customer" c4Description="Banking Customer " label="&lt;font style=&quot;font-size: 16px&quot;&gt;&lt;b&gt;%c4Name%&lt;/b&gt;&lt;/font&gt;&lt;div&gt;[%c4Type%]&lt;/div&gt;&lt;br&gt;&lt;div&gt;&lt;font style=&quot;font-size: 11px&quot;&gt;&lt;font color=&quot;#cccccc&quot;&gt;%c4Description%&lt;/font&gt;&lt;/div&gt;" id="yi8AeXn8OY7Mouasb5kO-3">
          <mxCell style="html=1;fontSize=11;dashed=0;whiteSpace=wrap;fillColor=#083F75;strokeColor=#06315C;fontColor=#ffffff;shape=mxgraph.c4.person2;align=center;metaEdit=1;points=[[0.5,0,0],[1,0.5,0],[1,0.75,0],[0.75,1,0],[0.5,1,0],[0.25,1,0],[0,0.75,0],[0,0.5,0]];resizable=0;" parent="yi8AeXn8OY7Mouasb5kO-1" vertex="1">
            <mxGeometry x="330" y="10" width="200" height="180" as="geometry" />
          </mxCell>
        </object>
        <object placeholders="1" c4Name="Core One System" c4Type="Core One System" c4Description="Retrieve Basic Customer information" label="&lt;font style=&quot;font-size: 16px&quot;&gt;&lt;b&gt;%c4Name%&lt;/b&gt;&lt;/font&gt;&lt;div&gt;[%c4Type%]&lt;/div&gt;&lt;br&gt;&lt;div&gt;&lt;font style=&quot;font-size: 11px&quot;&gt;&lt;font color=&quot;#cccccc&quot;&gt;%c4Description%&lt;/font&gt;&lt;/div&gt;" id="yi8AeXn8OY7Mouasb5kO-4">
          <mxCell style="rounded=1;whiteSpace=wrap;html=1;labelBackgroundColor=none;fillColor=#1061B0;fontColor=#ffffff;align=center;arcSize=10;strokeColor=#0D5091;metaEdit=1;resizable=0;points=[[0.25,0,0],[0.5,0,0],[0.75,0,0],[1,0.25,0],[1,0.5,0],[1,0.75,0],[0.75,1,0],[0.5,1,0],[0.25,1,0],[0,0.75,0],[0,0.5,0],[0,0.25,0]];" parent="yi8AeXn8OY7Mouasb5kO-1" vertex="1">
            <mxGeometry x="67" y="1910" width="240" height="120" as="geometry" />
          </mxCell>
        </object>
        <object placeholders="1" c4Name="Core Two System" c4Type="Core Two System" c4Description="Retrieve Advanced Customer information" label="&lt;font style=&quot;font-size: 16px&quot;&gt;&lt;b&gt;%c4Name%&lt;/b&gt;&lt;/font&gt;&lt;div&gt;[%c4Type%]&lt;/div&gt;&lt;br&gt;&lt;div&gt;&lt;font style=&quot;font-size: 11px&quot;&gt;&lt;font color=&quot;#cccccc&quot;&gt;%c4Description%&lt;/font&gt;&lt;/div&gt;" id="yi8AeXn8OY7Mouasb5kO-6">
          <mxCell style="rounded=1;whiteSpace=wrap;html=1;labelBackgroundColor=none;fillColor=#1061B0;fontColor=#ffffff;align=center;arcSize=10;strokeColor=#0D5091;metaEdit=1;resizable=0;points=[[0.25,0,0],[0.5,0,0],[0.75,0,0],[1,0.25,0],[1,0.5,0],[1,0.75,0],[0.75,1,0],[0.5,1,0],[0.25,1,0],[0,0.75,0],[0,0.5,0],[0,0.25,0]];" parent="yi8AeXn8OY7Mouasb5kO-1" vertex="1">
            <mxGeometry x="577" y="1910" width="240" height="120" as="geometry" />
          </mxCell>
        </object>
        <object placeholders="1" c4Name="External Notification System" c4Type="Notification System" c4Description="External Notification System" label="&lt;font style=&quot;font-size: 16px&quot;&gt;&lt;b&gt;%c4Name%&lt;/b&gt;&lt;/font&gt;&lt;div&gt;[%c4Type%]&lt;/div&gt;&lt;br&gt;&lt;div&gt;&lt;font style=&quot;font-size: 11px&quot;&gt;&lt;font color=&quot;#cccccc&quot;&gt;%c4Description%&lt;/font&gt;&lt;/div&gt;" id="yi8AeXn8OY7Mouasb5kO-12">
          <mxCell style="rounded=1;whiteSpace=wrap;html=1;labelBackgroundColor=none;fillColor=#8C8496;fontColor=#ffffff;align=center;arcSize=10;strokeColor=#736782;metaEdit=1;resizable=1;points=[[0.25,0,0],[0.5,0,0],[0.75,0,0],[1,0.25,0],[1,0.5,0],[1,0.75,0],[0.75,1,0],[0.5,1,0],[0.25,1,0],[0,0.75,0],[0,0.5,0],[0,0.25,0]];movable=1;rotatable=1;deletable=1;editable=1;locked=0;connectable=1;" parent="yi8AeXn8OY7Mouasb5kO-1" vertex="1">
            <mxGeometry x="307" y="1717" width="250" height="80" as="geometry" />
          </mxCell>
        </object>
        <mxCell id="yi8AeXn8OY7Mouasb5kO-13" style="edgeStyle=orthogonalEdgeStyle;rounded=0;orthogonalLoop=1;jettySize=auto;html=1;" parent="yi8AeXn8OY7Mouasb5kO-1" source="yi8AeXn8OY7Mouasb5kO-14" target="yi8AeXn8OY7Mouasb5kO-12" edge="1">
          <mxGeometry relative="1" as="geometry" />
        </mxCell>
        <object placeholders="1" c4Name="Notification System" c4Type="Notification System" c4Description="Notification System" label="&lt;font style=&quot;font-size: 16px&quot;&gt;&lt;b&gt;%c4Name%&lt;/b&gt;&lt;/font&gt;&lt;div&gt;[%c4Type%]&lt;/div&gt;&lt;br&gt;&lt;div&gt;&lt;font style=&quot;font-size: 11px&quot;&gt;&lt;font color=&quot;#cccccc&quot;&gt;%c4Description%&lt;/font&gt;&lt;/div&gt;" id="yi8AeXn8OY7Mouasb5kO-14">
          <mxCell style="rounded=1;whiteSpace=wrap;html=1;labelBackgroundColor=none;fillColor=#1061B0;fontColor=#ffffff;align=center;arcSize=10;strokeColor=#0D5091;metaEdit=1;resizable=1;points=[[0.25,0,0],[0.5,0,0],[0.75,0,0],[1,0.25,0],[1,0.5,0],[1,0.75,0],[0.75,1,0],[0.5,1,0],[0.25,1,0],[0,0.75,0],[0,0.5,0],[0,0.25,0]];movable=1;rotatable=1;deletable=1;editable=1;locked=0;connectable=1;" parent="yi8AeXn8OY7Mouasb5kO-1" vertex="1">
            <mxGeometry x="302" y="1620" width="258" height="70" as="geometry" />
          </mxCell>
        </object>
        <object placeholders="1" c4Name="External Biometric System" c4Type="Biometric  System" c4Description="External Biometric System" label="&lt;font style=&quot;font-size: 16px&quot;&gt;&lt;b&gt;%c4Name%&lt;/b&gt;&lt;/font&gt;&lt;div&gt;[%c4Type%]&lt;/div&gt;&lt;br&gt;&lt;div&gt;&lt;font style=&quot;font-size: 11px&quot;&gt;&lt;font color=&quot;#cccccc&quot;&gt;%c4Description%&lt;/font&gt;&lt;/div&gt;" id="yi8AeXn8OY7Mouasb5kO-15">
          <mxCell style="rounded=1;whiteSpace=wrap;html=1;labelBackgroundColor=none;fillColor=#8C8496;fontColor=#ffffff;align=center;arcSize=10;strokeColor=#736782;metaEdit=1;resizable=0;points=[[0.25,0,0],[0.5,0,0],[0.75,0,0],[1,0.25,0],[1,0.5,0],[1,0.75,0],[0.75,1,0],[0.5,1,0],[0.25,1,0],[0,0.75,0],[0,0.5,0],[0,0.25,0]];" parent="yi8AeXn8OY7Mouasb5kO-1" vertex="1">
            <mxGeometry x="600" y="1120" width="240" height="120" as="geometry" />
          </mxCell>
        </object>
        <object placeholders="1" c4Name="External Sign Digital System" c4Type="Sign Digital  System" c4Description="External Sign Digital System" label="&lt;font style=&quot;font-size: 16px&quot;&gt;&lt;b&gt;%c4Name%&lt;/b&gt;&lt;/font&gt;&lt;div&gt;[%c4Type%]&lt;/div&gt;&lt;br&gt;&lt;div&gt;&lt;font style=&quot;font-size: 11px&quot;&gt;&lt;font color=&quot;#cccccc&quot;&gt;%c4Description%&lt;/font&gt;&lt;/div&gt;" id="yi8AeXn8OY7Mouasb5kO-16">
          <mxCell style="rounded=1;whiteSpace=wrap;html=1;labelBackgroundColor=none;fillColor=#8C8496;fontColor=#ffffff;align=center;arcSize=10;strokeColor=#736782;metaEdit=1;resizable=0;points=[[0.25,0,0],[0.5,0,0],[0.75,0,0],[1,0.25,0],[1,0.5,0],[1,0.75,0],[0.75,1,0],[0.5,1,0],[0.25,1,0],[0,0.75,0],[0,0.5,0],[0,0.25,0]];" parent="yi8AeXn8OY7Mouasb5kO-1" vertex="1">
            <mxGeometry x="80" y="1110" width="240" height="120" as="geometry" />
          </mxCell>
        </object>
        <mxCell id="yi8AeXn8OY7Mouasb5kO-17" value="&lt;ul&gt;&lt;li&gt;Transferencias cuentas propias&lt;/li&gt;&lt;li&gt;Transferencias cuentas interbancarias&lt;/li&gt;&lt;li&gt;Pagos&lt;/li&gt;&lt;li&gt;Consultar Transferencias&lt;/li&gt;&lt;li&gt;Consulta Histórico de movimientos&lt;/li&gt;&lt;li&gt;Consultas de Clientes&lt;/li&gt;&lt;li&gt;Consulta de Movimientos&lt;/li&gt;&lt;li&gt;Consulta de Productos&lt;/li&gt;&lt;li&gt;Crear cuenta de usuario&lt;/li&gt;&lt;li&gt;Firmar Difitalmente&lt;/li&gt;&lt;li&gt;Validación de Identidad y biometría&lt;/li&gt;&lt;/ul&gt;" style="text;html=1;strokeColor=none;fillColor=none;align=left;verticalAlign=middle;whiteSpace=wrap;rounded=0;" parent="yi8AeXn8OY7Mouasb5kO-1" vertex="1">
          <mxGeometry x="495" y="130" width="250" height="30" as="geometry" />
        </mxCell>
        <mxCell id="yi8AeXn8OY7Mouasb5kO-18" value="&lt;div style=&quot;&quot;&gt;&lt;span style=&quot;background-color: initial;&quot;&gt;HTTP/REST/JSON&lt;/span&gt;&lt;/div&gt;" style="text;html=1;strokeColor=none;fillColor=none;align=center;verticalAlign=middle;whiteSpace=wrap;rounded=0;" parent="yi8AeXn8OY7Mouasb5kO-1" vertex="1">
          <mxGeometry x="50" y="1250" width="150" height="30" as="geometry" />
        </mxCell>
        <mxCell id="liKx2V0Gvg_Djn8K8-XW-2" style="edgeStyle=orthogonalEdgeStyle;rounded=0;orthogonalLoop=1;jettySize=auto;html=1;entryX=1;entryY=0.5;entryDx=0;entryDy=0;entryPerimeter=0;" parent="yi8AeXn8OY7Mouasb5kO-1" source="C10srk0M0FEgaKOojTgq-0" target="liKx2V0Gvg_Djn8K8-XW-1" edge="1">
          <mxGeometry relative="1" as="geometry">
            <mxPoint x="220" y="774" as="targetPoint" />
          </mxGeometry>
        </mxCell>
        <mxCell id="liKx2V0Gvg_Djn8K8-XW-27" style="edgeStyle=orthogonalEdgeStyle;rounded=0;orthogonalLoop=1;jettySize=auto;html=1;entryX=0.5;entryY=0;entryDx=0;entryDy=0;entryPerimeter=0;" parent="yi8AeXn8OY7Mouasb5kO-1" source="C10srk0M0FEgaKOojTgq-0" edge="1" target="liKx2V0Gvg_Djn8K8-XW-12">
          <mxGeometry relative="1" as="geometry">
            <mxPoint x="720" y="1650" as="targetPoint" />
            <Array as="points">
              <mxPoint x="540" y="1340" />
              <mxPoint x="705" y="1340" />
            </Array>
          </mxGeometry>
        </mxCell>
        <object placeholders="1" c4Name="BFF Api Gateway / BFF Api Management" c4Type="Container" c4Technology="SpringBoot, Spring Cloud/ AWS ApiGW / Azure ApiManagement, Consul, Azure Function, AWS Lambda" c4Description="BFF Api Gateway / BFF Api Management  that enable api interfaces functionalities to channels &#xa;&#xa;Using Function As a Service  component applying Back end For Frontend pattern in charge of managing the business capabilities associated with the customer, product, payment domains By demands specific front-end channel type and dedicated gateway for each type of client." label="&lt;font style=&quot;font-size: 16px&quot;&gt;&lt;b&gt;%c4Name%&lt;/b&gt;&lt;/font&gt;&lt;div&gt;[%c4Type%: %c4Technology%]&lt;/div&gt;&lt;br&gt;&lt;div&gt;&lt;font style=&quot;font-size: 11px&quot;&gt;&lt;font color=&quot;#E6E6E6&quot;&gt;%c4Description%&lt;/font&gt;&lt;/div&gt;" id="C10srk0M0FEgaKOojTgq-0">
          <mxCell style="rounded=1;whiteSpace=wrap;html=1;fontSize=11;labelBackgroundColor=none;fillColor=#23A2D9;fontColor=#ffffff;align=center;arcSize=10;strokeColor=#0E7DAD;metaEdit=1;resizable=1;points=[[0.25,0,0],[0.5,0,0],[0.75,0,0],[1,0.25,0],[1,0.5,0],[1,0.75,0],[0.75,1,0],[0.5,1,0],[0.25,1,0],[0,0.75,0],[0,0.5,0],[0,0.25,0]];movable=1;rotatable=1;deletable=1;editable=1;locked=0;connectable=1;" parent="yi8AeXn8OY7Mouasb5kO-1" vertex="1">
            <mxGeometry x="370" y="590" width="450" height="205" as="geometry" />
          </mxCell>
        </object>
        <mxCell id="liKx2V0Gvg_Djn8K8-XW-34" style="edgeStyle=orthogonalEdgeStyle;rounded=0;orthogonalLoop=1;jettySize=auto;html=1;" parent="yi8AeXn8OY7Mouasb5kO-1" source="C10srk0M0FEgaKOojTgq-1" target="C10srk0M0FEgaKOojTgq-0" edge="1">
          <mxGeometry relative="1" as="geometry" />
        </mxCell>
        <object placeholders="1" c4Type="Web Application" c4Container="Web Application" c4Technology="Html5, JavaScript, React, Angular,  using Micro front-end." c4Description="Web application Channel  and medium to customer access to initiatives using web browser" label="&lt;font style=&quot;font-size: 16px&quot;&gt;&lt;b&gt;%c4Type%&lt;/b&gt;&lt;/font&gt;&lt;div&gt;[%c4Container%:&amp;nbsp;%c4Technology%]&lt;/div&gt;&lt;br&gt;&lt;div&gt;&lt;font style=&quot;font-size: 11px&quot;&gt;&lt;font color=&quot;#E6E6E6&quot;&gt;%c4Description%&lt;/font&gt;&lt;/div&gt;" id="C10srk0M0FEgaKOojTgq-1">
          <mxCell style="shape=mxgraph.c4.webBrowserContainer2;whiteSpace=wrap;html=1;boundedLbl=1;rounded=0;labelBackgroundColor=none;strokeColor=#118ACD;fillColor=#23A2D9;strokeColor=#118ACD;strokeColor2=#0E7DAD;fontSize=12;fontColor=#ffffff;align=center;metaEdit=1;points=[[0.5,0,0],[1,0.25,0],[1,0.5,0],[1,0.75,0],[0.5,1,0],[0,0.75,0],[0,0.5,0],[0,0.25,0]];resizable=0;" parent="yi8AeXn8OY7Mouasb5kO-1" vertex="1">
            <mxGeometry x="320" y="280" width="240" height="160" as="geometry" />
          </mxCell>
        </object>
        <mxCell id="liKx2V0Gvg_Djn8K8-XW-36" style="edgeStyle=orthogonalEdgeStyle;rounded=0;orthogonalLoop=1;jettySize=auto;html=1;" parent="yi8AeXn8OY7Mouasb5kO-1" source="C10srk0M0FEgaKOojTgq-2" target="C10srk0M0FEgaKOojTgq-0" edge="1">
          <mxGeometry relative="1" as="geometry">
            <Array as="points">
              <mxPoint x="150" y="540" />
              <mxPoint x="720" y="540" />
            </Array>
          </mxGeometry>
        </mxCell>
        <object placeholders="1" c4Type="Mobile App" c4Container="Mobile Application" c4Technology="IOS and Android kit development or Kotling" c4Description="Mobile Channel  and medium to customer access to initiatives" label="&lt;font style=&quot;font-size: 16px&quot;&gt;&lt;b&gt;%c4Type%&lt;/b&gt;&lt;/font&gt;&lt;div&gt;[%c4Container%:&amp;nbsp;%c4Technology%]&lt;/div&gt;&lt;br&gt;&lt;div&gt;&lt;font style=&quot;font-size: 11px&quot;&gt;&lt;font color=&quot;#E6E6E6&quot;&gt;%c4Description%&lt;/font&gt;&lt;/div&gt;" id="C10srk0M0FEgaKOojTgq-2">
          <mxCell style="shape=mxgraph.c4.webBrowserContainer2;whiteSpace=wrap;html=1;boundedLbl=1;rounded=0;labelBackgroundColor=none;strokeColor=#118ACD;fillColor=#23A2D9;strokeColor=#118ACD;strokeColor2=#0E7DAD;fontSize=12;fontColor=#ffffff;align=center;metaEdit=1;points=[[0.5,0,0],[1,0.25,0],[1,0.5,0],[1,0.75,0],[0.5,1,0],[0,0.75,0],[0,0.5,0],[0,0.25,0]];resizable=0;" parent="yi8AeXn8OY7Mouasb5kO-1" vertex="1">
            <mxGeometry x="50" y="280" width="240" height="160" as="geometry" />
          </mxCell>
        </object>
        <mxCell id="liKx2V0Gvg_Djn8K8-XW-35" style="edgeStyle=orthogonalEdgeStyle;rounded=0;orthogonalLoop=1;jettySize=auto;html=1;" parent="yi8AeXn8OY7Mouasb5kO-1" source="C10srk0M0FEgaKOojTgq-3" target="C10srk0M0FEgaKOojTgq-0" edge="1">
          <mxGeometry relative="1" as="geometry" />
        </mxCell>
        <object placeholders="1" c4Type="SPA Application" c4Container="SPA Application" c4Technology="Html5, JavaScript, React, Angular,  using Micro front-end and static content by CDN Caché" c4Description="Web and SPA Channel  and medium to customer access to initiatives using web browser" label="&lt;font style=&quot;font-size: 16px&quot;&gt;&lt;b&gt;%c4Type%&lt;/b&gt;&lt;/font&gt;&lt;div&gt;[%c4Container%:&amp;nbsp;%c4Technology%]&lt;/div&gt;&lt;br&gt;&lt;div&gt;&lt;font style=&quot;font-size: 11px&quot;&gt;&lt;font color=&quot;#E6E6E6&quot;&gt;%c4Description%&lt;/font&gt;&lt;/div&gt;" id="C10srk0M0FEgaKOojTgq-3">
          <mxCell style="shape=mxgraph.c4.webBrowserContainer2;whiteSpace=wrap;html=1;boundedLbl=1;rounded=0;labelBackgroundColor=none;strokeColor=#118ACD;fillColor=#23A2D9;strokeColor=#118ACD;strokeColor2=#0E7DAD;fontSize=12;fontColor=#ffffff;align=center;metaEdit=1;points=[[0.5,0,0],[1,0.25,0],[1,0.5,0],[1,0.75,0],[0.5,1,0],[0,0.75,0],[0,0.5,0],[0,0.25,0]];resizable=0;" parent="yi8AeXn8OY7Mouasb5kO-1" vertex="1">
            <mxGeometry x="580" y="280" width="240" height="160" as="geometry" />
          </mxCell>
        </object>
        <mxCell id="liKx2V0Gvg_Djn8K8-XW-3" style="edgeStyle=orthogonalEdgeStyle;rounded=0;orthogonalLoop=1;jettySize=auto;html=1;entryX=0.5;entryY=1;entryDx=0;entryDy=0;entryPerimeter=0;exitX=0;exitY=0.5;exitDx=0;exitDy=0;exitPerimeter=0;" parent="yi8AeXn8OY7Mouasb5kO-1" source="4CLLnToGZNJSwSs5uMBz-1" target="liKx2V0Gvg_Djn8K8-XW-1" edge="1">
          <mxGeometry relative="1" as="geometry">
            <mxPoint x="95" y="954" as="sourcePoint" />
            <mxPoint x="95" y="879" as="targetPoint" />
          </mxGeometry>
        </mxCell>
        <object placeholders="1" c4Type="Transition Outbox  NoSQL Database" c4Container="Transition Outbox  Database " c4Technology="MongoDB, MariaDB, ElasticSearch, NOSQL" c4Description="This database has the purpose of   enabling the application pattern Transition outbox pattern ensure that all requests are saved in our systems and are further processed" label="&lt;font style=&quot;font-size: 16px&quot;&gt;&lt;b&gt;%c4Type%&lt;/b&gt;&lt;/font&gt;&lt;div&gt;[%c4Container%:&amp;nbsp;%c4Technology%]&lt;/div&gt;&lt;br&gt;&lt;div&gt;&lt;font style=&quot;font-size: 11px&quot;&gt;&lt;font color=&quot;#E6E6E6&quot;&gt;%c4Description%&lt;/font&gt;&lt;/div&gt;" id="liKx2V0Gvg_Djn8K8-XW-1">
          <mxCell style="shape=cylinder3;size=15;whiteSpace=wrap;html=1;boundedLbl=1;rounded=0;labelBackgroundColor=none;fillColor=#23A2D9;fontSize=12;fontColor=#ffffff;align=center;strokeColor=#0E7DAD;metaEdit=1;points=[[0.5,0,0],[1,0.25,0],[1,0.5,0],[1,0.75,0],[0.5,1,0],[0,0.75,0],[0,0.5,0],[0,0.25,0]];resizable=1;movable=1;rotatable=1;deletable=1;editable=1;locked=0;connectable=1;" parent="yi8AeXn8OY7Mouasb5kO-1" vertex="1">
            <mxGeometry x="40" y="590" width="300" height="149" as="geometry" />
          </mxCell>
        </object>
        <mxCell id="liKx2V0Gvg_Djn8K8-XW-19" style="edgeStyle=orthogonalEdgeStyle;rounded=0;orthogonalLoop=1;jettySize=auto;html=1;" parent="yi8AeXn8OY7Mouasb5kO-1" target="yi8AeXn8OY7Mouasb5kO-16" edge="1">
          <mxGeometry relative="1" as="geometry">
            <mxPoint x="190" y="1300" as="sourcePoint" />
            <Array as="points">
              <mxPoint x="190" y="1290" />
              <mxPoint x="200" y="1290" />
            </Array>
          </mxGeometry>
        </mxCell>
        <mxCell id="EcB-H63gMRl5h4CKyX19-1" style="edgeStyle=orthogonalEdgeStyle;rounded=0;orthogonalLoop=1;jettySize=auto;html=1;entryX=0.5;entryY=0;entryDx=0;entryDy=0;entryPerimeter=0;startArrow=classic;startFill=1;" edge="1" parent="yi8AeXn8OY7Mouasb5kO-1" source="liKx2V0Gvg_Djn8K8-XW-4" target="4CLLnToGZNJSwSs5uMBz-1">
          <mxGeometry relative="1" as="geometry">
            <Array as="points">
              <mxPoint x="135" y="1340" />
              <mxPoint x="360" y="1340" />
              <mxPoint x="360" y="840" />
            </Array>
          </mxGeometry>
        </mxCell>
        <object placeholders="1" c4Name="customer-ms" c4Type="Microservice" c4Technology="Spring Boot, Java11+ " c4Description="Microservice in charge of managing the business capabilities associated with the customer domains.&#xa;The integration interfaces can be HTTPS/REST/SOAP to expose funcionality to channel directly.&#xa;Other integration way is consumer,   how kafka listener to customer-topic&#xa;This component  can process business capability and deiver or exchange information with external systems and even it&#39;s own relational database&#xa;&#xa;&#xa;" label="&lt;font style=&quot;font-size: 16px&quot;&gt;&lt;b&gt;%c4Name%&lt;/b&gt;&lt;/font&gt;&lt;div&gt;[%c4Type%: %c4Technology%]&lt;/div&gt;&lt;br&gt;&lt;div&gt;&lt;font style=&quot;font-size: 11px&quot;&gt;&lt;font color=&quot;#E6E6E6&quot;&gt;%c4Description%&lt;/font&gt;&lt;/div&gt;" id="liKx2V0Gvg_Djn8K8-XW-4">
          <mxCell style="rounded=1;whiteSpace=wrap;html=1;fontSize=11;labelBackgroundColor=none;fillColor=#23A2D9;fontColor=#ffffff;align=center;arcSize=10;strokeColor=#0E7DAD;metaEdit=1;resizable=1;points=[[0.25,0,0],[0.5,0,0],[0.75,0,0],[1,0.25,0],[1,0.5,0],[1,0.75,0],[0.75,1,0],[0.5,1,0],[0.25,1,0],[0,0.75,0],[0,0.5,0],[0,0.25,0]];movable=1;rotatable=1;deletable=1;editable=1;locked=0;connectable=1;" parent="yi8AeXn8OY7Mouasb5kO-1" vertex="1">
            <mxGeometry x="7" y="1387" width="270" height="200" as="geometry" />
          </mxCell>
        </object>
        <mxCell id="4CLLnToGZNJSwSs5uMBz-2" style="edgeStyle=orthogonalEdgeStyle;rounded=0;orthogonalLoop=1;jettySize=auto;html=1;entryX=0.5;entryY=0;entryDx=0;entryDy=0;entryPerimeter=0;exitX=0.75;exitY=0;exitDx=0;exitDy=0;exitPerimeter=0;startArrow=classic;startFill=1;" parent="yi8AeXn8OY7Mouasb5kO-1" target="4CLLnToGZNJSwSs5uMBz-1" edge="1" source="liKx2V0Gvg_Djn8K8-XW-8">
          <mxGeometry relative="1" as="geometry">
            <mxPoint x="500" y="1640" as="sourcePoint" />
            <Array as="points">
              <mxPoint x="493" y="1190" />
              <mxPoint x="390" y="1190" />
              <mxPoint x="390" y="840" />
            </Array>
          </mxGeometry>
        </mxCell>
        <object placeholders="1" c4Name="product-ms" c4Type="Microservice" c4Technology="Spring Boot, Java11+ " c4Description="Microservice in charge of managing the business capabilities associated with the product domains.&#xa;The integration interfaces can be HTTPS/REST/SOAP to expose funcionality to channel directly.&#xa;Other integration way is consumer,   how kafka listener to product-topic&#xa;This component  can process business capability and deiver or exchange information with external systems and even it&#39;s own relational database&#xa;&#xa;&#xa;" label="&lt;font style=&quot;font-size: 16px&quot;&gt;&lt;b&gt;%c4Name%&lt;/b&gt;&lt;/font&gt;&lt;div&gt;[%c4Type%: %c4Technology%]&lt;/div&gt;&lt;br&gt;&lt;div&gt;&lt;font style=&quot;font-size: 11px&quot;&gt;&lt;font color=&quot;#E6E6E6&quot;&gt;%c4Description%&lt;/font&gt;&lt;/div&gt;" id="liKx2V0Gvg_Djn8K8-XW-8">
          <mxCell style="rounded=1;whiteSpace=wrap;html=1;fontSize=11;labelBackgroundColor=none;fillColor=#23A2D9;fontColor=#ffffff;align=center;arcSize=10;strokeColor=#0E7DAD;metaEdit=1;resizable=1;points=[[0.25,0,0],[0.5,0,0],[0.75,0,0],[1,0.25,0],[1,0.5,0],[1,0.75,0],[0.75,1,0],[0.5,1,0],[0.25,1,0],[0,0.75,0],[0,0.5,0],[0,0.25,0]];movable=1;rotatable=1;deletable=1;editable=1;locked=0;connectable=1;" parent="yi8AeXn8OY7Mouasb5kO-1" vertex="1">
            <mxGeometry x="290" y="1387" width="270" height="200" as="geometry" />
          </mxCell>
        </object>
        <mxCell id="liKx2V0Gvg_Djn8K8-XW-10" value="&lt;span style=&quot;background-color: initial;&quot;&gt;trigger event&lt;/span&gt;" style="text;html=1;strokeColor=none;fillColor=none;align=left;verticalAlign=middle;whiteSpace=wrap;rounded=0;" parent="yi8AeXn8OY7Mouasb5kO-1" vertex="1">
          <mxGeometry x="230" y="754" width="70" height="30" as="geometry" />
        </mxCell>
        <mxCell id="EcB-H63gMRl5h4CKyX19-4" style="edgeStyle=orthogonalEdgeStyle;rounded=0;orthogonalLoop=1;jettySize=auto;html=1;entryX=0.5;entryY=1;entryDx=0;entryDy=0;entryPerimeter=0;" edge="1" parent="yi8AeXn8OY7Mouasb5kO-1" target="yi8AeXn8OY7Mouasb5kO-15">
          <mxGeometry relative="1" as="geometry">
            <mxPoint x="720" y="1290" as="sourcePoint" />
          </mxGeometry>
        </mxCell>
        <object placeholders="1" c4Name="payment-ms" c4Type="Microservice" c4Technology="Spring Boot, Java11+ " c4Description="Microservice in charge of managing the business capabilities associated with the payment domains.&#xa;The integration interfaces can be HTTPS/REST/SOAP to expose funcionality to channel directly.&#xa;Other integration way is consumer,   how kafka listener to payment-topic&#xa;This component  can process business capability and deiver or exchange information with external systems and even it&#39;s own relational database&#xa;&#xa;&#xa;" label="&lt;font style=&quot;font-size: 16px&quot;&gt;&lt;b&gt;%c4Name%&lt;/b&gt;&lt;/font&gt;&lt;div&gt;[%c4Type%: %c4Technology%]&lt;/div&gt;&lt;br&gt;&lt;div&gt;&lt;font style=&quot;font-size: 11px&quot;&gt;&lt;font color=&quot;#E6E6E6&quot;&gt;%c4Description%&lt;/font&gt;&lt;/div&gt;" id="liKx2V0Gvg_Djn8K8-XW-12">
          <mxCell style="rounded=1;whiteSpace=wrap;html=1;fontSize=11;labelBackgroundColor=none;fillColor=#23A2D9;fontColor=#ffffff;align=center;arcSize=10;strokeColor=#0E7DAD;metaEdit=1;resizable=1;points=[[0.25,0,0],[0.5,0,0],[0.75,0,0],[1,0.25,0],[1,0.5,0],[1,0.75,0],[0.75,1,0],[0.5,1,0],[0.25,1,0],[0,0.75,0],[0,0.5,0],[0,0.25,0]];movable=1;rotatable=1;deletable=1;editable=1;locked=0;connectable=1;" parent="yi8AeXn8OY7Mouasb5kO-1" vertex="1">
            <mxGeometry x="570" y="1387" width="270" height="200" as="geometry" />
          </mxCell>
        </object>
        <object placeholders="1" c4Name="Processing Layer" c4Type="Processing Layer ScopeBoundary" c4Application="Processing Layer" label="&lt;font style=&quot;font-size: 16px&quot;&gt;&lt;b&gt;&lt;div style=&quot;text-align: left&quot;&gt;%c4Name%&lt;/div&gt;&lt;/b&gt;&lt;/font&gt;&lt;div style=&quot;text-align: left&quot;&gt;[%c4Application%]&lt;/div&gt;" id="liKx2V0Gvg_Djn8K8-XW-16">
          <mxCell style="rounded=1;fontSize=11;whiteSpace=wrap;html=1;dashed=1;arcSize=20;fillColor=none;strokeColor=#666666;fontColor=#333333;labelBackgroundColor=none;align=left;verticalAlign=bottom;labelBorderColor=none;spacingTop=0;spacing=10;dashPattern=8 4;metaEdit=1;rotatable=0;perimeter=rectanglePerimeter;noLabel=0;labelPadding=0;allowArrows=0;connectable=0;expand=0;recursiveResize=0;editable=1;pointerEvents=0;absoluteArcSize=1;points=[[0.25,0,0],[0.5,0,0],[0.75,0,0],[1,0.25,0],[1,0.5,0],[1,0.75,0],[0.75,1,0],[0.5,1,0],[0.25,1,0],[0,0.75,0],[0,0.5,0],[0,0.25,0]];strokeWidth=3;" parent="yi8AeXn8OY7Mouasb5kO-1" vertex="1">
            <mxGeometry x="10" y="1297" width="830" height="523" as="geometry" />
          </mxCell>
        </object>
        <mxCell id="liKx2V0Gvg_Djn8K8-XW-17" value="&lt;div style=&quot;&quot;&gt;&lt;span style=&quot;background-color: initial;&quot;&gt;HTTP/REST/JSON&lt;/span&gt;&lt;/div&gt;" style="text;html=1;strokeColor=none;fillColor=none;align=center;verticalAlign=middle;whiteSpace=wrap;rounded=0;" parent="yi8AeXn8OY7Mouasb5kO-1" vertex="1">
          <mxGeometry x="120" y="510" width="250" height="30" as="geometry" />
        </mxCell>
        <mxCell id="liKx2V0Gvg_Djn8K8-XW-20" value="&lt;div style=&quot;&quot;&gt;&lt;span style=&quot;background-color: initial;&quot;&gt;HTTP/REST/JSON&lt;/span&gt;&lt;/div&gt;" style="text;html=1;strokeColor=none;fillColor=none;align=center;verticalAlign=middle;whiteSpace=wrap;rounded=0;" parent="yi8AeXn8OY7Mouasb5kO-1" vertex="1">
          <mxGeometry x="570" y="1250" width="130" height="30" as="geometry" />
        </mxCell>
        <object placeholders="1" c4Name="Front-End Application Channels" c4Type="Front-End Application Channels ScopeBoundary" c4Application="Front-End Application Channels" label="&lt;font style=&quot;font-size: 16px&quot;&gt;&lt;b&gt;&lt;div style=&quot;text-align: left&quot;&gt;%c4Name%&lt;/div&gt;&lt;/b&gt;&lt;/font&gt;&lt;div style=&quot;text-align: left&quot;&gt;[%c4Application%]&lt;/div&gt;" id="liKx2V0Gvg_Djn8K8-XW-24">
          <mxCell style="rounded=1;fontSize=11;whiteSpace=wrap;html=1;dashed=1;arcSize=20;fillColor=none;strokeColor=#666666;fontColor=#333333;labelBackgroundColor=none;align=left;verticalAlign=bottom;labelBorderColor=none;spacingTop=0;spacing=10;dashPattern=8 4;metaEdit=1;rotatable=0;perimeter=rectanglePerimeter;noLabel=0;labelPadding=0;allowArrows=0;connectable=0;expand=0;recursiveResize=0;editable=1;pointerEvents=0;absoluteArcSize=1;points=[[0.25,0,0],[0.5,0,0],[0.75,0,0],[1,0.25,0],[1,0.5,0],[1,0.75,0],[0.75,1,0],[0.5,1,0],[0.25,1,0],[0,0.75,0],[0,0.5,0],[0,0.25,0]];strokeWidth=3;" parent="yi8AeXn8OY7Mouasb5kO-1" vertex="1">
            <mxGeometry x="20" y="240" width="820" height="270" as="geometry" />
          </mxCell>
        </object>
        <object placeholders="1" c4Name="Ingest Layer" c4Type="Ingest Layer ScopeBoundary" c4Application="Ingest Layer" label="&lt;font style=&quot;font-size: 16px&quot;&gt;&lt;b&gt;&lt;div style=&quot;text-align: left&quot;&gt;%c4Name%&lt;/div&gt;&lt;/b&gt;&lt;/font&gt;&lt;div style=&quot;text-align: left&quot;&gt;[%c4Application%]&lt;/div&gt;" id="liKx2V0Gvg_Djn8K8-XW-28">
          <mxCell style="rounded=1;fontSize=11;whiteSpace=wrap;html=1;dashed=1;arcSize=20;fillColor=none;strokeColor=#666666;fontColor=#333333;labelBackgroundColor=none;align=left;verticalAlign=bottom;labelBorderColor=none;spacingTop=0;spacing=10;dashPattern=8 4;metaEdit=1;rotatable=0;perimeter=rectanglePerimeter;noLabel=0;labelPadding=0;allowArrows=0;connectable=0;expand=0;recursiveResize=0;editable=1;pointerEvents=0;absoluteArcSize=1;points=[[0.25,0,0],[0.5,0,0],[0.75,0,0],[1,0.25,0],[1,0.5,0],[1,0.75,0],[0.75,1,0],[0.5,1,0],[0.25,1,0],[0,0.75,0],[0,0.5,0],[0,0.25,0]];strokeWidth=3;" parent="yi8AeXn8OY7Mouasb5kO-1" vertex="1">
            <mxGeometry x="20" y="580" width="820" height="370" as="geometry" />
          </mxCell>
        </object>
        <object placeholders="1" c4Name="Core Layer" c4Type="Core Layer ScopeBoundary" c4Application="Core Layer" label="&lt;font style=&quot;font-size: 16px&quot;&gt;&lt;b&gt;&lt;div style=&quot;text-align: left&quot;&gt;%c4Name%&lt;/div&gt;&lt;/b&gt;&lt;/font&gt;&lt;div style=&quot;text-align: left&quot;&gt;[%c4Application%]&lt;/div&gt;" id="liKx2V0Gvg_Djn8K8-XW-29">
          <mxCell style="rounded=1;fontSize=11;whiteSpace=wrap;html=1;dashed=1;arcSize=20;fillColor=none;strokeColor=#666666;fontColor=#333333;labelBackgroundColor=none;align=left;verticalAlign=bottom;labelBorderColor=none;spacingTop=0;spacing=10;dashPattern=8 4;metaEdit=1;rotatable=0;perimeter=rectanglePerimeter;noLabel=0;labelPadding=0;allowArrows=0;connectable=0;expand=0;recursiveResize=0;editable=1;pointerEvents=0;absoluteArcSize=1;points=[[0.25,0,0],[0.5,0,0],[0.75,0,0],[1,0.25,0],[1,0.5,0],[1,0.75,0],[0.75,1,0],[0.5,1,0],[0.25,1,0],[0,0.75,0],[0,0.5,0],[0,0.25,0]];strokeWidth=3;" parent="yi8AeXn8OY7Mouasb5kO-1" vertex="1">
            <mxGeometry x="7" y="1850" width="830" height="220" as="geometry" />
          </mxCell>
        </object>
        <mxCell id="liKx2V0Gvg_Djn8K8-XW-31" value="&lt;div style=&quot;&quot;&gt;&lt;span style=&quot;background-color: initial;&quot;&gt;HTTP/REST/JSON&lt;/span&gt;&lt;/div&gt;" style="text;html=1;strokeColor=none;fillColor=none;align=center;verticalAlign=middle;whiteSpace=wrap;rounded=0;" parent="yi8AeXn8OY7Mouasb5kO-1" vertex="1">
          <mxGeometry x="530" y="1700" width="250" height="30" as="geometry" />
        </mxCell>
        <mxCell id="liKx2V0Gvg_Djn8K8-XW-32" value="&lt;div style=&quot;&quot;&gt;&lt;span style=&quot;background-color: initial;&quot;&gt;HTTP/REST/JSON&lt;/span&gt;&lt;/div&gt;" style="text;html=1;strokeColor=none;fillColor=none;align=center;verticalAlign=middle;whiteSpace=wrap;rounded=0;" parent="yi8AeXn8OY7Mouasb5kO-1" vertex="1">
          <mxGeometry x="545" y="840" width="150" height="30" as="geometry" />
        </mxCell>
        <mxCell id="liKx2V0Gvg_Djn8K8-XW-33" value="&lt;div style=&quot;&quot;&gt;&lt;span style=&quot;background-color: initial;&quot;&gt;TCP&lt;/span&gt;&lt;/div&gt;" style="text;html=1;strokeColor=none;fillColor=none;align=center;verticalAlign=middle;whiteSpace=wrap;rounded=0;" parent="yi8AeXn8OY7Mouasb5kO-1" vertex="1">
          <mxGeometry x="260" y="980" width="90" height="30" as="geometry" />
        </mxCell>
        <mxCell id="liKx2V0Gvg_Djn8K8-XW-37" style="edgeStyle=orthogonalEdgeStyle;rounded=0;orthogonalLoop=1;jettySize=auto;html=1;exitX=0.5;exitY=1;exitDx=0;exitDy=0;" parent="yi8AeXn8OY7Mouasb5kO-1" edge="1">
          <mxGeometry relative="1" as="geometry">
            <mxPoint x="355" y="1110" as="sourcePoint" />
            <mxPoint x="355" y="1110" as="targetPoint" />
          </mxGeometry>
        </mxCell>
        <object placeholders="1" c4Type="EventHub" c4Container="the Event Hub is responsible for receiving all  event that are launched by other systems, especially when data is recorded in the TX Outbox database and thar confirm the transaction" c4Technology="Kafka, rabbitMQ, AWS SQS" c4Description="EventHub" label="&lt;font style=&quot;font-size: 16px&quot;&gt;&lt;b&gt;%c4Type%&lt;/b&gt;&lt;/font&gt;&lt;div&gt;[%c4Container%:&amp;nbsp;%c4Technology%]&lt;/div&gt;&lt;br&gt;&lt;div&gt;&lt;font style=&quot;font-size: 11px&quot;&gt;&lt;font color=&quot;#E6E6E6&quot;&gt;%c4Description%&lt;/font&gt;&lt;/div&gt;" id="4CLLnToGZNJSwSs5uMBz-1">
          <mxCell style="shape=cylinder3;size=15;direction=south;whiteSpace=wrap;html=1;boundedLbl=1;rounded=0;labelBackgroundColor=none;fillColor=#23A2D9;fontSize=12;fontColor=#ffffff;align=center;strokeColor=#0E7DAD;metaEdit=1;points=[[0.5,0,0],[1,0.25,0],[1,0.5,0],[1,0.75,0],[0.5,1,0],[0,0.75,0],[0,0.5,0],[0,0.25,0]];resizable=1;movable=1;rotatable=1;deletable=1;editable=1;locked=0;connectable=1;" parent="yi8AeXn8OY7Mouasb5kO-1" vertex="1">
            <mxGeometry x="40" y="779" width="300" height="121" as="geometry" />
          </mxCell>
        </object>
      </root>
    </mxGraphModel>
  </diagram>
  <diagram name="C4-Component" id="jfR8RjmALyilwOVLTrCO">
    <mxGraphModel dx="2450" dy="2067" grid="1" gridSize="10" guides="1" tooltips="1" connect="1" arrows="1" fold="1" page="1" pageScale="1" pageWidth="850" pageHeight="1100" math="0" shadow="0">
      <root>
        <mxCell id="a1d22pdOEVHyLeYzTiBl-0" />
        <mxCell id="a1d22pdOEVHyLeYzTiBl-1" parent="a1d22pdOEVHyLeYzTiBl-0" />
        <mxCell id="a1d22pdOEVHyLeYzTiBl-2" style="edgeStyle=orthogonalEdgeStyle;rounded=0;orthogonalLoop=1;jettySize=auto;html=1;" parent="a1d22pdOEVHyLeYzTiBl-1" source="a1d22pdOEVHyLeYzTiBl-3" edge="1">
          <mxGeometry relative="1" as="geometry">
            <mxPoint x="350" y="-700" as="targetPoint" />
          </mxGeometry>
        </mxCell>
        <object placeholders="1" c4Name="Customer" c4Type="Customer" c4Description="Banking Customer " label="&lt;font style=&quot;font-size: 16px&quot;&gt;&lt;b&gt;%c4Name%&lt;/b&gt;&lt;/font&gt;&lt;div&gt;[%c4Type%]&lt;/div&gt;&lt;br&gt;&lt;div&gt;&lt;font style=&quot;font-size: 11px&quot;&gt;&lt;font color=&quot;#cccccc&quot;&gt;%c4Description%&lt;/font&gt;&lt;/div&gt;" id="a1d22pdOEVHyLeYzTiBl-3">
          <mxCell style="html=1;fontSize=11;dashed=0;whiteSpace=wrap;fillColor=#083F75;strokeColor=#06315C;fontColor=#ffffff;shape=mxgraph.c4.person2;align=center;metaEdit=1;points=[[0.5,0,0],[1,0.5,0],[1,0.75,0],[0.75,1,0],[0.5,1,0],[0.25,1,0],[0,0.75,0],[0,0.5,0]];resizable=0;" parent="a1d22pdOEVHyLeYzTiBl-1" vertex="1">
            <mxGeometry x="250" y="-1080" width="200" height="180" as="geometry" />
          </mxCell>
        </object>
        <object placeholders="1" c4Name="Core One System" c4Type="Core One System" c4Description="Retrieve Basic Customer information" label="&lt;font style=&quot;font-size: 16px&quot;&gt;&lt;b&gt;%c4Name%&lt;/b&gt;&lt;/font&gt;&lt;div&gt;[%c4Type%]&lt;/div&gt;&lt;br&gt;&lt;div&gt;&lt;font style=&quot;font-size: 11px&quot;&gt;&lt;font color=&quot;#cccccc&quot;&gt;%c4Description%&lt;/font&gt;&lt;/div&gt;" id="a1d22pdOEVHyLeYzTiBl-4">
          <mxCell style="rounded=1;whiteSpace=wrap;html=1;labelBackgroundColor=none;fillColor=#1061B0;fontColor=#ffffff;align=center;arcSize=10;strokeColor=#0D5091;metaEdit=1;resizable=0;points=[[0.25,0,0],[0.5,0,0],[0.75,0,0],[1,0.25,0],[1,0.5,0],[1,0.75,0],[0.75,1,0],[0.5,1,0],[0.25,1,0],[0,0.75,0],[0,0.5,0],[0,0.25,0]];" parent="a1d22pdOEVHyLeYzTiBl-1" vertex="1">
            <mxGeometry x="20" y="1490" width="240" height="120" as="geometry" />
          </mxCell>
        </object>
        <object placeholders="1" c4Name="Core Two System" c4Type="Core Two System" c4Description="Retrieve Advanced Customer information" label="&lt;font style=&quot;font-size: 16px&quot;&gt;&lt;b&gt;%c4Name%&lt;/b&gt;&lt;/font&gt;&lt;div&gt;[%c4Type%]&lt;/div&gt;&lt;br&gt;&lt;div&gt;&lt;font style=&quot;font-size: 11px&quot;&gt;&lt;font color=&quot;#cccccc&quot;&gt;%c4Description%&lt;/font&gt;&lt;/div&gt;" id="a1d22pdOEVHyLeYzTiBl-5">
          <mxCell style="rounded=1;whiteSpace=wrap;html=1;labelBackgroundColor=none;fillColor=#1061B0;fontColor=#ffffff;align=center;arcSize=10;strokeColor=#0D5091;metaEdit=1;resizable=0;points=[[0.25,0,0],[0.5,0,0],[0.75,0,0],[1,0.25,0],[1,0.5,0],[1,0.75,0],[0.75,1,0],[0.5,1,0],[0.25,1,0],[0,0.75,0],[0,0.5,0],[0,0.25,0]];" parent="a1d22pdOEVHyLeYzTiBl-1" vertex="1">
            <mxGeometry x="590" y="1490" width="240" height="120" as="geometry" />
          </mxCell>
        </object>
        <object placeholders="1" c4Name="External Notification System" c4Type="Notification System" c4Description="External Notification System" label="&lt;font style=&quot;font-size: 16px&quot;&gt;&lt;b&gt;%c4Name%&lt;/b&gt;&lt;/font&gt;&lt;div&gt;[%c4Type%]&lt;/div&gt;&lt;br&gt;&lt;div&gt;&lt;font style=&quot;font-size: 11px&quot;&gt;&lt;font color=&quot;#cccccc&quot;&gt;%c4Description%&lt;/font&gt;&lt;/div&gt;" id="a1d22pdOEVHyLeYzTiBl-7">
          <mxCell style="rounded=1;whiteSpace=wrap;html=1;labelBackgroundColor=none;fillColor=#8C8496;fontColor=#ffffff;align=center;arcSize=10;strokeColor=#736782;metaEdit=1;resizable=1;points=[[0.25,0,0],[0.5,0,0],[0.75,0,0],[1,0.25,0],[1,0.5,0],[1,0.75,0],[0.75,1,0],[0.5,1,0],[0.25,1,0],[0,0.75,0],[0,0.5,0],[0,0.25,0]];movable=1;rotatable=1;deletable=1;editable=1;locked=0;connectable=1;" parent="a1d22pdOEVHyLeYzTiBl-1" vertex="1">
            <mxGeometry x="310" y="1270" width="226" height="100" as="geometry" />
          </mxCell>
        </object>
        <object placeholders="1" c4Name="External Biometric System" c4Type="Biometric  System" c4Description="External Biometric System" label="&lt;font style=&quot;font-size: 16px&quot;&gt;&lt;b&gt;%c4Name%&lt;/b&gt;&lt;/font&gt;&lt;div&gt;[%c4Type%]&lt;/div&gt;&lt;br&gt;&lt;div&gt;&lt;font style=&quot;font-size: 11px&quot;&gt;&lt;font color=&quot;#cccccc&quot;&gt;%c4Description%&lt;/font&gt;&lt;/div&gt;" id="a1d22pdOEVHyLeYzTiBl-10">
          <mxCell style="rounded=1;whiteSpace=wrap;html=1;labelBackgroundColor=none;fillColor=#8C8496;fontColor=#ffffff;align=center;arcSize=10;strokeColor=#736782;metaEdit=1;resizable=1;points=[[0.25,0,0],[0.5,0,0],[0.75,0,0],[1,0.25,0],[1,0.5,0],[1,0.75,0],[0.75,1,0],[0.5,1,0],[0.25,1,0],[0,0.75,0],[0,0.5,0],[0,0.25,0]];movable=1;rotatable=1;deletable=1;editable=1;locked=0;connectable=1;" parent="a1d22pdOEVHyLeYzTiBl-1" vertex="1">
            <mxGeometry x="570" y="1120" width="216" height="120" as="geometry" />
          </mxCell>
        </object>
        <object placeholders="1" c4Name="External Sign Digital System" c4Type="Sign Digital  System" c4Description="External Sign Digital System" label="&lt;font style=&quot;font-size: 16px&quot;&gt;&lt;b&gt;%c4Name%&lt;/b&gt;&lt;/font&gt;&lt;div&gt;[%c4Type%]&lt;/div&gt;&lt;br&gt;&lt;div&gt;&lt;font style=&quot;font-size: 11px&quot;&gt;&lt;font color=&quot;#cccccc&quot;&gt;%c4Description%&lt;/font&gt;&lt;/div&gt;" id="a1d22pdOEVHyLeYzTiBl-11">
          <mxCell style="rounded=1;whiteSpace=wrap;html=1;labelBackgroundColor=none;fillColor=#8C8496;fontColor=#ffffff;align=center;arcSize=10;strokeColor=#736782;metaEdit=1;resizable=1;points=[[0.25,0,0],[0.5,0,0],[0.75,0,0],[1,0.25,0],[1,0.5,0],[1,0.75,0],[0.75,1,0],[0.5,1,0],[0.25,1,0],[0,0.75,0],[0,0.5,0],[0,0.25,0]];movable=1;rotatable=1;deletable=1;editable=1;locked=0;connectable=1;" parent="a1d22pdOEVHyLeYzTiBl-1" vertex="1">
            <mxGeometry x="76" y="1120" width="214" height="120" as="geometry" />
          </mxCell>
        </object>
        <mxCell id="a1d22pdOEVHyLeYzTiBl-12" value="&lt;ul&gt;&lt;li&gt;Transferencias cuentas propias&lt;/li&gt;&lt;li&gt;Transferencias cuentas interbancarias&lt;/li&gt;&lt;li&gt;Pagos&lt;/li&gt;&lt;li&gt;Consultar Transferencias&lt;/li&gt;&lt;li&gt;Consulta Histórico de movimientos&lt;/li&gt;&lt;li&gt;Consultas de Clientes&lt;/li&gt;&lt;li&gt;Consulta de Movimientos&lt;/li&gt;&lt;li&gt;Consulta de Productos&lt;/li&gt;&lt;li&gt;Crear cuenta de usuario&lt;/li&gt;&lt;li&gt;Firmar Difitalmente&lt;/li&gt;&lt;li&gt;Validación de Identidad y biometría&lt;/li&gt;&lt;/ul&gt;" style="text;html=1;strokeColor=none;fillColor=none;align=left;verticalAlign=middle;whiteSpace=wrap;rounded=0;" parent="a1d22pdOEVHyLeYzTiBl-1" vertex="1">
          <mxGeometry x="480" y="-1020" width="250" height="30" as="geometry" />
        </mxCell>
        <mxCell id="a1d22pdOEVHyLeYzTiBl-13" value="&lt;div style=&quot;&quot;&gt;&lt;span style=&quot;background-color: initial;&quot;&gt;HTTP/REST/JSON&lt;/span&gt;&lt;/div&gt;" style="text;html=1;strokeColor=none;fillColor=none;align=center;verticalAlign=middle;whiteSpace=wrap;rounded=0;" parent="a1d22pdOEVHyLeYzTiBl-1" vertex="1">
          <mxGeometry x="175" y="1060" width="250" height="30" as="geometry" />
        </mxCell>
        <mxCell id="a1d22pdOEVHyLeYzTiBl-17" style="edgeStyle=orthogonalEdgeStyle;rounded=0;orthogonalLoop=1;jettySize=auto;html=1;entryX=1;entryY=0.5;entryDx=0;entryDy=0;entryPerimeter=0;" parent="a1d22pdOEVHyLeYzTiBl-1" source="6HwDcynMTSfoT9Jp3x4x-5" target="a1d22pdOEVHyLeYzTiBl-24" edge="1">
          <mxGeometry relative="1" as="geometry">
            <mxPoint x="640" y="25" as="targetPoint" />
            <Array as="points">
              <mxPoint x="705" y="120" />
            </Array>
          </mxGeometry>
        </mxCell>
        <mxCell id="6HwDcynMTSfoT9Jp3x4x-4" style="edgeStyle=orthogonalEdgeStyle;rounded=0;orthogonalLoop=1;jettySize=auto;html=1;" parent="a1d22pdOEVHyLeYzTiBl-1" source="a1d22pdOEVHyLeYzTiBl-18" target="6HwDcynMTSfoT9Jp3x4x-3" edge="1">
          <mxGeometry relative="1" as="geometry">
            <Array as="points">
              <mxPoint x="455" y="-490" />
              <mxPoint x="455" y="-490" />
            </Array>
          </mxGeometry>
        </mxCell>
        <object placeholders="1" c4Type="Web Application" c4Container="Web Application" c4Technology="Html5, JavaScript, React, Angular,  using Micro front-end." c4Description="Web application Channel  and medium to customer access to initiatives using web browser" label="&lt;font style=&quot;font-size: 16px&quot;&gt;&lt;b&gt;%c4Type%&lt;/b&gt;&lt;/font&gt;&lt;div&gt;[%c4Container%:&amp;nbsp;%c4Technology%]&lt;/div&gt;&lt;br&gt;&lt;div&gt;&lt;font style=&quot;font-size: 11px&quot;&gt;&lt;font color=&quot;#E6E6E6&quot;&gt;%c4Description%&lt;/font&gt;&lt;/div&gt;" id="a1d22pdOEVHyLeYzTiBl-18">
          <mxCell style="shape=mxgraph.c4.webBrowserContainer2;whiteSpace=wrap;html=1;boundedLbl=1;rounded=0;labelBackgroundColor=none;strokeColor=#118ACD;fillColor=#23A2D9;strokeColor=#118ACD;strokeColor2=#0E7DAD;fontSize=12;fontColor=#ffffff;align=center;metaEdit=1;points=[[0.5,0,0],[1,0.25,0],[1,0.5,0],[1,0.75,0],[0.5,1,0],[0,0.75,0],[0,0.5,0],[0,0.25,0]];resizable=0;" parent="a1d22pdOEVHyLeYzTiBl-1" vertex="1">
            <mxGeometry x="330" y="-680" width="240" height="160" as="geometry" />
          </mxCell>
        </object>
        <mxCell id="6HwDcynMTSfoT9Jp3x4x-1" style="edgeStyle=orthogonalEdgeStyle;rounded=0;orthogonalLoop=1;jettySize=auto;html=1;" parent="a1d22pdOEVHyLeYzTiBl-1" source="a1d22pdOEVHyLeYzTiBl-20" target="6HwDcynMTSfoT9Jp3x4x-0" edge="1">
          <mxGeometry relative="1" as="geometry">
            <Array as="points">
              <mxPoint x="206" y="-490" />
              <mxPoint x="206" y="-490" />
            </Array>
          </mxGeometry>
        </mxCell>
        <mxCell id="wqNEAht3NFDgkhoUoppe-3" style="edgeStyle=orthogonalEdgeStyle;rounded=0;orthogonalLoop=1;jettySize=auto;html=1;" parent="a1d22pdOEVHyLeYzTiBl-1" target="wqNEAht3NFDgkhoUoppe-0" edge="1">
          <mxGeometry relative="1" as="geometry">
            <mxPoint x="-370" y="-940" as="sourcePoint" />
          </mxGeometry>
        </mxCell>
        <object placeholders="1" c4Type="Mobile App" c4Container="Mobile Application" c4Technology="IOS and Android kit development or Kotling" c4Description="Mobile Channel  and medium to customer access to initiatives" label="&lt;font style=&quot;font-size: 16px&quot;&gt;&lt;b&gt;%c4Type%&lt;/b&gt;&lt;/font&gt;&lt;div&gt;[%c4Container%:&amp;nbsp;%c4Technology%]&lt;/div&gt;&lt;br&gt;&lt;div&gt;&lt;font style=&quot;font-size: 11px&quot;&gt;&lt;font color=&quot;#E6E6E6&quot;&gt;%c4Description%&lt;/font&gt;&lt;/div&gt;" id="a1d22pdOEVHyLeYzTiBl-20">
          <mxCell style="shape=mxgraph.c4.webBrowserContainer2;whiteSpace=wrap;html=1;boundedLbl=1;rounded=0;labelBackgroundColor=none;strokeColor=#118ACD;fillColor=#23A2D9;strokeColor=#118ACD;strokeColor2=#0E7DAD;fontSize=12;fontColor=#ffffff;align=center;metaEdit=1;points=[[0.5,0,0],[1,0.25,0],[1,0.5,0],[1,0.75,0],[0.5,1,0],[0,0.75,0],[0,0.5,0],[0,0.25,0]];resizable=0;" parent="a1d22pdOEVHyLeYzTiBl-1" vertex="1">
            <mxGeometry x="75" y="-680" width="240" height="160" as="geometry" />
          </mxCell>
        </object>
        <mxCell id="a1d22pdOEVHyLeYzTiBl-21" style="edgeStyle=orthogonalEdgeStyle;rounded=0;orthogonalLoop=1;jettySize=auto;html=1;entryX=0.5;entryY=0;entryDx=0;entryDy=0;entryPerimeter=0;" parent="a1d22pdOEVHyLeYzTiBl-1" source="a1d22pdOEVHyLeYzTiBl-22" target="6HwDcynMTSfoT9Jp3x4x-5" edge="1">
          <mxGeometry relative="1" as="geometry">
            <mxPoint x="640" y="25" as="targetPoint" />
            <Array as="points">
              <mxPoint x="705" y="-490" />
              <mxPoint x="705" y="-490" />
            </Array>
          </mxGeometry>
        </mxCell>
        <object placeholders="1" c4Type="SPA Application" c4Container="SPA Application" c4Technology="Html5, JavaScript, React, Angular,  using Micro front-end and static content by CDN Caché" c4Description="Web and SPA Channel  and medium to customer access to initiatives using web browser" label="&lt;font style=&quot;font-size: 16px&quot;&gt;&lt;b&gt;%c4Type%&lt;/b&gt;&lt;/font&gt;&lt;div&gt;[%c4Container%:&amp;nbsp;%c4Technology%]&lt;/div&gt;&lt;br&gt;&lt;div&gt;&lt;font style=&quot;font-size: 11px&quot;&gt;&lt;font color=&quot;#E6E6E6&quot;&gt;%c4Description%&lt;/font&gt;&lt;/div&gt;" id="a1d22pdOEVHyLeYzTiBl-22">
          <mxCell style="shape=mxgraph.c4.webBrowserContainer2;whiteSpace=wrap;html=1;boundedLbl=1;rounded=0;labelBackgroundColor=none;strokeColor=#118ACD;fillColor=#23A2D9;strokeColor=#118ACD;strokeColor2=#0E7DAD;fontSize=12;fontColor=#ffffff;align=center;metaEdit=1;points=[[0.5,0,0],[1,0.25,0],[1,0.5,0],[1,0.75,0],[0.5,1,0],[0,0.75,0],[0,0.5,0],[0,0.25,0]];resizable=0;" parent="a1d22pdOEVHyLeYzTiBl-1" vertex="1">
            <mxGeometry x="590" y="-680" width="240" height="160" as="geometry" />
          </mxCell>
        </object>
        <object placeholders="1" c4Type="Transition Outbox  NoSQL Database" c4Container="Transition Outbox  Database " c4Technology="MongoDB, MariaDB, ElasticSearch, NOSQL" c4Description="This database has the purpose of   enabling the application pattern Transition outbox pattern ensure that all requests are saved in our systems and are further processed" label="&lt;font style=&quot;font-size: 16px&quot;&gt;&lt;b&gt;%c4Type%&lt;/b&gt;&lt;/font&gt;&lt;div&gt;[%c4Container%:&amp;nbsp;%c4Technology%]&lt;/div&gt;&lt;br&gt;&lt;div&gt;&lt;font style=&quot;font-size: 11px&quot;&gt;&lt;font color=&quot;#E6E6E6&quot;&gt;%c4Description%&lt;/font&gt;&lt;/div&gt;" id="a1d22pdOEVHyLeYzTiBl-24">
          <mxCell style="shape=cylinder3;size=15;whiteSpace=wrap;html=1;boundedLbl=1;rounded=0;labelBackgroundColor=none;fillColor=#23A2D9;fontSize=12;fontColor=#ffffff;align=center;strokeColor=#0E7DAD;metaEdit=1;points=[[0.5,0,0],[1,0.25,0],[1,0.5,0],[1,0.75,0],[0.5,1,0],[0,0.75,0],[0,0.5,0],[0,0.25,0]];resizable=1;movable=1;rotatable=1;deletable=1;editable=1;locked=0;connectable=1;" parent="a1d22pdOEVHyLeYzTiBl-1" vertex="1">
            <mxGeometry x="20" y="15" width="250" height="210" as="geometry" />
          </mxCell>
        </object>
        <mxCell id="a1d22pdOEVHyLeYzTiBl-25" style="edgeStyle=orthogonalEdgeStyle;rounded=0;orthogonalLoop=1;jettySize=auto;html=1;entryX=0.5;entryY=0;entryDx=0;entryDy=0;entryPerimeter=0;" parent="a1d22pdOEVHyLeYzTiBl-1" source="a1d22pdOEVHyLeYzTiBl-27" target="a1d22pdOEVHyLeYzTiBl-28" edge="1">
          <mxGeometry relative="1" as="geometry" />
        </mxCell>
        <object placeholders="1" c4Name="customer-ms" c4Type="Microservice" c4Technology="Spring Boot, Java11+ " c4Description="Microservice in charge of managing the business capabilities associated with the customer domains.&#xa;The integration interfaces can be HTTPS/REST/SOAP to expose funcionality to channel directly.&#xa;Other integration way is consumer,   how kafka listener to customer-topic&#xa;This component  can process business capability and deiver or exchange information with external systems and even it&#39;s own relational database&#xa;&#xa;&#xa;" label="&lt;font style=&quot;font-size: 16px&quot;&gt;&lt;b&gt;%c4Name%&lt;/b&gt;&lt;/font&gt;&lt;div&gt;[%c4Type%: %c4Technology%]&lt;/div&gt;&lt;br&gt;&lt;div&gt;&lt;font style=&quot;font-size: 11px&quot;&gt;&lt;font color=&quot;#E6E6E6&quot;&gt;%c4Description%&lt;/font&gt;&lt;/div&gt;" id="a1d22pdOEVHyLeYzTiBl-27">
          <mxCell style="rounded=1;whiteSpace=wrap;html=1;fontSize=11;labelBackgroundColor=none;fillColor=#23A2D9;fontColor=#ffffff;align=center;arcSize=10;strokeColor=#0E7DAD;metaEdit=1;resizable=1;points=[[0.25,0,0],[0.5,0,0],[0.75,0,0],[1,0.25,0],[1,0.5,0],[1,0.75,0],[0.75,1,0],[0.5,1,0],[0.25,1,0],[0,0.75,0],[0,0.5,0],[0,0.25,0]];movable=1;rotatable=1;deletable=1;editable=1;locked=0;connectable=1;" parent="a1d22pdOEVHyLeYzTiBl-1" vertex="1">
            <mxGeometry x="28" y="547" width="252" height="200" as="geometry" />
          </mxCell>
        </object>
        <mxCell id="s9SUwIMWKAjtUMFQ11oj-6" style="edgeStyle=orthogonalEdgeStyle;rounded=0;orthogonalLoop=1;jettySize=auto;html=1;" edge="1" parent="a1d22pdOEVHyLeYzTiBl-1" source="a1d22pdOEVHyLeYzTiBl-28">
          <mxGeometry relative="1" as="geometry">
            <mxPoint x="183" y="1120" as="targetPoint" />
            <Array as="points">
              <mxPoint x="155" y="1040" />
              <mxPoint x="183" y="1040" />
            </Array>
          </mxGeometry>
        </mxCell>
        <mxCell id="s9SUwIMWKAjtUMFQ11oj-8" style="edgeStyle=orthogonalEdgeStyle;rounded=0;orthogonalLoop=1;jettySize=auto;html=1;entryX=0.5;entryY=0;entryDx=0;entryDy=0;entryPerimeter=0;" edge="1" parent="a1d22pdOEVHyLeYzTiBl-1" source="a1d22pdOEVHyLeYzTiBl-28" target="IINdsyYjQvlYFyxNnTq8-31">
          <mxGeometry relative="1" as="geometry">
            <Array as="points">
              <mxPoint x="155" y="1040" />
              <mxPoint x="423" y="1040" />
            </Array>
          </mxGeometry>
        </mxCell>
        <object placeholders="1" c4Type="Customer Relational Database" c4Container="Customer  Database " c4Technology="MongoDB, MariaDB, ElasticSearch, NOSQL" c4Description="This database has the purpose of  saved customer information that  are further processed" label="&lt;font style=&quot;font-size: 16px&quot;&gt;&lt;b&gt;%c4Type%&lt;/b&gt;&lt;/font&gt;&lt;div&gt;[%c4Container%:&amp;nbsp;%c4Technology%]&lt;/div&gt;&lt;br&gt;&lt;div&gt;&lt;font style=&quot;font-size: 11px&quot;&gt;&lt;font color=&quot;#E6E6E6&quot;&gt;%c4Description%&lt;/font&gt;&lt;/div&gt;" id="a1d22pdOEVHyLeYzTiBl-28">
          <mxCell style="shape=cylinder3;size=15;whiteSpace=wrap;html=1;boundedLbl=1;rounded=0;labelBackgroundColor=none;fillColor=#23A2D9;fontSize=12;fontColor=#ffffff;align=center;strokeColor=#0E7DAD;metaEdit=1;points=[[0.5,0,0],[1,0.25,0],[1,0.5,0],[1,0.75,0],[0.5,1,0],[0,0.75,0],[0,0.5,0],[0,0.25,0]];resizable=1;movable=1;rotatable=1;deletable=1;editable=1;locked=0;connectable=1;" parent="a1d22pdOEVHyLeYzTiBl-1" vertex="1">
            <mxGeometry x="65" y="778" width="180" height="200" as="geometry" />
          </mxCell>
        </object>
        <mxCell id="a1d22pdOEVHyLeYzTiBl-29" style="edgeStyle=orthogonalEdgeStyle;rounded=0;orthogonalLoop=1;jettySize=auto;html=1;entryX=0.5;entryY=0;entryDx=0;entryDy=0;entryPerimeter=0;" parent="a1d22pdOEVHyLeYzTiBl-1" source="a1d22pdOEVHyLeYzTiBl-31" target="a1d22pdOEVHyLeYzTiBl-33" edge="1">
          <mxGeometry relative="1" as="geometry" />
        </mxCell>
        <object placeholders="1" c4Name="product-ms" c4Type="Microservice" c4Technology="Spring Boot, Java11+ " c4Description="Microservice in charge of managing the business capabilities associated with the product domains.&#xa;The integration interfaces can be HTTPS/REST/SOAP to expose funcionality to channel directly.&#xa;Other integration way is consumer,   how kafka listener to product-topic&#xa;This component  can process business capability and deiver or exchange information with external systems and even it&#39;s own relational database&#xa;&#xa;&#xa;" label="&lt;font style=&quot;font-size: 16px&quot;&gt;&lt;b&gt;%c4Name%&lt;/b&gt;&lt;/font&gt;&lt;div&gt;[%c4Type%: %c4Technology%]&lt;/div&gt;&lt;br&gt;&lt;div&gt;&lt;font style=&quot;font-size: 11px&quot;&gt;&lt;font color=&quot;#E6E6E6&quot;&gt;%c4Description%&lt;/font&gt;&lt;/div&gt;" id="a1d22pdOEVHyLeYzTiBl-31">
          <mxCell style="rounded=1;whiteSpace=wrap;html=1;fontSize=11;labelBackgroundColor=none;fillColor=#23A2D9;fontColor=#ffffff;align=center;arcSize=10;strokeColor=#0E7DAD;metaEdit=1;resizable=1;points=[[0.25,0,0],[0.5,0,0],[0.75,0,0],[1,0.25,0],[1,0.5,0],[1,0.75,0],[0.75,1,0],[0.5,1,0],[0.25,1,0],[0,0.75,0],[0,0.5,0],[0,0.25,0]];movable=1;rotatable=1;deletable=1;editable=1;locked=0;connectable=1;" parent="a1d22pdOEVHyLeYzTiBl-1" vertex="1">
            <mxGeometry x="299" y="546" width="248" height="200" as="geometry" />
          </mxCell>
        </object>
        <mxCell id="s9SUwIMWKAjtUMFQ11oj-7" style="edgeStyle=orthogonalEdgeStyle;rounded=0;orthogonalLoop=1;jettySize=auto;html=1;" edge="1" parent="a1d22pdOEVHyLeYzTiBl-1" source="a1d22pdOEVHyLeYzTiBl-33" target="IINdsyYjQvlYFyxNnTq8-31">
          <mxGeometry relative="1" as="geometry" />
        </mxCell>
        <mxCell id="s9SUwIMWKAjtUMFQ11oj-9" style="edgeStyle=orthogonalEdgeStyle;rounded=0;orthogonalLoop=1;jettySize=auto;html=1;entryX=0.5;entryY=0;entryDx=0;entryDy=0;entryPerimeter=0;" edge="1" parent="a1d22pdOEVHyLeYzTiBl-1" source="a1d22pdOEVHyLeYzTiBl-33" target="a1d22pdOEVHyLeYzTiBl-11">
          <mxGeometry relative="1" as="geometry">
            <Array as="points">
              <mxPoint x="423" y="1040" />
              <mxPoint x="183" y="1040" />
            </Array>
          </mxGeometry>
        </mxCell>
        <object placeholders="1" c4Type="Product Relational Database" c4Container="Customer  Database " c4Technology="MongoDB, MariaDB, ElasticSearch, NOSQL" c4Description="This database has the purpose of  saved customer information that  are further processed" label="&lt;font style=&quot;font-size: 16px&quot;&gt;&lt;b&gt;%c4Type%&lt;/b&gt;&lt;/font&gt;&lt;div&gt;[%c4Container%:&amp;nbsp;%c4Technology%]&lt;/div&gt;&lt;br&gt;&lt;div&gt;&lt;font style=&quot;font-size: 11px&quot;&gt;&lt;font color=&quot;#E6E6E6&quot;&gt;%c4Description%&lt;/font&gt;&lt;/div&gt;" id="a1d22pdOEVHyLeYzTiBl-33">
          <mxCell style="shape=cylinder3;size=15;whiteSpace=wrap;html=1;boundedLbl=1;rounded=0;labelBackgroundColor=none;fillColor=#23A2D9;fontSize=12;fontColor=#ffffff;align=center;strokeColor=#0E7DAD;metaEdit=1;points=[[0.5,0,0],[1,0.25,0],[1,0.5,0],[1,0.75,0],[0.5,1,0],[0,0.75,0],[0,0.5,0],[0,0.25,0]];resizable=1;movable=1;rotatable=1;deletable=1;editable=1;locked=0;connectable=1;" parent="a1d22pdOEVHyLeYzTiBl-1" vertex="1">
            <mxGeometry x="335" y="778" width="175" height="190" as="geometry" />
          </mxCell>
        </object>
        <mxCell id="a1d22pdOEVHyLeYzTiBl-34" value="&lt;span style=&quot;background-color: initial;&quot;&gt;trigger event&lt;/span&gt;" style="text;html=1;strokeColor=none;fillColor=none;align=left;verticalAlign=middle;whiteSpace=wrap;rounded=0;" parent="a1d22pdOEVHyLeYzTiBl-1" vertex="1">
          <mxGeometry x="175" y="280" width="70" height="30" as="geometry" />
        </mxCell>
        <mxCell id="a1d22pdOEVHyLeYzTiBl-35" style="edgeStyle=orthogonalEdgeStyle;rounded=0;orthogonalLoop=1;jettySize=auto;html=1;entryX=0.5;entryY=0;entryDx=0;entryDy=0;entryPerimeter=0;" parent="a1d22pdOEVHyLeYzTiBl-1" source="a1d22pdOEVHyLeYzTiBl-36" target="a1d22pdOEVHyLeYzTiBl-37" edge="1">
          <mxGeometry relative="1" as="geometry" />
        </mxCell>
        <object placeholders="1" c4Name="payment-ms" c4Type="Microservice" c4Technology="Spring Boot, Java11+ " c4Description="Microservice in charge of managing the business capabilities associated with the payment domains.&#xa;The integration interfaces can be HTTPS/REST/SOAP to expose funcionality to channel directly.&#xa;Other integration way is consumer,   how kafka listener to payment-topic&#xa;This component  can process business capability and deiver or exchange information with external systems and even it&#39;s own relational database&#xa;&#xa;&#xa;" label="&lt;font style=&quot;font-size: 16px&quot;&gt;&lt;b&gt;%c4Name%&lt;/b&gt;&lt;/font&gt;&lt;div&gt;[%c4Type%: %c4Technology%]&lt;/div&gt;&lt;br&gt;&lt;div&gt;&lt;font style=&quot;font-size: 11px&quot;&gt;&lt;font color=&quot;#E6E6E6&quot;&gt;%c4Description%&lt;/font&gt;&lt;/div&gt;" id="a1d22pdOEVHyLeYzTiBl-36">
          <mxCell style="rounded=1;whiteSpace=wrap;html=1;fontSize=11;labelBackgroundColor=none;fillColor=#23A2D9;fontColor=#ffffff;align=center;arcSize=10;strokeColor=#0E7DAD;metaEdit=1;resizable=1;points=[[0.25,0,0],[0.5,0,0],[0.75,0,0],[1,0.25,0],[1,0.5,0],[1,0.75,0],[0.75,1,0],[0.5,1,0],[0.25,1,0],[0,0.75,0],[0,0.5,0],[0,0.25,0]];movable=1;rotatable=1;deletable=1;editable=1;locked=0;connectable=1;" parent="a1d22pdOEVHyLeYzTiBl-1" vertex="1">
            <mxGeometry x="577" y="546" width="253" height="200" as="geometry" />
          </mxCell>
        </object>
        <mxCell id="s9SUwIMWKAjtUMFQ11oj-10" style="edgeStyle=orthogonalEdgeStyle;rounded=0;orthogonalLoop=1;jettySize=auto;html=1;" edge="1" parent="a1d22pdOEVHyLeYzTiBl-1" source="a1d22pdOEVHyLeYzTiBl-37" target="a1d22pdOEVHyLeYzTiBl-10">
          <mxGeometry relative="1" as="geometry">
            <Array as="points">
              <mxPoint x="705" y="1040" />
              <mxPoint x="666" y="1040" />
            </Array>
          </mxGeometry>
        </mxCell>
        <mxCell id="s9SUwIMWKAjtUMFQ11oj-11" style="edgeStyle=orthogonalEdgeStyle;rounded=0;orthogonalLoop=1;jettySize=auto;html=1;entryX=0.5;entryY=0;entryDx=0;entryDy=0;entryPerimeter=0;" edge="1" parent="a1d22pdOEVHyLeYzTiBl-1" source="a1d22pdOEVHyLeYzTiBl-37" target="IINdsyYjQvlYFyxNnTq8-31">
          <mxGeometry relative="1" as="geometry">
            <Array as="points">
              <mxPoint x="705" y="1040" />
              <mxPoint x="423" y="1040" />
            </Array>
          </mxGeometry>
        </mxCell>
        <object placeholders="1" c4Type="Payment Relational Database" c4Container="Customer  Database " c4Technology="MongoDB, MariaDB, ElasticSearch, NOSQL" c4Description="This database has the purpose of  saved customer information that  are further processed" label="&lt;font style=&quot;font-size: 16px&quot;&gt;&lt;b&gt;%c4Type%&lt;/b&gt;&lt;/font&gt;&lt;div&gt;[%c4Container%:&amp;nbsp;%c4Technology%]&lt;/div&gt;&lt;br&gt;&lt;div&gt;&lt;font style=&quot;font-size: 11px&quot;&gt;&lt;font color=&quot;#E6E6E6&quot;&gt;%c4Description%&lt;/font&gt;&lt;/div&gt;" id="a1d22pdOEVHyLeYzTiBl-37">
          <mxCell style="shape=cylinder3;size=15;whiteSpace=wrap;html=1;boundedLbl=1;rounded=0;labelBackgroundColor=none;fillColor=#23A2D9;fontSize=12;fontColor=#ffffff;align=center;strokeColor=#0E7DAD;metaEdit=1;points=[[0.5,0,0],[1,0.25,0],[1,0.5,0],[1,0.75,0],[0.5,1,0],[0,0.75,0],[0,0.5,0],[0,0.25,0]];resizable=1;movable=1;rotatable=1;deletable=1;editable=1;locked=0;connectable=1;" parent="a1d22pdOEVHyLeYzTiBl-1" vertex="1">
            <mxGeometry x="625" y="777" width="160" height="191" as="geometry" />
          </mxCell>
        </object>
        <object placeholders="1" c4Name="Processing Layer" c4Type="Processing Layer ScopeBoundary" c4Application="Processing Layer" label="&lt;font style=&quot;font-size: 16px&quot;&gt;&lt;b&gt;&lt;div style=&quot;text-align: left&quot;&gt;%c4Name%&lt;/div&gt;&lt;/b&gt;&lt;/font&gt;&lt;div style=&quot;text-align: left&quot;&gt;[%c4Application%]&lt;/div&gt;" id="a1d22pdOEVHyLeYzTiBl-38">
          <mxCell style="rounded=1;fontSize=11;whiteSpace=wrap;html=1;dashed=1;arcSize=20;fillColor=none;strokeColor=#666666;fontColor=#333333;labelBackgroundColor=none;align=left;verticalAlign=bottom;labelBorderColor=none;spacingTop=0;spacing=10;dashPattern=8 4;metaEdit=1;rotatable=0;perimeter=rectanglePerimeter;noLabel=0;labelPadding=0;allowArrows=0;connectable=0;expand=0;recursiveResize=0;editable=1;pointerEvents=0;absoluteArcSize=1;points=[[0.25,0,0],[0.5,0,0],[0.75,0,0],[1,0.25,0],[1,0.5,0],[1,0.75,0],[0.75,1,0],[0.5,1,0],[0.25,1,0],[0,0.75,0],[0,0.5,0],[0,0.25,0]];strokeWidth=3;" parent="a1d22pdOEVHyLeYzTiBl-1" vertex="1">
            <mxGeometry x="10" y="518" width="830" height="872" as="geometry" />
          </mxCell>
        </object>
        <mxCell id="a1d22pdOEVHyLeYzTiBl-39" value="&lt;div style=&quot;&quot;&gt;&lt;span style=&quot;background-color: initial;&quot;&gt;HTTP/REST/JSON&lt;/span&gt;&lt;/div&gt;" style="text;html=1;strokeColor=none;fillColor=none;align=center;verticalAlign=middle;whiteSpace=wrap;rounded=0;" parent="a1d22pdOEVHyLeYzTiBl-1" vertex="1">
          <mxGeometry x="-260" y="-520" width="250" height="30" as="geometry" />
        </mxCell>
        <mxCell id="a1d22pdOEVHyLeYzTiBl-40" value="&lt;div style=&quot;&quot;&gt;&lt;span style=&quot;background-color: initial;&quot;&gt;HTTP/REST/JSON&lt;/span&gt;&lt;/div&gt;" style="text;html=1;strokeColor=none;fillColor=none;align=center;verticalAlign=middle;whiteSpace=wrap;rounded=0;" parent="a1d22pdOEVHyLeYzTiBl-1" vertex="1">
          <mxGeometry x="415" y="1060" width="250" height="30" as="geometry" />
        </mxCell>
        <object placeholders="1" c4Name="Front-End Application Channels" c4Type="Front-End Application Channels ScopeBoundary" c4Application="Front-End Application Channels" label="&lt;font style=&quot;font-size: 16px&quot;&gt;&lt;b&gt;&lt;div style=&quot;text-align: left&quot;&gt;%c4Name%&lt;/div&gt;&lt;/b&gt;&lt;/font&gt;&lt;div style=&quot;text-align: left&quot;&gt;[%c4Application%]&lt;/div&gt;" id="a1d22pdOEVHyLeYzTiBl-41">
          <mxCell style="rounded=1;fontSize=11;whiteSpace=wrap;html=1;dashed=1;arcSize=20;fillColor=none;strokeColor=#666666;fontColor=#333333;labelBackgroundColor=none;align=left;verticalAlign=bottom;labelBorderColor=none;spacingTop=0;spacing=10;dashPattern=8 4;metaEdit=1;rotatable=0;perimeter=rectanglePerimeter;noLabel=0;labelPadding=0;allowArrows=0;connectable=0;expand=0;recursiveResize=0;editable=1;pointerEvents=0;absoluteArcSize=1;points=[[0.25,0,0],[0.5,0,0],[0.75,0,0],[1,0.25,0],[1,0.5,0],[1,0.75,0],[0.75,1,0],[0.5,1,0],[0.25,1,0],[0,0.75,0],[0,0.5,0],[0,0.25,0]];strokeWidth=3;" parent="a1d22pdOEVHyLeYzTiBl-1" vertex="1">
            <mxGeometry x="50" y="-700" width="790" height="270" as="geometry" />
          </mxCell>
        </object>
        <object placeholders="1" c4Name="Ingest Layer" c4Type="Ingest Layer ScopeBoundary" c4Application="Ingest Layer" label="&lt;font style=&quot;font-size: 16px&quot;&gt;&lt;b&gt;&lt;div style=&quot;text-align: left&quot;&gt;%c4Name%&lt;/div&gt;&lt;/b&gt;&lt;/font&gt;&lt;div style=&quot;text-align: left&quot;&gt;[%c4Application%]&lt;/div&gt;" id="a1d22pdOEVHyLeYzTiBl-42">
          <mxCell style="rounded=1;fontSize=11;whiteSpace=wrap;html=1;dashed=1;arcSize=20;fillColor=none;strokeColor=#666666;fontColor=#333333;labelBackgroundColor=none;align=left;verticalAlign=bottom;labelBorderColor=none;spacingTop=0;spacing=10;dashPattern=8 4;metaEdit=1;rotatable=0;perimeter=rectanglePerimeter;noLabel=0;labelPadding=0;allowArrows=0;connectable=0;expand=0;recursiveResize=0;editable=1;pointerEvents=0;absoluteArcSize=1;points=[[0.25,0,0],[0.5,0,0],[0.75,0,0],[1,0.25,0],[1,0.5,0],[1,0.75,0],[0.75,1,0],[0.5,1,0],[0.25,1,0],[0,0.75,0],[0,0.5,0],[0,0.25,0]];strokeWidth=3;" parent="a1d22pdOEVHyLeYzTiBl-1" vertex="1">
            <mxGeometry x="10" y="10" width="830" height="480" as="geometry" />
          </mxCell>
        </object>
        <object placeholders="1" c4Name="Core Layer" c4Type="Core Layer ScopeBoundary" c4Application="Core Layer" label="&lt;font style=&quot;font-size: 16px&quot;&gt;&lt;b&gt;&lt;div style=&quot;text-align: left&quot;&gt;%c4Name%&lt;/div&gt;&lt;/b&gt;&lt;/font&gt;&lt;div style=&quot;text-align: left&quot;&gt;[%c4Application%]&lt;/div&gt;" id="a1d22pdOEVHyLeYzTiBl-43">
          <mxCell style="rounded=1;fontSize=11;whiteSpace=wrap;html=1;dashed=1;arcSize=20;fillColor=none;strokeColor=#666666;fontColor=#333333;labelBackgroundColor=none;align=left;verticalAlign=bottom;labelBorderColor=none;spacingTop=0;spacing=10;dashPattern=8 4;metaEdit=1;rotatable=0;perimeter=rectanglePerimeter;noLabel=0;labelPadding=0;allowArrows=0;connectable=0;expand=0;recursiveResize=0;editable=1;pointerEvents=0;absoluteArcSize=1;points=[[0.25,0,0],[0.5,0,0],[0.75,0,0],[1,0.25,0],[1,0.5,0],[1,0.75,0],[0.75,1,0],[0.5,1,0],[0.25,1,0],[0,0.75,0],[0,0.5,0],[0,0.25,0]];strokeWidth=3;" parent="a1d22pdOEVHyLeYzTiBl-1" vertex="1">
            <mxGeometry x="10" y="1410" width="830" height="250" as="geometry" />
          </mxCell>
        </object>
        <mxCell id="a1d22pdOEVHyLeYzTiBl-44" value="&lt;div style=&quot;&quot;&gt;&lt;span style=&quot;background-color: initial;&quot;&gt;HTTP/REST/JSON&lt;/span&gt;&lt;/div&gt;" style="text;html=1;strokeColor=none;fillColor=none;align=center;verticalAlign=middle;whiteSpace=wrap;rounded=0;" parent="a1d22pdOEVHyLeYzTiBl-1" vertex="1">
          <mxGeometry x="560" y="1450" width="250" height="30" as="geometry" />
        </mxCell>
        <mxCell id="a1d22pdOEVHyLeYzTiBl-45" value="&lt;div style=&quot;&quot;&gt;&lt;span style=&quot;background-color: initial;&quot;&gt;TCP&lt;/span&gt;&lt;/div&gt;" style="text;html=1;strokeColor=none;fillColor=none;align=center;verticalAlign=middle;whiteSpace=wrap;rounded=0;" parent="a1d22pdOEVHyLeYzTiBl-1" vertex="1">
          <mxGeometry x="360" y="270" width="250" height="30" as="geometry" />
        </mxCell>
        <mxCell id="a1d22pdOEVHyLeYzTiBl-46" value="&lt;div style=&quot;&quot;&gt;&lt;span style=&quot;background-color: initial;&quot;&gt;TCP&lt;/span&gt;&lt;/div&gt;" style="text;html=1;strokeColor=none;fillColor=none;align=center;verticalAlign=middle;whiteSpace=wrap;rounded=0;" parent="a1d22pdOEVHyLeYzTiBl-1" vertex="1">
          <mxGeometry x="365" y="516" width="170" height="30" as="geometry" />
        </mxCell>
        <mxCell id="a1d22pdOEVHyLeYzTiBl-47" style="edgeStyle=orthogonalEdgeStyle;rounded=0;orthogonalLoop=1;jettySize=auto;html=1;exitX=0.5;exitY=1;exitDx=0;exitDy=0;" parent="a1d22pdOEVHyLeYzTiBl-1" source="a1d22pdOEVHyLeYzTiBl-46" target="a1d22pdOEVHyLeYzTiBl-46" edge="1">
          <mxGeometry relative="1" as="geometry" />
        </mxCell>
        <mxCell id="6HwDcynMTSfoT9Jp3x4x-2" style="edgeStyle=orthogonalEdgeStyle;rounded=0;orthogonalLoop=1;jettySize=auto;html=1;" parent="a1d22pdOEVHyLeYzTiBl-1" source="6HwDcynMTSfoT9Jp3x4x-0" target="a1d22pdOEVHyLeYzTiBl-24" edge="1">
          <mxGeometry relative="1" as="geometry" />
        </mxCell>
        <mxCell id="IINdsyYjQvlYFyxNnTq8-1" style="edgeStyle=orthogonalEdgeStyle;rounded=0;orthogonalLoop=1;jettySize=auto;html=1;entryX=1;entryY=0.5;entryDx=0;entryDy=0;entryPerimeter=0;" parent="a1d22pdOEVHyLeYzTiBl-1" source="6HwDcynMTSfoT9Jp3x4x-0" target="IINdsyYjQvlYFyxNnTq8-0" edge="1">
          <mxGeometry relative="1" as="geometry" />
        </mxCell>
        <mxCell id="IINdsyYjQvlYFyxNnTq8-14" style="edgeStyle=orthogonalEdgeStyle;rounded=0;orthogonalLoop=1;jettySize=auto;html=1;entryX=0.5;entryY=1;entryDx=0;entryDy=0;entryPerimeter=0;" parent="a1d22pdOEVHyLeYzTiBl-1" source="6HwDcynMTSfoT9Jp3x4x-0" target="IINdsyYjQvlYFyxNnTq8-10" edge="1">
          <mxGeometry relative="1" as="geometry">
            <Array as="points">
              <mxPoint x="-50" y="-70" />
              <mxPoint x="1420" y="-70" />
            </Array>
          </mxGeometry>
        </mxCell>
        <object placeholders="1" c4Name="Mobile BFF ApiGW" c4Type="BFF ApiGW" c4Technology="ApiGW, ApiMgmt, AWS Lambda/Azure Function" c4Description="Mobile BFF Api Gateway / Mobile BFF Api Management  that enable api interfaces functionalities to channels &#xa;&#xa;Using Function As a Service  component applying Back end For Frontend pattern in charge of managing the business capabilities associated with the customer, product, payment domains By demands specific front-end channel type and dedicated gateway for each type of client." label="&lt;font style=&quot;font-size: 16px&quot;&gt;&lt;b&gt;%c4Name%&lt;/b&gt;&lt;/font&gt;&lt;div&gt;[%c4Type%: %c4Technology%]&lt;/div&gt;&lt;br&gt;&lt;div&gt;&lt;font style=&quot;font-size: 11px&quot;&gt;%c4Description%&lt;/font&gt;&lt;/div&gt;" id="6HwDcynMTSfoT9Jp3x4x-0">
          <mxCell style="rounded=1;whiteSpace=wrap;html=1;labelBackgroundColor=none;fillColor=#63BEF2;fontColor=#ffffff;align=center;arcSize=6;strokeColor=#2086C9;metaEdit=1;resizable=1;points=[[0.25,0,0],[0.5,0,0],[0.75,0,0],[1,0.25,0],[1,0.5,0],[1,0.75,0],[0.75,1,0],[0.5,1,0],[0.25,1,0],[0,0.75,0],[0,0.5,0],[0,0.25,0]];movable=1;rotatable=1;deletable=1;editable=1;locked=0;connectable=1;" parent="a1d22pdOEVHyLeYzTiBl-1" vertex="1">
            <mxGeometry x="76" y="-400" width="260" height="260" as="geometry" />
          </mxCell>
        </object>
        <mxCell id="6HwDcynMTSfoT9Jp3x4x-10" style="edgeStyle=orthogonalEdgeStyle;rounded=0;orthogonalLoop=1;jettySize=auto;html=1;entryX=1;entryY=0.25;entryDx=0;entryDy=0;entryPerimeter=0;" parent="a1d22pdOEVHyLeYzTiBl-1" source="6HwDcynMTSfoT9Jp3x4x-3" target="a1d22pdOEVHyLeYzTiBl-24" edge="1">
          <mxGeometry relative="1" as="geometry">
            <Array as="points">
              <mxPoint x="360" y="63" />
            </Array>
          </mxGeometry>
        </mxCell>
        <mxCell id="IINdsyYjQvlYFyxNnTq8-2" style="edgeStyle=orthogonalEdgeStyle;rounded=0;orthogonalLoop=1;jettySize=auto;html=1;entryX=0.5;entryY=1;entryDx=0;entryDy=0;entryPerimeter=0;" parent="a1d22pdOEVHyLeYzTiBl-1" source="6HwDcynMTSfoT9Jp3x4x-3" target="IINdsyYjQvlYFyxNnTq8-0" edge="1">
          <mxGeometry relative="1" as="geometry">
            <Array as="points">
              <mxPoint x="360" y="-100" />
              <mxPoint x="-260" y="-100" />
              <mxPoint x="-260" y="-540" />
            </Array>
          </mxGeometry>
        </mxCell>
        <object placeholders="1" c4Name="Web BFF ApiGW" c4Type="BFF ApiGW" c4Technology="ApiGW, ApiMgmt, AWS Lambda/Azure Function" c4Description="Web BFF Api Gateway / Web BFF Api Management  that enable api interfaces functionalities to channels &#xa;&#xa;Using Function As a Service  component applying Back end For Frontend pattern in charge of managing the business capabilities associated with the customer, product, payment domains By demands specific front-end channel type and dedicated gateway for each type of client." label="&lt;font style=&quot;font-size: 16px&quot;&gt;&lt;b&gt;%c4Name%&lt;/b&gt;&lt;/font&gt;&lt;div&gt;[%c4Type%: %c4Technology%]&lt;/div&gt;&lt;br&gt;&lt;div&gt;&lt;font style=&quot;font-size: 11px&quot;&gt;%c4Description%&lt;/font&gt;&lt;/div&gt;" id="6HwDcynMTSfoT9Jp3x4x-3">
          <mxCell style="rounded=1;whiteSpace=wrap;html=1;labelBackgroundColor=none;fillColor=#63BEF2;fontColor=#ffffff;align=center;arcSize=6;strokeColor=#2086C9;metaEdit=1;resizable=1;points=[[0.25,0,0],[0.5,0,0],[0.75,0,0],[1,0.25,0],[1,0.5,0],[1,0.75,0],[0.75,1,0],[0.5,1,0],[0.25,1,0],[0,0.75,0],[0,0.5,0],[0,0.25,0]];movable=1;rotatable=1;deletable=1;editable=1;locked=0;connectable=1;" parent="a1d22pdOEVHyLeYzTiBl-1" vertex="1">
            <mxGeometry x="340" y="-400" width="230" height="265" as="geometry" />
          </mxCell>
        </object>
        <mxCell id="IINdsyYjQvlYFyxNnTq8-3" style="edgeStyle=orthogonalEdgeStyle;rounded=0;orthogonalLoop=1;jettySize=auto;html=1;entryX=0.5;entryY=1;entryDx=0;entryDy=0;entryPerimeter=0;" parent="a1d22pdOEVHyLeYzTiBl-1" source="6HwDcynMTSfoT9Jp3x4x-5" target="IINdsyYjQvlYFyxNnTq8-0" edge="1">
          <mxGeometry relative="1" as="geometry">
            <Array as="points">
              <mxPoint x="705" y="-120" />
              <mxPoint x="700" y="-120" />
              <mxPoint x="700" y="-100" />
              <mxPoint x="-208" y="-100" />
            </Array>
          </mxGeometry>
        </mxCell>
        <object placeholders="1" c4Name="SPA BFF ApiGW" c4Type="BFF ApiGW" c4Technology="ApiGW, ApiMgmt, AWS Lambda/Azure Function" c4Description="SPA BFF Api Gateway / SPA BFF Api Management  that enable api interfaces functionalities to channels &#xa;&#xa;Using Function As a Service  component applying Back end For Frontend pattern in charge of managing the business capabilities associated with the customer, product, payment domains By demands specific front-end channel type and dedicated gateway for each type of client." label="&lt;font style=&quot;font-size: 16px&quot;&gt;&lt;b&gt;%c4Name%&lt;/b&gt;&lt;/font&gt;&lt;div&gt;[%c4Type%: %c4Technology%]&lt;/div&gt;&lt;br&gt;&lt;div&gt;&lt;font style=&quot;font-size: 11px&quot;&gt;%c4Description%&lt;/font&gt;&lt;/div&gt;" id="6HwDcynMTSfoT9Jp3x4x-5">
          <mxCell style="rounded=1;whiteSpace=wrap;html=1;labelBackgroundColor=none;fillColor=#63BEF2;fontColor=#ffffff;align=center;arcSize=6;strokeColor=#2086C9;metaEdit=1;resizable=1;points=[[0.25,0,0],[0.5,0,0],[0.75,0,0],[1,0.25,0],[1,0.5,0],[1,0.75,0],[0.75,1,0],[0.5,1,0],[0.25,1,0],[0,0.75,0],[0,0.5,0],[0,0.25,0]];movable=1;rotatable=1;deletable=1;editable=1;locked=0;connectable=1;" parent="a1d22pdOEVHyLeYzTiBl-1" vertex="1">
            <mxGeometry x="580" y="-400" width="250" height="270" as="geometry" />
          </mxCell>
        </object>
        <mxCell id="6HwDcynMTSfoT9Jp3x4x-7" value="&lt;div style=&quot;&quot;&gt;&lt;span style=&quot;background-color: initial;&quot;&gt;HTTP/REST/JSON&lt;/span&gt;&lt;/div&gt;" style="text;html=1;strokeColor=none;fillColor=none;align=center;verticalAlign=middle;whiteSpace=wrap;rounded=0;" parent="a1d22pdOEVHyLeYzTiBl-1" vertex="1">
          <mxGeometry x="270" y="-510" width="250" height="30" as="geometry" />
        </mxCell>
        <mxCell id="6HwDcynMTSfoT9Jp3x4x-8" value="&lt;div style=&quot;&quot;&gt;&lt;span style=&quot;background-color: initial;&quot;&gt;HTTP/REST/JSON&lt;/span&gt;&lt;/div&gt;" style="text;html=1;strokeColor=none;fillColor=none;align=center;verticalAlign=middle;whiteSpace=wrap;rounded=0;" parent="a1d22pdOEVHyLeYzTiBl-1" vertex="1">
          <mxGeometry x="585" y="-510" width="250" height="30" as="geometry" />
        </mxCell>
        <mxCell id="6HwDcynMTSfoT9Jp3x4x-16" style="edgeStyle=orthogonalEdgeStyle;rounded=0;orthogonalLoop=1;jettySize=auto;html=1;entryX=1;entryY=0.75;entryDx=0;entryDy=0;entryPerimeter=0;exitX=0.5;exitY=0;exitDx=0;exitDy=0;exitPerimeter=0;" parent="a1d22pdOEVHyLeYzTiBl-1" source="6HwDcynMTSfoT9Jp3x4x-11" target="a1d22pdOEVHyLeYzTiBl-24" edge="1">
          <mxGeometry relative="1" as="geometry">
            <Array as="points">
              <mxPoint x="162" y="250" />
              <mxPoint x="310" y="250" />
              <mxPoint x="310" y="173" />
            </Array>
          </mxGeometry>
        </mxCell>
        <mxCell id="6HwDcynMTSfoT9Jp3x4x-22" style="edgeStyle=orthogonalEdgeStyle;rounded=0;orthogonalLoop=1;jettySize=auto;html=1;endArrow=classic;endFill=1;startArrow=classic;startFill=1;" parent="a1d22pdOEVHyLeYzTiBl-1" source="6HwDcynMTSfoT9Jp3x4x-11" target="a1d22pdOEVHyLeYzTiBl-27" edge="1">
          <mxGeometry relative="1" as="geometry" />
        </mxCell>
        <object placeholders="1" c4Name="customer-tp" c4Type="topic" c4Technology="kafka" c4Description="customer-tp is a Kafka topic that storage customer messages, this messages are processed by customer-ms microservice." label="&lt;font style=&quot;font-size: 16px&quot;&gt;&lt;b&gt;%c4Name%&lt;/b&gt;&lt;/font&gt;&lt;div&gt;[%c4Type%: %c4Technology%]&lt;/div&gt;&lt;br&gt;&lt;div&gt;&lt;font style=&quot;font-size: 11px&quot;&gt;%c4Description%&lt;/font&gt;&lt;/div&gt;" id="6HwDcynMTSfoT9Jp3x4x-11">
          <mxCell style="rounded=1;whiteSpace=wrap;html=1;labelBackgroundColor=none;fillColor=#63BEF2;fontColor=#ffffff;align=center;arcSize=6;strokeColor=#2086C9;metaEdit=1;resizable=0;points=[[0.25,0,0],[0.5,0,0],[0.75,0,0],[1,0.25,0],[1,0.5,0],[1,0.75,0],[0.75,1,0],[0.5,1,0],[0.25,1,0],[0,0.75,0],[0,0.5,0],[0,0.25,0]];" parent="a1d22pdOEVHyLeYzTiBl-1" vertex="1">
            <mxGeometry x="35" y="320" width="240" height="120" as="geometry" />
          </mxCell>
        </object>
        <mxCell id="6HwDcynMTSfoT9Jp3x4x-17" style="edgeStyle=orthogonalEdgeStyle;rounded=0;orthogonalLoop=1;jettySize=auto;html=1;entryX=1;entryY=0.75;entryDx=0;entryDy=0;entryPerimeter=0;" parent="a1d22pdOEVHyLeYzTiBl-1" source="6HwDcynMTSfoT9Jp3x4x-13" target="a1d22pdOEVHyLeYzTiBl-24" edge="1">
          <mxGeometry relative="1" as="geometry">
            <Array as="points">
              <mxPoint x="440" y="168" />
            </Array>
          </mxGeometry>
        </mxCell>
        <mxCell id="6HwDcynMTSfoT9Jp3x4x-21" style="edgeStyle=orthogonalEdgeStyle;rounded=0;orthogonalLoop=1;jettySize=auto;html=1;startArrow=classic;startFill=1;" parent="a1d22pdOEVHyLeYzTiBl-1" source="6HwDcynMTSfoT9Jp3x4x-13" target="a1d22pdOEVHyLeYzTiBl-31" edge="1">
          <mxGeometry relative="1" as="geometry" />
        </mxCell>
        <object placeholders="1" c4Name="product-tp" c4Type="topic" c4Technology="kafka" c4Description="customer-tp is a Kafka topic that storage customer messages, this messages are processed by customer-ms microservice." label="&lt;font style=&quot;font-size: 16px&quot;&gt;&lt;b&gt;%c4Name%&lt;/b&gt;&lt;/font&gt;&lt;div&gt;[%c4Type%: %c4Technology%]&lt;/div&gt;&lt;br&gt;&lt;div&gt;&lt;font style=&quot;font-size: 11px&quot;&gt;%c4Description%&lt;/font&gt;&lt;/div&gt;" id="6HwDcynMTSfoT9Jp3x4x-13">
          <mxCell style="rounded=1;whiteSpace=wrap;html=1;labelBackgroundColor=none;fillColor=#63BEF2;fontColor=#ffffff;align=center;arcSize=6;strokeColor=#2086C9;metaEdit=1;resizable=0;points=[[0.25,0,0],[0.5,0,0],[0.75,0,0],[1,0.25,0],[1,0.5,0],[1,0.75,0],[0.75,1,0],[0.5,1,0],[0.25,1,0],[0,0.75,0],[0,0.5,0],[0,0.25,0]];" parent="a1d22pdOEVHyLeYzTiBl-1" vertex="1">
            <mxGeometry x="306" y="320" width="240" height="120" as="geometry" />
          </mxCell>
        </object>
        <mxCell id="6HwDcynMTSfoT9Jp3x4x-15" style="edgeStyle=orthogonalEdgeStyle;rounded=0;orthogonalLoop=1;jettySize=auto;html=1;startArrow=classic;startFill=1;" parent="a1d22pdOEVHyLeYzTiBl-1" source="6HwDcynMTSfoT9Jp3x4x-14" target="a1d22pdOEVHyLeYzTiBl-36" edge="1">
          <mxGeometry relative="1" as="geometry" />
        </mxCell>
        <mxCell id="6HwDcynMTSfoT9Jp3x4x-18" style="edgeStyle=orthogonalEdgeStyle;rounded=0;orthogonalLoop=1;jettySize=auto;html=1;entryX=1;entryY=0.75;entryDx=0;entryDy=0;entryPerimeter=0;" parent="a1d22pdOEVHyLeYzTiBl-1" source="6HwDcynMTSfoT9Jp3x4x-14" target="a1d22pdOEVHyLeYzTiBl-24" edge="1">
          <mxGeometry relative="1" as="geometry">
            <Array as="points">
              <mxPoint x="700" y="168" />
            </Array>
          </mxGeometry>
        </mxCell>
        <object placeholders="1" c4Name="payment-tp" c4Type="topic" c4Technology="kafka" c4Description="customer-tp is a Kafka topic that storage customer messages, this messages are processed by customer-ms microservice." label="&lt;font style=&quot;font-size: 16px&quot;&gt;&lt;b&gt;%c4Name%&lt;/b&gt;&lt;/font&gt;&lt;div&gt;[%c4Type%: %c4Technology%]&lt;/div&gt;&lt;br&gt;&lt;div&gt;&lt;font style=&quot;font-size: 11px&quot;&gt;%c4Description%&lt;/font&gt;&lt;/div&gt;" id="6HwDcynMTSfoT9Jp3x4x-14">
          <mxCell style="rounded=1;whiteSpace=wrap;html=1;labelBackgroundColor=none;fillColor=#63BEF2;fontColor=#ffffff;align=center;arcSize=6;strokeColor=#2086C9;metaEdit=1;resizable=0;points=[[0.25,0,0],[0.5,0,0],[0.75,0,0],[1,0.25,0],[1,0.5,0],[1,0.75,0],[0.75,1,0],[0.5,1,0],[0.25,1,0],[0,0.75,0],[0,0.5,0],[0,0.25,0]];" parent="a1d22pdOEVHyLeYzTiBl-1" vertex="1">
            <mxGeometry x="583" y="320" width="240" height="120" as="geometry" />
          </mxCell>
        </object>
        <mxCell id="6HwDcynMTSfoT9Jp3x4x-19" value="&lt;span style=&quot;background-color: initial;&quot;&gt;trigger event&lt;/span&gt;" style="text;html=1;strokeColor=none;fillColor=none;align=left;verticalAlign=middle;whiteSpace=wrap;rounded=0;" parent="a1d22pdOEVHyLeYzTiBl-1" vertex="1">
          <mxGeometry x="345" y="195" width="70" height="30" as="geometry" />
        </mxCell>
        <mxCell id="6HwDcynMTSfoT9Jp3x4x-20" value="&lt;span style=&quot;background-color: initial;&quot;&gt;trigger event&lt;/span&gt;" style="text;html=1;strokeColor=none;fillColor=none;align=left;verticalAlign=middle;whiteSpace=wrap;rounded=0;" parent="a1d22pdOEVHyLeYzTiBl-1" vertex="1">
          <mxGeometry x="620" y="195" width="70" height="30" as="geometry" />
        </mxCell>
        <object placeholders="1" c4Name="Autorization Server" c4Type="Autorization Server" c4Technology="OKTA, Keycloack, Active Directory, Cognito" c4Description="Autorization Server" label="&lt;font style=&quot;font-size: 16px&quot;&gt;&lt;b&gt;%c4Name%&lt;/b&gt;&lt;/font&gt;&lt;div&gt;[%c4Type%: %c4Technology%]&lt;/div&gt;&lt;br&gt;&lt;div&gt;&lt;font style=&quot;font-size: 11px&quot;&gt;%c4Description%&lt;/font&gt;&lt;/div&gt;" id="IINdsyYjQvlYFyxNnTq8-0">
          <mxCell style="rounded=1;whiteSpace=wrap;html=1;labelBackgroundColor=none;fillColor=#63BEF2;fontColor=#ffffff;align=center;arcSize=6;strokeColor=#2086C9;metaEdit=1;resizable=1;points=[[0.25,0,0],[0.5,0,0],[0.75,0,0],[1,0.25,0],[1,0.5,0],[1,0.75,0],[0.75,1,0],[0.5,1,0],[0.25,1,0],[0,0.75,0],[0,0.5,0],[0,0.25,0]];movable=1;rotatable=1;deletable=1;editable=1;locked=0;connectable=1;" parent="a1d22pdOEVHyLeYzTiBl-1" vertex="1">
            <mxGeometry x="-388" y="-740" width="258" height="200" as="geometry" />
          </mxCell>
        </object>
        <mxCell id="IINdsyYjQvlYFyxNnTq8-4" value="OAUTH2: Autorization Code Flow&amp;nbsp;&amp;nbsp;&lt;span style=&quot;background-color: initial;&quot;&gt;Client Credentials&lt;/span&gt;" style="text;html=1;strokeColor=none;fillColor=none;align=center;verticalAlign=middle;whiteSpace=wrap;rounded=0;" parent="a1d22pdOEVHyLeYzTiBl-1" vertex="1">
          <mxGeometry x="440" y="70" width="250" height="30" as="geometry" />
        </mxCell>
        <mxCell id="IINdsyYjQvlYFyxNnTq8-6" value="&lt;div style=&quot;&quot;&gt;&lt;span style=&quot;background-color: initial;&quot;&gt;OAUTH2: Autorization Code Flow&amp;nbsp; with PKCE&lt;/span&gt;&lt;/div&gt;" style="text;html=1;strokeColor=none;fillColor=none;align=center;verticalAlign=middle;whiteSpace=wrap;rounded=0;" parent="a1d22pdOEVHyLeYzTiBl-1" vertex="1">
          <mxGeometry x="-100" y="-710" width="80" height="30" as="geometry" />
        </mxCell>
        <object placeholders="1" c4Name="Secret Manager" c4Type="Secret Manager" c4Technology="AWS KMS, Azure Vault, Vault" c4Description="Secret Manager" label="&lt;font style=&quot;font-size: 16px&quot;&gt;&lt;b&gt;%c4Name%&lt;/b&gt;&lt;/font&gt;&lt;div&gt;[%c4Type%: %c4Technology%]&lt;/div&gt;&lt;br&gt;&lt;div&gt;&lt;font style=&quot;font-size: 11px&quot;&gt;%c4Description%&lt;/font&gt;&lt;/div&gt;" id="IINdsyYjQvlYFyxNnTq8-10">
          <mxCell style="rounded=1;whiteSpace=wrap;html=1;labelBackgroundColor=none;fillColor=#63BEF2;fontColor=#ffffff;align=center;arcSize=6;strokeColor=#2086C9;metaEdit=1;resizable=1;points=[[0.25,0,0],[0.5,0,0],[0.75,0,0],[1,0.25,0],[1,0.5,0],[1,0.75,0],[0.75,1,0],[0.5,1,0],[0.25,1,0],[0,0.75,0],[0,0.5,0],[0,0.25,0]];movable=1;rotatable=1;deletable=1;editable=1;locked=0;connectable=1;" parent="a1d22pdOEVHyLeYzTiBl-1" vertex="1">
            <mxGeometry x="-400" y="-470" width="270" height="160" as="geometry" />
          </mxCell>
        </object>
        <mxCell id="s9SUwIMWKAjtUMFQ11oj-5" style="edgeStyle=orthogonalEdgeStyle;rounded=0;orthogonalLoop=1;jettySize=auto;html=1;entryX=0;entryY=0.25;entryDx=0;entryDy=0;entryPerimeter=0;" edge="1" parent="a1d22pdOEVHyLeYzTiBl-1" source="IINdsyYjQvlYFyxNnTq8-17" target="6HwDcynMTSfoT9Jp3x4x-0">
          <mxGeometry relative="1" as="geometry">
            <mxPoint x="140" y="-700" as="targetPoint" />
          </mxGeometry>
        </mxCell>
        <object placeholders="1" c4Name="WAF" c4Type="WAF" c4Technology="AWS WAF" c4Description="Allow and denied port and service access, filtering ports layer by layer from external access in DMZ" label="&lt;font style=&quot;font-size: 16px&quot;&gt;&lt;b&gt;%c4Name%&lt;/b&gt;&lt;/font&gt;&lt;div&gt;[%c4Type%: %c4Technology%]&lt;/div&gt;&lt;br&gt;&lt;div&gt;&lt;font style=&quot;font-size: 11px&quot;&gt;%c4Description%&lt;/font&gt;&lt;/div&gt;" id="IINdsyYjQvlYFyxNnTq8-17">
          <mxCell style="rounded=1;whiteSpace=wrap;html=1;labelBackgroundColor=none;fillColor=#63BEF2;fontColor=#ffffff;align=center;arcSize=6;strokeColor=#2086C9;metaEdit=1;resizable=1;points=[[0.25,0,0],[0.5,0,0],[0.75,0,0],[1,0.25,0],[1,0.5,0],[1,0.75,0],[0.75,1,0],[0.5,1,0],[0.25,1,0],[0,0.75,0],[0,0.5,0],[0,0.25,0]];movable=1;rotatable=1;deletable=1;editable=1;locked=0;connectable=1;" parent="a1d22pdOEVHyLeYzTiBl-1" vertex="1">
            <mxGeometry x="-380" y="-1040" width="360" height="200" as="geometry" />
          </mxCell>
        </object>
        <mxCell id="IINdsyYjQvlYFyxNnTq8-21" value="OAUTH2: Autorization Code Flow&amp;nbsp;&amp;nbsp;&lt;span style=&quot;background-color: initial;&quot;&gt;Client Credentials&lt;/span&gt;" style="text;html=1;strokeColor=none;fillColor=none;align=center;verticalAlign=middle;whiteSpace=wrap;rounded=0;" parent="a1d22pdOEVHyLeYzTiBl-1" vertex="1">
          <mxGeometry x="150" y="490" width="250" height="30" as="geometry" />
        </mxCell>
        <object placeholders="1" c4Name="ELK Syslog" c4Type="ELK Syslog" c4Technology="AWS OpenSearch" c4Description="ElasticSeach, Kibana, Logstak" label="&lt;font style=&quot;font-size: 16px&quot;&gt;&lt;b&gt;%c4Name%&lt;/b&gt;&lt;/font&gt;&lt;div&gt;[%c4Type%: %c4Technology%]&lt;/div&gt;&lt;br&gt;&lt;div&gt;&lt;font style=&quot;font-size: 11px&quot;&gt;%c4Description%&lt;/font&gt;&lt;/div&gt;" id="IINdsyYjQvlYFyxNnTq8-23">
          <mxCell style="rounded=1;whiteSpace=wrap;html=1;labelBackgroundColor=none;fillColor=#63BEF2;fontColor=#ffffff;align=center;arcSize=6;strokeColor=#2086C9;metaEdit=1;resizable=1;points=[[0.25,0,0],[0.5,0,0],[0.75,0,0],[1,0.25,0],[1,0.5,0],[1,0.75,0],[0.75,1,0],[0.5,1,0],[0.25,1,0],[0,0.75,0],[0,0.5,0],[0,0.25,0]];movable=1;rotatable=1;deletable=1;editable=1;locked=0;connectable=1;" parent="a1d22pdOEVHyLeYzTiBl-1" vertex="1">
            <mxGeometry x="-830" y="-735" width="360" height="200" as="geometry" />
          </mxCell>
        </object>
        <mxCell id="IINdsyYjQvlYFyxNnTq8-26" value="&lt;div style=&quot;&quot;&gt;&lt;span style=&quot;background-color: initial;&quot;&gt;TCP&lt;/span&gt;&lt;/div&gt;" style="text;html=1;strokeColor=none;fillColor=none;align=center;verticalAlign=middle;whiteSpace=wrap;rounded=0;" parent="a1d22pdOEVHyLeYzTiBl-1" vertex="1">
          <mxGeometry x="610" y="250" width="120" height="30" as="geometry" />
        </mxCell>
        <mxCell id="IINdsyYjQvlYFyxNnTq8-28" value="&lt;div style=&quot;&quot;&gt;&lt;span style=&quot;background-color: initial;&quot;&gt;TCP&lt;/span&gt;&lt;/div&gt;" style="text;html=1;strokeColor=none;fillColor=none;align=center;verticalAlign=middle;whiteSpace=wrap;rounded=0;" parent="a1d22pdOEVHyLeYzTiBl-1" vertex="1">
          <mxGeometry x="225" y="260" width="120" height="30" as="geometry" />
        </mxCell>
        <mxCell id="s9SUwIMWKAjtUMFQ11oj-12" style="edgeStyle=orthogonalEdgeStyle;rounded=0;orthogonalLoop=1;jettySize=auto;html=1;" edge="1" parent="a1d22pdOEVHyLeYzTiBl-1" source="IINdsyYjQvlYFyxNnTq8-31" target="a1d22pdOEVHyLeYzTiBl-7">
          <mxGeometry relative="1" as="geometry" />
        </mxCell>
        <object placeholders="1" c4Name="Notification System" c4Type="Notification System" c4Technology="AWS SES,Lambda, Spring Boot" c4Description="Notification System" label="&lt;font style=&quot;font-size: 16px&quot;&gt;&lt;b&gt;%c4Name%&lt;/b&gt;&lt;/font&gt;&lt;div&gt;[%c4Type%: %c4Technology%]&lt;/div&gt;&lt;br&gt;&lt;div&gt;&lt;font style=&quot;font-size: 11px&quot;&gt;%c4Description%&lt;/font&gt;&lt;/div&gt;" id="IINdsyYjQvlYFyxNnTq8-31">
          <mxCell style="rounded=1;whiteSpace=wrap;html=1;labelBackgroundColor=none;fillColor=#63BEF2;fontColor=#ffffff;align=center;arcSize=6;strokeColor=#2086C9;metaEdit=1;resizable=1;points=[[0.25,0,0],[0.5,0,0],[0.75,0,0],[1,0.25,0],[1,0.5,0],[1,0.75,0],[0.75,1,0],[0.5,1,0],[0.25,1,0],[0,0.75,0],[0,0.5,0],[0,0.25,0]];movable=1;rotatable=1;deletable=1;editable=1;locked=0;connectable=1;" parent="a1d22pdOEVHyLeYzTiBl-1" vertex="1">
            <mxGeometry x="318" y="1120" width="210" height="120" as="geometry" />
          </mxCell>
        </object>
        <object placeholders="1" c4Name="CDN" c4Type="CDN" c4Technology="AWS Cloudfront " c4Description="A content delivery network (CDN) to speed up the loading of web pages for data-intensive applications" label="&lt;font style=&quot;font-size: 16px&quot;&gt;&lt;b&gt;%c4Name%&lt;/b&gt;&lt;/font&gt;&lt;div&gt;[%c4Type%: %c4Technology%]&lt;/div&gt;&lt;br&gt;&lt;div&gt;&lt;font style=&quot;font-size: 11px&quot;&gt;%c4Description%&lt;/font&gt;&lt;/div&gt;" id="wqNEAht3NFDgkhoUoppe-0">
          <mxCell style="rounded=1;whiteSpace=wrap;html=1;labelBackgroundColor=none;fillColor=#63BEF2;fontColor=#ffffff;align=center;arcSize=6;strokeColor=#2086C9;metaEdit=1;resizable=1;points=[[0.25,0,0],[0.5,0,0],[0.75,0,0],[1,0.25,0],[1,0.5,0],[1,0.75,0],[0.75,1,0],[0.5,1,0],[0.25,1,0],[0,0.75,0],[0,0.5,0],[0,0.25,0]];movable=1;rotatable=1;deletable=1;editable=1;locked=0;connectable=1;" parent="a1d22pdOEVHyLeYzTiBl-1" vertex="1">
            <mxGeometry x="-830" y="-1040" width="360" height="200" as="geometry" />
          </mxCell>
        </object>
        <mxCell id="e1MZaX6WHByVPDEYBAlR-0" value="&lt;div style=&quot;&quot;&gt;&lt;span style=&quot;background-color: initial;&quot;&gt;HTTP/REST/JSON&lt;/span&gt;&lt;/div&gt;" style="text;html=1;strokeColor=none;fillColor=none;align=center;verticalAlign=middle;whiteSpace=wrap;rounded=0;" parent="a1d22pdOEVHyLeYzTiBl-1" vertex="1">
          <mxGeometry x="35" y="1440" width="250" height="30" as="geometry" />
        </mxCell>
        <mxCell id="e1MZaX6WHByVPDEYBAlR-1" value="&lt;div style=&quot;&quot;&gt;&lt;span style=&quot;background-color: initial;&quot;&gt;TCP&lt;/span&gt;&lt;/div&gt;" style="text;html=1;strokeColor=none;fillColor=none;align=center;verticalAlign=middle;whiteSpace=wrap;rounded=0;" parent="a1d22pdOEVHyLeYzTiBl-1" vertex="1">
          <mxGeometry x="90" y="520" width="170" height="30" as="geometry" />
        </mxCell>
        <mxCell id="e1MZaX6WHByVPDEYBAlR-2" value="&lt;div style=&quot;&quot;&gt;&lt;span style=&quot;background-color: initial;&quot;&gt;TCP&lt;/span&gt;&lt;/div&gt;" style="text;html=1;strokeColor=none;fillColor=none;align=center;verticalAlign=middle;whiteSpace=wrap;rounded=0;" parent="a1d22pdOEVHyLeYzTiBl-1" vertex="1">
          <mxGeometry x="640" y="520" width="170" height="30" as="geometry" />
        </mxCell>
        <object placeholders="1" c4Name="BFF Application Channels" c4Type="BFF Application Channels ScopeBoundary" c4Application="BFF Application Channels" label="&lt;font style=&quot;font-size: 16px&quot;&gt;&lt;b&gt;&lt;div style=&quot;text-align: left&quot;&gt;%c4Name%&lt;/div&gt;&lt;/b&gt;&lt;/font&gt;&lt;div style=&quot;text-align: left&quot;&gt;[%c4Application%]&lt;/div&gt;" id="s9SUwIMWKAjtUMFQ11oj-3">
          <mxCell style="rounded=1;fontSize=11;whiteSpace=wrap;html=1;dashed=1;arcSize=20;fillColor=none;strokeColor=#666666;fontColor=#333333;labelBackgroundColor=none;align=left;verticalAlign=bottom;labelBorderColor=none;spacingTop=0;spacing=10;dashPattern=8 4;metaEdit=1;rotatable=0;perimeter=rectanglePerimeter;noLabel=0;labelPadding=0;allowArrows=0;connectable=0;expand=0;recursiveResize=0;editable=1;pointerEvents=0;absoluteArcSize=1;points=[[0.25,0,0],[0.5,0,0],[0.75,0,0],[1,0.25,0],[1,0.5,0],[1,0.75,0],[0.75,1,0],[0.5,1,0],[0.25,1,0],[0,0.75,0],[0,0.5,0],[0,0.25,0]];strokeWidth=3;" vertex="1" parent="a1d22pdOEVHyLeYzTiBl-1">
            <mxGeometry x="45" y="-430" width="790" height="340" as="geometry" />
          </mxCell>
        </object>
      </root>
    </mxGraphModel>
  </diagram>
  <diagram id="Hjyt7CrsClWVNikqKOMA" name="HA y DR">
    <mxGraphModel dx="1600" dy="967" grid="1" gridSize="10" guides="1" tooltips="1" connect="1" arrows="1" fold="1" page="1" pageScale="1" pageWidth="1100" pageHeight="850" math="0" shadow="0">
      <root>
        <mxCell id="0" />
        <mxCell id="1" parent="0" />
        <mxCell id="bafCSVWqdxFba6eRa5Rx-5" value="" style="rounded=0;whiteSpace=wrap;html=1;dashed=1;strokeWidth=3;fillColor=none;strokeColor=#FF6666;movable=1;resizable=1;rotatable=1;deletable=1;editable=1;locked=0;connectable=1;" parent="1" vertex="1">
          <mxGeometry x="600" y="131.25" width="500" height="501" as="geometry" />
        </mxCell>
        <mxCell id="O4du9boovMw-AXtLnnJu-1" value="" style="rounded=0;whiteSpace=wrap;html=1;dashed=1;strokeWidth=3;fillColor=none;strokeColor=#FF6666;movable=1;resizable=1;rotatable=1;deletable=1;editable=1;locked=0;connectable=1;" parent="1" vertex="1">
          <mxGeometry x="40" y="130" width="520" height="500" as="geometry" />
        </mxCell>
        <mxCell id="ugePqCxBuMijIMyPKVYD-53" value="AWS Cloud" style="sketch=0;outlineConnect=0;gradientColor=none;html=1;whiteSpace=wrap;fontSize=12;fontStyle=0;shape=mxgraph.aws4.group;grIcon=mxgraph.aws4.group_aws_cloud;strokeColor=#AAB7B8;fillColor=none;verticalAlign=top;align=left;spacingLeft=30;fontColor=#AAB7B8;dashed=0;strokeWidth=3;" parent="1" vertex="1">
          <mxGeometry x="50" y="231.3" width="490" height="388.7" as="geometry" />
        </mxCell>
        <mxCell id="ugePqCxBuMijIMyPKVYD-54" value="On-Premise" style="sketch=0;outlineConnect=0;gradientColor=none;html=1;whiteSpace=wrap;fontSize=12;fontStyle=0;shape=mxgraph.aws4.group;grIcon=mxgraph.aws4.group_on_premise;strokeColor=#AAB7B8;fillColor=none;verticalAlign=top;align=left;spacingLeft=30;fontColor=#AAB7B8;dashed=0;" parent="1" vertex="1">
          <mxGeometry x="20" y="650" width="570" height="153" as="geometry" />
        </mxCell>
        <mxCell id="ugePqCxBuMijIMyPKVYD-6" value="Availability Zone n" style="fillColor=none;strokeColor=#147EBA;dashed=1;verticalAlign=top;fontStyle=0;fontColor=#147EBA;whiteSpace=wrap;html=1;" parent="1" vertex="1">
          <mxGeometry x="383" y="280" width="150" height="310" as="geometry" />
        </mxCell>
        <mxCell id="ugePqCxBuMijIMyPKVYD-7" value="Availability Zone n" style="fillColor=none;strokeColor=#147EBA;dashed=1;verticalAlign=top;fontStyle=0;fontColor=#147EBA;whiteSpace=wrap;html=1;" parent="1" vertex="1">
          <mxGeometry x="228" y="280" width="140" height="310" as="geometry" />
        </mxCell>
        <mxCell id="ugePqCxBuMijIMyPKVYD-4" value="Availability Zone n" style="fillColor=none;strokeColor=#147EBA;dashed=1;verticalAlign=top;fontStyle=0;fontColor=#147EBA;whiteSpace=wrap;html=1;" parent="1" vertex="1">
          <mxGeometry x="80" y="280" width="140" height="310" as="geometry" />
        </mxCell>
        <mxCell id="bafCSVWqdxFba6eRa5Rx-47" style="edgeStyle=orthogonalEdgeStyle;rounded=0;orthogonalLoop=1;jettySize=auto;html=1;entryX=0;entryY=0.5;entryDx=0;entryDy=0;startArrow=classic;startFill=1;" parent="1" source="O4du9boovMw-AXtLnnJu-1" target="bafCSVWqdxFba6eRa5Rx-5" edge="1">
          <mxGeometry relative="1" as="geometry" />
        </mxCell>
        <mxCell id="O4du9boovMw-AXtLnnJu-2" style="edgeStyle=orthogonalEdgeStyle;rounded=0;orthogonalLoop=1;jettySize=auto;html=1;entryX=0.5;entryY=0;entryDx=0;entryDy=0;" parent="1" source="O4du9boovMw-AXtLnnJu-3" target="O4du9boovMw-AXtLnnJu-13" edge="1">
          <mxGeometry relative="1" as="geometry" />
        </mxCell>
        <mxCell id="O4du9boovMw-AXtLnnJu-3" value="Mobile BFF ApiGW" style="rounded=1;whiteSpace=wrap;html=1;fillColor=#FFF2CC;" parent="1" vertex="1">
          <mxGeometry x="90" y="308" width="120" height="30" as="geometry" />
        </mxCell>
        <mxCell id="O4du9boovMw-AXtLnnJu-4" style="edgeStyle=orthogonalEdgeStyle;rounded=0;orthogonalLoop=1;jettySize=auto;html=1;fontSize=18;fontColor=#FF6666;startArrow=none;startFill=0;endArrow=classic;endFill=1;" parent="1" source="O4du9boovMw-AXtLnnJu-7" target="O4du9boovMw-AXtLnnJu-3" edge="1">
          <mxGeometry relative="1" as="geometry" />
        </mxCell>
        <mxCell id="O4du9boovMw-AXtLnnJu-5" style="edgeStyle=orthogonalEdgeStyle;rounded=0;orthogonalLoop=1;jettySize=auto;html=1;fontSize=18;fontColor=#FF6666;startArrow=none;startFill=0;endArrow=classic;endFill=1;" parent="1" source="O4du9boovMw-AXtLnnJu-7" target="O4du9boovMw-AXtLnnJu-9" edge="1">
          <mxGeometry relative="1" as="geometry" />
        </mxCell>
        <mxCell id="O4du9boovMw-AXtLnnJu-6" style="edgeStyle=orthogonalEdgeStyle;rounded=0;orthogonalLoop=1;jettySize=auto;html=1;" parent="1" source="O4du9boovMw-AXtLnnJu-7" target="O4du9boovMw-AXtLnnJu-11" edge="1">
          <mxGeometry relative="1" as="geometry" />
        </mxCell>
        <mxCell id="bafCSVWqdxFba6eRa5Rx-52" style="edgeStyle=orthogonalEdgeStyle;rounded=0;orthogonalLoop=1;jettySize=auto;html=1;entryX=0.5;entryY=0;entryDx=0;entryDy=0;" parent="1" source="O4du9boovMw-AXtLnnJu-7" target="bafCSVWqdxFba6eRa5Rx-5" edge="1">
          <mxGeometry relative="1" as="geometry" />
        </mxCell>
        <mxCell id="O4du9boovMw-AXtLnnJu-7" value="User / Consumer" style="rounded=1;whiteSpace=wrap;html=1;fillColor=#FFF2CC;" parent="1" vertex="1">
          <mxGeometry x="50" y="20" width="520" height="30" as="geometry" />
        </mxCell>
        <mxCell id="O4du9boovMw-AXtLnnJu-8" style="edgeStyle=orthogonalEdgeStyle;rounded=0;orthogonalLoop=1;jettySize=auto;html=1;" parent="1" source="O4du9boovMw-AXtLnnJu-26" target="O4du9boovMw-AXtLnnJu-15" edge="1">
          <mxGeometry relative="1" as="geometry" />
        </mxCell>
        <mxCell id="O4du9boovMw-AXtLnnJu-9" value="Web BFF ApiGW" style="rounded=1;whiteSpace=wrap;html=1;fillColor=#FFF2CC;" parent="1" vertex="1">
          <mxGeometry x="238" y="308" width="120" height="30" as="geometry" />
        </mxCell>
        <mxCell id="O4du9boovMw-AXtLnnJu-10" style="edgeStyle=orthogonalEdgeStyle;rounded=0;orthogonalLoop=1;jettySize=auto;html=1;entryX=0.5;entryY=0;entryDx=0;entryDy=0;" parent="1" source="O4du9boovMw-AXtLnnJu-11" target="O4du9boovMw-AXtLnnJu-17" edge="1">
          <mxGeometry relative="1" as="geometry" />
        </mxCell>
        <mxCell id="O4du9boovMw-AXtLnnJu-11" value="SPA BFF ApiGW" style="rounded=1;whiteSpace=wrap;html=1;fillColor=#FFF2CC;" parent="1" vertex="1">
          <mxGeometry x="398" y="308" width="120" height="30" as="geometry" />
        </mxCell>
        <mxCell id="O4du9boovMw-AXtLnnJu-12" style="edgeStyle=orthogonalEdgeStyle;rounded=0;orthogonalLoop=1;jettySize=auto;html=1;entryX=0.5;entryY=0;entryDx=0;entryDy=0;" parent="1" source="O4du9boovMw-AXtLnnJu-13" target="O4du9boovMw-AXtLnnJu-18" edge="1">
          <mxGeometry relative="1" as="geometry">
            <Array as="points">
              <mxPoint x="150" y="560" />
              <mxPoint x="305" y="560" />
            </Array>
          </mxGeometry>
        </mxCell>
        <mxCell id="O4du9boovMw-AXtLnnJu-13" value="Microservice Customer" style="ellipse;whiteSpace=wrap;html=1;aspect=fixed;fillColor=#FFF2CC;" parent="1" vertex="1">
          <mxGeometry x="110" y="450" width="80" height="80" as="geometry" />
        </mxCell>
        <mxCell id="O4du9boovMw-AXtLnnJu-14" style="edgeStyle=orthogonalEdgeStyle;rounded=0;orthogonalLoop=1;jettySize=auto;html=1;entryX=0.5;entryY=0;entryDx=0;entryDy=0;" parent="1" source="O4du9boovMw-AXtLnnJu-15" target="O4du9boovMw-AXtLnnJu-18" edge="1">
          <mxGeometry relative="1" as="geometry" />
        </mxCell>
        <mxCell id="O4du9boovMw-AXtLnnJu-15" value="&lt;span style=&quot;&quot;&gt;Microservice Product&lt;/span&gt;" style="ellipse;whiteSpace=wrap;html=1;aspect=fixed;fillColor=#FFF2CC;" parent="1" vertex="1">
          <mxGeometry x="253" y="470" width="80" height="80" as="geometry" />
        </mxCell>
        <mxCell id="O4du9boovMw-AXtLnnJu-16" style="edgeStyle=orthogonalEdgeStyle;rounded=0;orthogonalLoop=1;jettySize=auto;html=1;entryX=0.5;entryY=0;entryDx=0;entryDy=0;" parent="1" source="O4du9boovMw-AXtLnnJu-17" target="O4du9boovMw-AXtLnnJu-18" edge="1">
          <mxGeometry relative="1" as="geometry">
            <mxPoint x="310" y="557" as="targetPoint" />
            <Array as="points">
              <mxPoint x="470" y="557" />
              <mxPoint x="305" y="557" />
            </Array>
          </mxGeometry>
        </mxCell>
        <mxCell id="O4du9boovMw-AXtLnnJu-17" value="&lt;span style=&quot;&quot;&gt;Microservice&amp;nbsp;&lt;br&gt;Payment&lt;br&gt;&lt;/span&gt;" style="ellipse;whiteSpace=wrap;html=1;aspect=fixed;fillColor=#FFF2CC;" parent="1" vertex="1">
          <mxGeometry x="418" y="450" width="80" height="80" as="geometry" />
        </mxCell>
        <mxCell id="ugePqCxBuMijIMyPKVYD-3" style="edgeStyle=orthogonalEdgeStyle;rounded=0;orthogonalLoop=1;jettySize=auto;html=1;" parent="1" source="O4du9boovMw-AXtLnnJu-18" target="O4du9boovMw-AXtLnnJu-20" edge="1">
          <mxGeometry relative="1" as="geometry" />
        </mxCell>
        <mxCell id="ugePqCxBuMijIMyPKVYD-71" style="edgeStyle=orthogonalEdgeStyle;rounded=0;orthogonalLoop=1;jettySize=auto;html=1;" parent="1" source="O4du9boovMw-AXtLnnJu-18" target="ugePqCxBuMijIMyPKVYD-70" edge="1">
          <mxGeometry relative="1" as="geometry" />
        </mxCell>
        <mxCell id="O4du9boovMw-AXtLnnJu-18" value="Integration Layer" style="rounded=1;whiteSpace=wrap;html=1;fillColor=#FFF2CC;" parent="1" vertex="1">
          <mxGeometry x="45" y="675" width="520" height="30" as="geometry" />
        </mxCell>
        <mxCell id="O4du9boovMw-AXtLnnJu-20" value="Legacy Core 2&amp;nbsp;" style="rounded=1;whiteSpace=wrap;html=1;fillColor=#FFF2CC;" parent="1" vertex="1">
          <mxGeometry x="360" y="744" width="120" height="50" as="geometry" />
        </mxCell>
        <mxCell id="O4du9boovMw-AXtLnnJu-21" value="" style="endArrow=classic;html=1;rounded=0;exitX=0.25;exitY=1;exitDx=0;exitDy=0;entryX=1;entryY=0;entryDx=0;entryDy=0;" parent="1" source="O4du9boovMw-AXtLnnJu-11" target="O4du9boovMw-AXtLnnJu-15" edge="1">
          <mxGeometry width="50" height="50" relative="1" as="geometry">
            <mxPoint x="368" y="430" as="sourcePoint" />
            <mxPoint x="418" y="380" as="targetPoint" />
          </mxGeometry>
        </mxCell>
        <mxCell id="O4du9boovMw-AXtLnnJu-22" value="" style="endArrow=classic;html=1;rounded=0;exitX=0.75;exitY=1;exitDx=0;exitDy=0;entryX=0;entryY=0;entryDx=0;entryDy=0;" parent="1" source="O4du9boovMw-AXtLnnJu-9" target="O4du9boovMw-AXtLnnJu-17" edge="1">
          <mxGeometry width="50" height="50" relative="1" as="geometry">
            <mxPoint x="368" y="430" as="sourcePoint" />
            <mxPoint x="418" y="380" as="targetPoint" />
          </mxGeometry>
        </mxCell>
        <mxCell id="O4du9boovMw-AXtLnnJu-23" value="" style="endArrow=classic;html=1;rounded=0;exitX=0.25;exitY=1;exitDx=0;exitDy=0;entryX=1;entryY=0;entryDx=0;entryDy=0;" parent="1" source="O4du9boovMw-AXtLnnJu-9" target="O4du9boovMw-AXtLnnJu-13" edge="1">
          <mxGeometry width="50" height="50" relative="1" as="geometry">
            <mxPoint x="291.72" y="348" as="sourcePoint" />
            <mxPoint x="190.00427124746216" y="404.71572875253787" as="targetPoint" />
          </mxGeometry>
        </mxCell>
        <mxCell id="O4du9boovMw-AXtLnnJu-24" value="" style="endArrow=classic;html=1;rounded=0;exitX=0.75;exitY=1;exitDx=0;exitDy=0;entryX=0;entryY=0;entryDx=0;entryDy=0;" parent="1" source="O4du9boovMw-AXtLnnJu-3" target="O4du9boovMw-AXtLnnJu-15" edge="1">
          <mxGeometry width="50" height="50" relative="1" as="geometry">
            <mxPoint x="290" y="348" as="sourcePoint" />
            <mxPoint x="188.2842712474619" y="404.7157287525381" as="targetPoint" />
          </mxGeometry>
        </mxCell>
        <mxCell id="O4du9boovMw-AXtLnnJu-25" value="customer-tp" style="rounded=1;whiteSpace=wrap;html=1;fillColor=#FFF2CC;" parent="1" vertex="1">
          <mxGeometry x="80" y="380" width="120" height="30" as="geometry" />
        </mxCell>
        <mxCell id="O4du9boovMw-AXtLnnJu-27" value="" style="edgeStyle=orthogonalEdgeStyle;rounded=0;orthogonalLoop=1;jettySize=auto;html=1;" parent="1" source="O4du9boovMw-AXtLnnJu-9" target="O4du9boovMw-AXtLnnJu-26" edge="1">
          <mxGeometry relative="1" as="geometry">
            <mxPoint x="298" y="338" as="sourcePoint" />
            <mxPoint x="298" y="450" as="targetPoint" />
          </mxGeometry>
        </mxCell>
        <mxCell id="O4du9boovMw-AXtLnnJu-26" value="product-tp" style="rounded=1;whiteSpace=wrap;html=1;fillColor=#FFF2CC;" parent="1" vertex="1">
          <mxGeometry x="238" y="380" width="120" height="30" as="geometry" />
        </mxCell>
        <mxCell id="O4du9boovMw-AXtLnnJu-28" value="payment-tp" style="rounded=1;whiteSpace=wrap;html=1;fillColor=#FFF2CC;" parent="1" vertex="1">
          <mxGeometry x="398" y="380" width="120" height="30" as="geometry" />
        </mxCell>
        <mxCell id="O4du9boovMw-AXtLnnJu-29" value="Mobile&amp;nbsp;" style="rounded=1;whiteSpace=wrap;html=1;fillColor=#FFF2CC;" parent="1" vertex="1">
          <mxGeometry x="90" y="192" width="120" height="30" as="geometry" />
        </mxCell>
        <mxCell id="O4du9boovMw-AXtLnnJu-30" value="Web" style="rounded=1;whiteSpace=wrap;html=1;fillColor=#FFF2CC;" parent="1" vertex="1">
          <mxGeometry x="227" y="192" width="120" height="30" as="geometry" />
        </mxCell>
        <mxCell id="O4du9boovMw-AXtLnnJu-31" value="SPA" style="rounded=1;whiteSpace=wrap;html=1;fillColor=#FFF2CC;" parent="1" vertex="1">
          <mxGeometry x="387" y="192" width="120" height="30" as="geometry" />
        </mxCell>
        <mxCell id="ugePqCxBuMijIMyPKVYD-1" value="Auto Scaling group" style="points=[[0,0],[0.25,0],[0.5,0],[0.75,0],[1,0],[1,0.25],[1,0.5],[1,0.75],[1,1],[0.75,1],[0.5,1],[0.25,1],[0,1],[0,0.75],[0,0.5],[0,0.25]];outlineConnect=0;gradientColor=none;html=1;whiteSpace=wrap;fontSize=12;fontStyle=0;container=1;pointerEvents=0;collapsible=0;recursiveResize=0;shape=mxgraph.aws4.groupCenter;grIcon=mxgraph.aws4.group_auto_scaling_group;grStroke=1;strokeColor=#D86613;fillColor=none;verticalAlign=top;align=center;fontColor=#D86613;dashed=1;spacingTop=25;" parent="1" vertex="1">
          <mxGeometry x="60" y="420" width="490" height="160" as="geometry" />
        </mxCell>
        <mxCell id="ugePqCxBuMijIMyPKVYD-48" value="" style="image;aspect=fixed;perimeter=ellipsePerimeter;html=1;align=center;shadow=0;dashed=0;spacingTop=3;image=img/lib/active_directory/database.svg;" parent="ugePqCxBuMijIMyPKVYD-1" vertex="1">
          <mxGeometry x="90" y="100" width="31.48" height="23.3" as="geometry" />
        </mxCell>
        <mxCell id="ugePqCxBuMijIMyPKVYD-49" value="" style="image;aspect=fixed;perimeter=ellipsePerimeter;html=1;align=center;shadow=0;dashed=0;spacingTop=3;image=img/lib/active_directory/database.svg;" parent="1" vertex="1">
          <mxGeometry x="258" y="530" width="31.48" height="23.3" as="geometry" />
        </mxCell>
        <mxCell id="ugePqCxBuMijIMyPKVYD-50" value="" style="image;aspect=fixed;perimeter=ellipsePerimeter;html=1;align=center;shadow=0;dashed=0;spacingTop=3;image=img/lib/active_directory/database.svg;" parent="1" vertex="1">
          <mxGeometry x="428" y="520" width="31.48" height="23.3" as="geometry" />
        </mxCell>
        <mxCell id="ugePqCxBuMijIMyPKVYD-51" value="" style="sketch=0;points=[[0,0,0],[0.25,0,0],[0.5,0,0],[0.75,0,0],[1,0,0],[0,1,0],[0.25,1,0],[0.5,1,0],[0.75,1,0],[1,1,0],[0,0.25,0],[0,0.5,0],[0,0.75,0],[1,0.25,0],[1,0.5,0],[1,0.75,0]];outlineConnect=0;fontColor=#232F3E;gradientColor=#F54749;gradientDirection=north;fillColor=#FF6666;strokeColor=#ffffff;dashed=0;verticalLabelPosition=bottom;verticalAlign=top;align=center;html=1;fontSize=12;fontStyle=0;aspect=fixed;shape=mxgraph.aws4.resourceIcon;resIcon=mxgraph.aws4.waf;" parent="1" vertex="1">
          <mxGeometry x="70" y="250" width="20" height="20" as="geometry" />
        </mxCell>
        <mxCell id="ugePqCxBuMijIMyPKVYD-52" value="" style="shape=link;html=1;rounded=0;strokeColor=#FF6666;strokeWidth=3;" parent="1" edge="1">
          <mxGeometry width="100" relative="1" as="geometry">
            <mxPoint x="90" y="259.47" as="sourcePoint" />
            <mxPoint x="540" y="259" as="targetPoint" />
          </mxGeometry>
        </mxCell>
        <mxCell id="ugePqCxBuMijIMyPKVYD-55" value="" style="sketch=0;outlineConnect=0;fontColor=#232F3E;gradientColor=none;fillColor=#D45B07;strokeColor=none;dashed=0;verticalLabelPosition=bottom;verticalAlign=top;align=center;html=1;fontSize=12;fontStyle=0;aspect=fixed;pointerEvents=1;shape=mxgraph.aws4.lambda_function;" parent="1" vertex="1">
          <mxGeometry x="151.48000000000002" y="335.65" width="28" height="28" as="geometry" />
        </mxCell>
        <mxCell id="ugePqCxBuMijIMyPKVYD-56" value="" style="sketch=0;outlineConnect=0;fontColor=#232F3E;gradientColor=none;fillColor=#D45B07;strokeColor=none;dashed=0;verticalLabelPosition=bottom;verticalAlign=top;align=center;html=1;fontSize=12;fontStyle=0;aspect=fixed;pointerEvents=1;shape=mxgraph.aws4.lambda_function;" parent="1" vertex="1">
          <mxGeometry x="299.48" y="333.3" width="28" height="28" as="geometry" />
        </mxCell>
        <mxCell id="ugePqCxBuMijIMyPKVYD-57" value="" style="sketch=0;outlineConnect=0;fontColor=#232F3E;gradientColor=none;fillColor=#D45B07;strokeColor=none;dashed=0;verticalLabelPosition=bottom;verticalAlign=top;align=center;html=1;fontSize=12;fontStyle=0;aspect=fixed;pointerEvents=1;shape=mxgraph.aws4.lambda_function;" parent="1" vertex="1">
          <mxGeometry x="459.48" y="333.3" width="28" height="28" as="geometry" />
        </mxCell>
        <mxCell id="ugePqCxBuMijIMyPKVYD-58" value="" style="sketch=0;points=[[0,0,0],[0.25,0,0],[0.5,0,0],[0.75,0,0],[1,0,0],[0,1,0],[0.25,1,0],[0.5,1,0],[0.75,1,0],[1,1,0],[0,0.25,0],[0,0.5,0],[0,0.75,0],[1,0.25,0],[1,0.5,0],[1,0.75,0]];outlineConnect=0;fontColor=#232F3E;gradientColor=#FF4F8B;gradientDirection=north;fillColor=#BC1356;strokeColor=#ffffff;dashed=0;verticalLabelPosition=bottom;verticalAlign=top;align=center;html=1;fontSize=12;fontStyle=0;aspect=fixed;shape=mxgraph.aws4.resourceIcon;resIcon=mxgraph.aws4.api_gateway;" parent="1" vertex="1">
          <mxGeometry x="80" y="300" width="18" height="18" as="geometry" />
        </mxCell>
        <mxCell id="ugePqCxBuMijIMyPKVYD-59" value="" style="sketch=0;points=[[0,0,0],[0.25,0,0],[0.5,0,0],[0.75,0,0],[1,0,0],[0,1,0],[0.25,1,0],[0.5,1,0],[0.75,1,0],[1,1,0],[0,0.25,0],[0,0.5,0],[0,0.75,0],[1,0.25,0],[1,0.5,0],[1,0.75,0]];outlineConnect=0;fontColor=#232F3E;gradientColor=#FF4F8B;gradientDirection=north;fillColor=#BC1356;strokeColor=#ffffff;dashed=0;verticalLabelPosition=bottom;verticalAlign=top;align=center;html=1;fontSize=12;fontStyle=0;aspect=fixed;shape=mxgraph.aws4.resourceIcon;resIcon=mxgraph.aws4.api_gateway;" parent="1" vertex="1">
          <mxGeometry x="233" y="300" width="18" height="18" as="geometry" />
        </mxCell>
        <mxCell id="ugePqCxBuMijIMyPKVYD-60" value="" style="sketch=0;points=[[0,0,0],[0.25,0,0],[0.5,0,0],[0.75,0,0],[1,0,0],[0,1,0],[0.25,1,0],[0.5,1,0],[0.75,1,0],[1,1,0],[0,0.25,0],[0,0.5,0],[0,0.75,0],[1,0.25,0],[1,0.5,0],[1,0.75,0]];outlineConnect=0;fontColor=#232F3E;gradientColor=#FF4F8B;gradientDirection=north;fillColor=#BC1356;strokeColor=#ffffff;dashed=0;verticalLabelPosition=bottom;verticalAlign=top;align=center;html=1;fontSize=12;fontStyle=0;aspect=fixed;shape=mxgraph.aws4.resourceIcon;resIcon=mxgraph.aws4.api_gateway;" parent="1" vertex="1">
          <mxGeometry x="388" y="300" width="18" height="18" as="geometry" />
        </mxCell>
        <mxCell id="ugePqCxBuMijIMyPKVYD-61" value="" style="sketch=0;points=[[0,0,0],[0.25,0,0],[0.5,0,0],[0.75,0,0],[1,0,0],[0,1,0],[0.25,1,0],[0.5,1,0],[0.75,1,0],[1,1,0],[0,0.25,0],[0,0.5,0],[0,0.75,0],[1,0.25,0],[1,0.5,0],[1,0.75,0]];outlineConnect=0;fontColor=#232F3E;gradientColor=#FF4F8B;gradientDirection=north;fillColor=#BC1356;strokeColor=#ffffff;dashed=0;verticalLabelPosition=bottom;verticalAlign=top;align=center;html=1;fontSize=12;fontStyle=0;aspect=fixed;shape=mxgraph.aws4.resourceIcon;resIcon=mxgraph.aws4.eventbridge;" parent="1" vertex="1">
          <mxGeometry x="92" y="340" width="20" height="20" as="geometry" />
        </mxCell>
        <mxCell id="ugePqCxBuMijIMyPKVYD-62" value="" style="sketch=0;points=[[0,0,0],[0.25,0,0],[0.5,0,0],[0.75,0,0],[1,0,0],[0,1,0],[0.25,1,0],[0.5,1,0],[0.75,1,0],[1,1,0],[0,0.25,0],[0,0.5,0],[0,0.75,0],[1,0.25,0],[1,0.5,0],[1,0.75,0]];outlineConnect=0;fontColor=#232F3E;gradientColor=#FF4F8B;gradientDirection=north;fillColor=#BC1356;strokeColor=#ffffff;dashed=0;verticalLabelPosition=bottom;verticalAlign=top;align=center;html=1;fontSize=12;fontStyle=0;aspect=fixed;shape=mxgraph.aws4.resourceIcon;resIcon=mxgraph.aws4.eventbridge;" parent="1" vertex="1">
          <mxGeometry x="238" y="339.65" width="20" height="20" as="geometry" />
        </mxCell>
        <mxCell id="ugePqCxBuMijIMyPKVYD-63" value="" style="sketch=0;points=[[0,0,0],[0.25,0,0],[0.5,0,0],[0.75,0,0],[1,0,0],[0,1,0],[0.25,1,0],[0.5,1,0],[0.75,1,0],[1,1,0],[0,0.25,0],[0,0.5,0],[0,0.75,0],[1,0.25,0],[1,0.5,0],[1,0.75,0]];outlineConnect=0;fontColor=#232F3E;gradientColor=#FF4F8B;gradientDirection=north;fillColor=#BC1356;strokeColor=#ffffff;dashed=0;verticalLabelPosition=bottom;verticalAlign=top;align=center;html=1;fontSize=12;fontStyle=0;aspect=fixed;shape=mxgraph.aws4.resourceIcon;resIcon=mxgraph.aws4.eventbridge;" parent="1" vertex="1">
          <mxGeometry x="398" y="339.65" width="20" height="20" as="geometry" />
        </mxCell>
        <mxCell id="ugePqCxBuMijIMyPKVYD-64" value="" style="sketch=0;points=[[0,0,0],[0.25,0,0],[0.5,0,0],[0.75,0,0],[1,0,0],[0,1,0],[0.25,1,0],[0.5,1,0],[0.75,1,0],[1,1,0],[0,0.25,0],[0,0.5,0],[0,0.75,0],[1,0.25,0],[1,0.5,0],[1,0.75,0]];outlineConnect=0;fontColor=#232F3E;gradientColor=#945DF2;gradientDirection=north;fillColor=#5A30B5;strokeColor=#ffffff;dashed=0;verticalLabelPosition=bottom;verticalAlign=top;align=center;html=1;fontSize=12;fontStyle=0;aspect=fixed;shape=mxgraph.aws4.resourceIcon;resIcon=mxgraph.aws4.managed_streaming_for_kafka;" parent="1" vertex="1">
          <mxGeometry x="80" y="380" width="18" height="18" as="geometry" />
        </mxCell>
        <mxCell id="ugePqCxBuMijIMyPKVYD-65" value="" style="sketch=0;points=[[0,0,0],[0.25,0,0],[0.5,0,0],[0.75,0,0],[1,0,0],[0,1,0],[0.25,1,0],[0.5,1,0],[0.75,1,0],[1,1,0],[0,0.25,0],[0,0.5,0],[0,0.75,0],[1,0.25,0],[1,0.5,0],[1,0.75,0]];outlineConnect=0;fontColor=#232F3E;gradientColor=#4D72F3;gradientDirection=north;fillColor=#3334B9;strokeColor=#ffffff;dashed=0;verticalLabelPosition=bottom;verticalAlign=top;align=center;html=1;fontSize=12;fontStyle=0;aspect=fixed;shape=mxgraph.aws4.resourceIcon;resIcon=mxgraph.aws4.dynamodb;" parent="1" vertex="1">
          <mxGeometry x="121" y="340" width="19" height="19" as="geometry" />
        </mxCell>
        <mxCell id="ugePqCxBuMijIMyPKVYD-66" value="" style="sketch=0;points=[[0,0,0],[0.25,0,0],[0.5,0,0],[0.75,0,0],[1,0,0],[0,1,0],[0.25,1,0],[0.5,1,0],[0.75,1,0],[1,1,0],[0,0.25,0],[0,0.5,0],[0,0.75,0],[1,0.25,0],[1,0.5,0],[1,0.75,0]];outlineConnect=0;fontColor=#232F3E;gradientColor=#4D72F3;gradientDirection=north;fillColor=#3334B9;strokeColor=#ffffff;dashed=0;verticalLabelPosition=bottom;verticalAlign=top;align=center;html=1;fontSize=12;fontStyle=0;aspect=fixed;shape=mxgraph.aws4.resourceIcon;resIcon=mxgraph.aws4.dynamodb;" parent="1" vertex="1">
          <mxGeometry x="270.48" y="340" width="19" height="19" as="geometry" />
        </mxCell>
        <mxCell id="ugePqCxBuMijIMyPKVYD-67" value="" style="sketch=0;points=[[0,0,0],[0.25,0,0],[0.5,0,0],[0.75,0,0],[1,0,0],[0,1,0],[0.25,1,0],[0.5,1,0],[0.75,1,0],[1,1,0],[0,0.25,0],[0,0.5,0],[0,0.75,0],[1,0.25,0],[1,0.5,0],[1,0.75,0]];outlineConnect=0;fontColor=#232F3E;gradientColor=#4D72F3;gradientDirection=north;fillColor=#3334B9;strokeColor=#ffffff;dashed=0;verticalLabelPosition=bottom;verticalAlign=top;align=center;html=1;fontSize=12;fontStyle=0;aspect=fixed;shape=mxgraph.aws4.resourceIcon;resIcon=mxgraph.aws4.dynamodb;" parent="1" vertex="1">
          <mxGeometry x="434.24" y="340" width="19" height="19" as="geometry" />
        </mxCell>
        <mxCell id="ugePqCxBuMijIMyPKVYD-68" value="" style="sketch=0;points=[[0,0,0],[0.25,0,0],[0.5,0,0],[0.75,0,0],[1,0,0],[0,1,0],[0.25,1,0],[0.5,1,0],[0.75,1,0],[1,1,0],[0,0.25,0],[0,0.5,0],[0,0.75,0],[1,0.25,0],[1,0.5,0],[1,0.75,0]];outlineConnect=0;fontColor=#232F3E;gradientColor=#945DF2;gradientDirection=north;fillColor=#5A30B5;strokeColor=#ffffff;dashed=0;verticalLabelPosition=bottom;verticalAlign=top;align=center;html=1;fontSize=12;fontStyle=0;aspect=fixed;shape=mxgraph.aws4.resourceIcon;resIcon=mxgraph.aws4.managed_streaming_for_kafka;" parent="1" vertex="1">
          <mxGeometry x="238" y="380" width="18" height="18" as="geometry" />
        </mxCell>
        <mxCell id="ugePqCxBuMijIMyPKVYD-69" value="" style="sketch=0;points=[[0,0,0],[0.25,0,0],[0.5,0,0],[0.75,0,0],[1,0,0],[0,1,0],[0.25,1,0],[0.5,1,0],[0.75,1,0],[1,1,0],[0,0.25,0],[0,0.5,0],[0,0.75,0],[1,0.25,0],[1,0.5,0],[1,0.75,0]];outlineConnect=0;fontColor=#232F3E;gradientColor=#945DF2;gradientDirection=north;fillColor=#5A30B5;strokeColor=#ffffff;dashed=0;verticalLabelPosition=bottom;verticalAlign=top;align=center;html=1;fontSize=12;fontStyle=0;aspect=fixed;shape=mxgraph.aws4.resourceIcon;resIcon=mxgraph.aws4.managed_streaming_for_kafka;" parent="1" vertex="1">
          <mxGeometry x="398" y="380" width="18" height="18" as="geometry" />
        </mxCell>
        <mxCell id="ugePqCxBuMijIMyPKVYD-70" value="Legacy Core1&amp;nbsp;" style="rounded=1;whiteSpace=wrap;html=1;fillColor=#FFF2CC;" parent="1" vertex="1">
          <mxGeometry x="143" y="744" width="120" height="50" as="geometry" />
        </mxCell>
        <mxCell id="bafCSVWqdxFba6eRa5Rx-1" value="AWS Cloud" style="sketch=0;outlineConnect=0;gradientColor=none;html=1;whiteSpace=wrap;fontSize=12;fontStyle=0;shape=mxgraph.aws4.group;grIcon=mxgraph.aws4.group_aws_cloud;strokeColor=#AAB7B8;fillColor=none;verticalAlign=top;align=left;spacingLeft=30;fontColor=#AAB7B8;dashed=0;strokeWidth=3;" parent="1" vertex="1">
          <mxGeometry x="610" y="232.55" width="480" height="389.7" as="geometry" />
        </mxCell>
        <mxCell id="bafCSVWqdxFba6eRa5Rx-2" value="Availability Zone n" style="fillColor=none;strokeColor=#147EBA;dashed=1;verticalAlign=top;fontStyle=0;fontColor=#147EBA;whiteSpace=wrap;html=1;" parent="1" vertex="1">
          <mxGeometry x="940" y="281.25" width="150" height="310" as="geometry" />
        </mxCell>
        <mxCell id="bafCSVWqdxFba6eRa5Rx-3" value="Availability Zone n" style="fillColor=none;strokeColor=#147EBA;dashed=1;verticalAlign=top;fontStyle=0;fontColor=#147EBA;whiteSpace=wrap;html=1;" parent="1" vertex="1">
          <mxGeometry x="785" y="281.25" width="140" height="310" as="geometry" />
        </mxCell>
        <mxCell id="bafCSVWqdxFba6eRa5Rx-4" value="Availability Zone n" style="fillColor=none;strokeColor=#147EBA;dashed=1;verticalAlign=top;fontStyle=0;fontColor=#147EBA;whiteSpace=wrap;html=1;" parent="1" vertex="1">
          <mxGeometry x="625" y="281.25" width="140" height="310" as="geometry" />
        </mxCell>
        <mxCell id="bafCSVWqdxFba6eRa5Rx-53" style="edgeStyle=orthogonalEdgeStyle;rounded=0;orthogonalLoop=1;jettySize=auto;html=1;entryX=1;entryY=0.5;entryDx=0;entryDy=0;" parent="1" source="bafCSVWqdxFba6eRa5Rx-5" target="O4du9boovMw-AXtLnnJu-18" edge="1">
          <mxGeometry relative="1" as="geometry">
            <Array as="points">
              <mxPoint x="1085" y="690" />
            </Array>
          </mxGeometry>
        </mxCell>
        <mxCell id="bafCSVWqdxFba6eRa5Rx-6" style="edgeStyle=orthogonalEdgeStyle;rounded=0;orthogonalLoop=1;jettySize=auto;html=1;entryX=0.5;entryY=0;entryDx=0;entryDy=0;" parent="1" source="bafCSVWqdxFba6eRa5Rx-7" target="bafCSVWqdxFba6eRa5Rx-12" edge="1">
          <mxGeometry relative="1" as="geometry" />
        </mxCell>
        <mxCell id="bafCSVWqdxFba6eRa5Rx-7" value="Mobile BFF ApiGW" style="rounded=1;whiteSpace=wrap;html=1;fillColor=#FFF2CC;" parent="1" vertex="1">
          <mxGeometry x="635" y="309.25" width="120" height="30" as="geometry" />
        </mxCell>
        <mxCell id="bafCSVWqdxFba6eRa5Rx-8" style="edgeStyle=orthogonalEdgeStyle;rounded=0;orthogonalLoop=1;jettySize=auto;html=1;" parent="1" source="bafCSVWqdxFba6eRa5Rx-21" target="bafCSVWqdxFba6eRa5Rx-13" edge="1">
          <mxGeometry relative="1" as="geometry" />
        </mxCell>
        <mxCell id="bafCSVWqdxFba6eRa5Rx-9" value="Web BFF ApiGW" style="rounded=1;whiteSpace=wrap;html=1;fillColor=#FFF2CC;" parent="1" vertex="1">
          <mxGeometry x="795" y="309.25" width="120" height="30" as="geometry" />
        </mxCell>
        <mxCell id="bafCSVWqdxFba6eRa5Rx-10" style="edgeStyle=orthogonalEdgeStyle;rounded=0;orthogonalLoop=1;jettySize=auto;html=1;entryX=0.5;entryY=0;entryDx=0;entryDy=0;" parent="1" source="bafCSVWqdxFba6eRa5Rx-11" target="bafCSVWqdxFba6eRa5Rx-14" edge="1">
          <mxGeometry relative="1" as="geometry" />
        </mxCell>
        <mxCell id="bafCSVWqdxFba6eRa5Rx-11" value="SPA BFF ApiGW" style="rounded=1;whiteSpace=wrap;html=1;fillColor=#FFF2CC;" parent="1" vertex="1">
          <mxGeometry x="955" y="309.25" width="120" height="30" as="geometry" />
        </mxCell>
        <mxCell id="bafCSVWqdxFba6eRa5Rx-12" value="Microservice Customer" style="ellipse;whiteSpace=wrap;html=1;aspect=fixed;fillColor=#FFF2CC;" parent="1" vertex="1">
          <mxGeometry x="655" y="451.25" width="80" height="80" as="geometry" />
        </mxCell>
        <mxCell id="bafCSVWqdxFba6eRa5Rx-13" value="&lt;span style=&quot;&quot;&gt;Microservice Product&lt;/span&gt;" style="ellipse;whiteSpace=wrap;html=1;aspect=fixed;fillColor=#FFF2CC;" parent="1" vertex="1">
          <mxGeometry x="810" y="471.25" width="80" height="80" as="geometry" />
        </mxCell>
        <mxCell id="bafCSVWqdxFba6eRa5Rx-14" value="&lt;span style=&quot;&quot;&gt;Microservice&amp;nbsp;&lt;br&gt;Payment&lt;br&gt;&lt;/span&gt;" style="ellipse;whiteSpace=wrap;html=1;aspect=fixed;fillColor=#FFF2CC;" parent="1" vertex="1">
          <mxGeometry x="975" y="451.25" width="80" height="80" as="geometry" />
        </mxCell>
        <mxCell id="bafCSVWqdxFba6eRa5Rx-15" value="" style="endArrow=classic;html=1;rounded=0;exitX=0.25;exitY=1;exitDx=0;exitDy=0;entryX=1;entryY=0;entryDx=0;entryDy=0;" parent="1" source="bafCSVWqdxFba6eRa5Rx-11" target="bafCSVWqdxFba6eRa5Rx-13" edge="1">
          <mxGeometry width="50" height="50" relative="1" as="geometry">
            <mxPoint x="925" y="431.25" as="sourcePoint" />
            <mxPoint x="975" y="381.25" as="targetPoint" />
          </mxGeometry>
        </mxCell>
        <mxCell id="bafCSVWqdxFba6eRa5Rx-16" value="" style="endArrow=classic;html=1;rounded=0;exitX=0.75;exitY=1;exitDx=0;exitDy=0;entryX=0;entryY=0;entryDx=0;entryDy=0;" parent="1" source="bafCSVWqdxFba6eRa5Rx-9" target="bafCSVWqdxFba6eRa5Rx-14" edge="1">
          <mxGeometry width="50" height="50" relative="1" as="geometry">
            <mxPoint x="925" y="431.25" as="sourcePoint" />
            <mxPoint x="975" y="381.25" as="targetPoint" />
          </mxGeometry>
        </mxCell>
        <mxCell id="bafCSVWqdxFba6eRa5Rx-17" value="" style="endArrow=classic;html=1;rounded=0;exitX=0.25;exitY=1;exitDx=0;exitDy=0;entryX=1;entryY=0;entryDx=0;entryDy=0;" parent="1" source="bafCSVWqdxFba6eRa5Rx-9" target="bafCSVWqdxFba6eRa5Rx-12" edge="1">
          <mxGeometry width="50" height="50" relative="1" as="geometry">
            <mxPoint x="836.72" y="349.25" as="sourcePoint" />
            <mxPoint x="735.0042712474622" y="405.96572875253787" as="targetPoint" />
          </mxGeometry>
        </mxCell>
        <mxCell id="bafCSVWqdxFba6eRa5Rx-18" value="" style="endArrow=classic;html=1;rounded=0;exitX=0.75;exitY=1;exitDx=0;exitDy=0;entryX=0;entryY=0;entryDx=0;entryDy=0;" parent="1" source="bafCSVWqdxFba6eRa5Rx-7" target="bafCSVWqdxFba6eRa5Rx-13" edge="1">
          <mxGeometry width="50" height="50" relative="1" as="geometry">
            <mxPoint x="835" y="349.25" as="sourcePoint" />
            <mxPoint x="733.2842712474619" y="405.9657287525381" as="targetPoint" />
          </mxGeometry>
        </mxCell>
        <mxCell id="bafCSVWqdxFba6eRa5Rx-19" value="customer-tp" style="rounded=1;whiteSpace=wrap;html=1;fillColor=#FFF2CC;" parent="1" vertex="1">
          <mxGeometry x="625" y="381.25" width="120" height="30" as="geometry" />
        </mxCell>
        <mxCell id="bafCSVWqdxFba6eRa5Rx-20" value="" style="edgeStyle=orthogonalEdgeStyle;rounded=0;orthogonalLoop=1;jettySize=auto;html=1;" parent="1" source="bafCSVWqdxFba6eRa5Rx-9" target="bafCSVWqdxFba6eRa5Rx-21" edge="1">
          <mxGeometry relative="1" as="geometry">
            <mxPoint x="855" y="339.25" as="sourcePoint" />
            <mxPoint x="855" y="451.25" as="targetPoint" />
          </mxGeometry>
        </mxCell>
        <mxCell id="bafCSVWqdxFba6eRa5Rx-21" value="product-tp" style="rounded=1;whiteSpace=wrap;html=1;fillColor=#FFF2CC;" parent="1" vertex="1">
          <mxGeometry x="795" y="381.25" width="120" height="30" as="geometry" />
        </mxCell>
        <mxCell id="bafCSVWqdxFba6eRa5Rx-22" value="payment-tp" style="rounded=1;whiteSpace=wrap;html=1;fillColor=#FFF2CC;" parent="1" vertex="1">
          <mxGeometry x="955" y="381.25" width="120" height="30" as="geometry" />
        </mxCell>
        <mxCell id="bafCSVWqdxFba6eRa5Rx-23" value="Mobile&amp;nbsp;" style="rounded=1;whiteSpace=wrap;html=1;fillColor=#FFF2CC;" parent="1" vertex="1">
          <mxGeometry x="635" y="193.25" width="120" height="30" as="geometry" />
        </mxCell>
        <mxCell id="bafCSVWqdxFba6eRa5Rx-24" value="Web" style="rounded=1;whiteSpace=wrap;html=1;fillColor=#FFF2CC;" parent="1" vertex="1">
          <mxGeometry x="795" y="193.25" width="120" height="30" as="geometry" />
        </mxCell>
        <mxCell id="bafCSVWqdxFba6eRa5Rx-25" value="SPA" style="rounded=1;whiteSpace=wrap;html=1;fillColor=#FFF2CC;" parent="1" vertex="1">
          <mxGeometry x="955" y="193.25" width="120" height="30" as="geometry" />
        </mxCell>
        <mxCell id="bafCSVWqdxFba6eRa5Rx-26" value="Auto Scaling group" style="points=[[0,0],[0.25,0],[0.5,0],[0.75,0],[1,0],[1,0.25],[1,0.5],[1,0.75],[1,1],[0.75,1],[0.5,1],[0.25,1],[0,1],[0,0.75],[0,0.5],[0,0.25]];outlineConnect=0;gradientColor=none;html=1;whiteSpace=wrap;fontSize=12;fontStyle=0;container=1;pointerEvents=0;collapsible=0;recursiveResize=0;shape=mxgraph.aws4.groupCenter;grIcon=mxgraph.aws4.group_auto_scaling_group;grStroke=1;strokeColor=#D86613;fillColor=none;verticalAlign=top;align=center;fontColor=#D86613;dashed=1;spacingTop=25;" parent="1" vertex="1">
          <mxGeometry x="610" y="421.25" width="470" height="160" as="geometry" />
        </mxCell>
        <mxCell id="bafCSVWqdxFba6eRa5Rx-27" value="" style="image;aspect=fixed;perimeter=ellipsePerimeter;html=1;align=center;shadow=0;dashed=0;spacingTop=3;image=img/lib/active_directory/database.svg;" parent="bafCSVWqdxFba6eRa5Rx-26" vertex="1">
          <mxGeometry x="90" y="100" width="31.48" height="23.3" as="geometry" />
        </mxCell>
        <mxCell id="bafCSVWqdxFba6eRa5Rx-28" value="" style="image;aspect=fixed;perimeter=ellipsePerimeter;html=1;align=center;shadow=0;dashed=0;spacingTop=3;image=img/lib/active_directory/database.svg;" parent="1" vertex="1">
          <mxGeometry x="815" y="531.25" width="31.48" height="23.3" as="geometry" />
        </mxCell>
        <mxCell id="bafCSVWqdxFba6eRa5Rx-29" value="" style="image;aspect=fixed;perimeter=ellipsePerimeter;html=1;align=center;shadow=0;dashed=0;spacingTop=3;image=img/lib/active_directory/database.svg;" parent="1" vertex="1">
          <mxGeometry x="985" y="521.25" width="31.48" height="23.3" as="geometry" />
        </mxCell>
        <mxCell id="bafCSVWqdxFba6eRa5Rx-30" value="" style="sketch=0;points=[[0,0,0],[0.25,0,0],[0.5,0,0],[0.75,0,0],[1,0,0],[0,1,0],[0.25,1,0],[0.5,1,0],[0.75,1,0],[1,1,0],[0,0.25,0],[0,0.5,0],[0,0.75,0],[1,0.25,0],[1,0.5,0],[1,0.75,0]];outlineConnect=0;fontColor=#232F3E;gradientColor=#F54749;gradientDirection=north;fillColor=#FF6666;strokeColor=#ffffff;dashed=0;verticalLabelPosition=bottom;verticalAlign=top;align=center;html=1;fontSize=12;fontStyle=0;aspect=fixed;shape=mxgraph.aws4.resourceIcon;resIcon=mxgraph.aws4.waf;" parent="1" vertex="1">
          <mxGeometry x="615" y="251.25" width="20" height="20" as="geometry" />
        </mxCell>
        <mxCell id="bafCSVWqdxFba6eRa5Rx-31" value="" style="shape=link;html=1;rounded=0;strokeColor=#FF6666;strokeWidth=3;" parent="1" edge="1">
          <mxGeometry width="100" relative="1" as="geometry">
            <mxPoint x="635" y="260.72" as="sourcePoint" />
            <mxPoint x="1085" y="260.25" as="targetPoint" />
          </mxGeometry>
        </mxCell>
        <mxCell id="bafCSVWqdxFba6eRa5Rx-32" value="" style="sketch=0;outlineConnect=0;fontColor=#232F3E;gradientColor=none;fillColor=#D45B07;strokeColor=none;dashed=0;verticalLabelPosition=bottom;verticalAlign=top;align=center;html=1;fontSize=12;fontStyle=0;aspect=fixed;pointerEvents=1;shape=mxgraph.aws4.lambda_function;" parent="1" vertex="1">
          <mxGeometry x="696.48" y="336.9" width="28" height="28" as="geometry" />
        </mxCell>
        <mxCell id="bafCSVWqdxFba6eRa5Rx-33" value="" style="sketch=0;outlineConnect=0;fontColor=#232F3E;gradientColor=none;fillColor=#D45B07;strokeColor=none;dashed=0;verticalLabelPosition=bottom;verticalAlign=top;align=center;html=1;fontSize=12;fontStyle=0;aspect=fixed;pointerEvents=1;shape=mxgraph.aws4.lambda_function;" parent="1" vertex="1">
          <mxGeometry x="856.48" y="334.55" width="28" height="28" as="geometry" />
        </mxCell>
        <mxCell id="bafCSVWqdxFba6eRa5Rx-34" value="" style="sketch=0;outlineConnect=0;fontColor=#232F3E;gradientColor=none;fillColor=#D45B07;strokeColor=none;dashed=0;verticalLabelPosition=bottom;verticalAlign=top;align=center;html=1;fontSize=12;fontStyle=0;aspect=fixed;pointerEvents=1;shape=mxgraph.aws4.lambda_function;" parent="1" vertex="1">
          <mxGeometry x="1016.48" y="334.55" width="28" height="28" as="geometry" />
        </mxCell>
        <mxCell id="bafCSVWqdxFba6eRa5Rx-35" value="" style="sketch=0;points=[[0,0,0],[0.25,0,0],[0.5,0,0],[0.75,0,0],[1,0,0],[0,1,0],[0.25,1,0],[0.5,1,0],[0.75,1,0],[1,1,0],[0,0.25,0],[0,0.5,0],[0,0.75,0],[1,0.25,0],[1,0.5,0],[1,0.75,0]];outlineConnect=0;fontColor=#232F3E;gradientColor=#FF4F8B;gradientDirection=north;fillColor=#BC1356;strokeColor=#ffffff;dashed=0;verticalLabelPosition=bottom;verticalAlign=top;align=center;html=1;fontSize=12;fontStyle=0;aspect=fixed;shape=mxgraph.aws4.resourceIcon;resIcon=mxgraph.aws4.api_gateway;" parent="1" vertex="1">
          <mxGeometry x="625" y="301.25" width="18" height="18" as="geometry" />
        </mxCell>
        <mxCell id="bafCSVWqdxFba6eRa5Rx-36" value="" style="sketch=0;points=[[0,0,0],[0.25,0,0],[0.5,0,0],[0.75,0,0],[1,0,0],[0,1,0],[0.25,1,0],[0.5,1,0],[0.75,1,0],[1,1,0],[0,0.25,0],[0,0.5,0],[0,0.75,0],[1,0.25,0],[1,0.5,0],[1,0.75,0]];outlineConnect=0;fontColor=#232F3E;gradientColor=#FF4F8B;gradientDirection=north;fillColor=#BC1356;strokeColor=#ffffff;dashed=0;verticalLabelPosition=bottom;verticalAlign=top;align=center;html=1;fontSize=12;fontStyle=0;aspect=fixed;shape=mxgraph.aws4.resourceIcon;resIcon=mxgraph.aws4.api_gateway;" parent="1" vertex="1">
          <mxGeometry x="790" y="301.25" width="18" height="18" as="geometry" />
        </mxCell>
        <mxCell id="bafCSVWqdxFba6eRa5Rx-37" value="" style="sketch=0;points=[[0,0,0],[0.25,0,0],[0.5,0,0],[0.75,0,0],[1,0,0],[0,1,0],[0.25,1,0],[0.5,1,0],[0.75,1,0],[1,1,0],[0,0.25,0],[0,0.5,0],[0,0.75,0],[1,0.25,0],[1,0.5,0],[1,0.75,0]];outlineConnect=0;fontColor=#232F3E;gradientColor=#FF4F8B;gradientDirection=north;fillColor=#BC1356;strokeColor=#ffffff;dashed=0;verticalLabelPosition=bottom;verticalAlign=top;align=center;html=1;fontSize=12;fontStyle=0;aspect=fixed;shape=mxgraph.aws4.resourceIcon;resIcon=mxgraph.aws4.api_gateway;" parent="1" vertex="1">
          <mxGeometry x="945" y="301.25" width="18" height="18" as="geometry" />
        </mxCell>
        <mxCell id="bafCSVWqdxFba6eRa5Rx-38" value="" style="sketch=0;points=[[0,0,0],[0.25,0,0],[0.5,0,0],[0.75,0,0],[1,0,0],[0,1,0],[0.25,1,0],[0.5,1,0],[0.75,1,0],[1,1,0],[0,0.25,0],[0,0.5,0],[0,0.75,0],[1,0.25,0],[1,0.5,0],[1,0.75,0]];outlineConnect=0;fontColor=#232F3E;gradientColor=#FF4F8B;gradientDirection=north;fillColor=#BC1356;strokeColor=#ffffff;dashed=0;verticalLabelPosition=bottom;verticalAlign=top;align=center;html=1;fontSize=12;fontStyle=0;aspect=fixed;shape=mxgraph.aws4.resourceIcon;resIcon=mxgraph.aws4.eventbridge;" parent="1" vertex="1">
          <mxGeometry x="637" y="341.25" width="20" height="20" as="geometry" />
        </mxCell>
        <mxCell id="bafCSVWqdxFba6eRa5Rx-39" value="" style="sketch=0;points=[[0,0,0],[0.25,0,0],[0.5,0,0],[0.75,0,0],[1,0,0],[0,1,0],[0.25,1,0],[0.5,1,0],[0.75,1,0],[1,1,0],[0,0.25,0],[0,0.5,0],[0,0.75,0],[1,0.25,0],[1,0.5,0],[1,0.75,0]];outlineConnect=0;fontColor=#232F3E;gradientColor=#FF4F8B;gradientDirection=north;fillColor=#BC1356;strokeColor=#ffffff;dashed=0;verticalLabelPosition=bottom;verticalAlign=top;align=center;html=1;fontSize=12;fontStyle=0;aspect=fixed;shape=mxgraph.aws4.resourceIcon;resIcon=mxgraph.aws4.eventbridge;" parent="1" vertex="1">
          <mxGeometry x="795" y="340.9" width="20" height="20" as="geometry" />
        </mxCell>
        <mxCell id="bafCSVWqdxFba6eRa5Rx-40" value="" style="sketch=0;points=[[0,0,0],[0.25,0,0],[0.5,0,0],[0.75,0,0],[1,0,0],[0,1,0],[0.25,1,0],[0.5,1,0],[0.75,1,0],[1,1,0],[0,0.25,0],[0,0.5,0],[0,0.75,0],[1,0.25,0],[1,0.5,0],[1,0.75,0]];outlineConnect=0;fontColor=#232F3E;gradientColor=#FF4F8B;gradientDirection=north;fillColor=#BC1356;strokeColor=#ffffff;dashed=0;verticalLabelPosition=bottom;verticalAlign=top;align=center;html=1;fontSize=12;fontStyle=0;aspect=fixed;shape=mxgraph.aws4.resourceIcon;resIcon=mxgraph.aws4.eventbridge;" parent="1" vertex="1">
          <mxGeometry x="955" y="340.9" width="20" height="20" as="geometry" />
        </mxCell>
        <mxCell id="bafCSVWqdxFba6eRa5Rx-41" value="" style="sketch=0;points=[[0,0,0],[0.25,0,0],[0.5,0,0],[0.75,0,0],[1,0,0],[0,1,0],[0.25,1,0],[0.5,1,0],[0.75,1,0],[1,1,0],[0,0.25,0],[0,0.5,0],[0,0.75,0],[1,0.25,0],[1,0.5,0],[1,0.75,0]];outlineConnect=0;fontColor=#232F3E;gradientColor=#945DF2;gradientDirection=north;fillColor=#5A30B5;strokeColor=#ffffff;dashed=0;verticalLabelPosition=bottom;verticalAlign=top;align=center;html=1;fontSize=12;fontStyle=0;aspect=fixed;shape=mxgraph.aws4.resourceIcon;resIcon=mxgraph.aws4.managed_streaming_for_kafka;" parent="1" vertex="1">
          <mxGeometry x="625" y="381.25" width="18" height="18" as="geometry" />
        </mxCell>
        <mxCell id="bafCSVWqdxFba6eRa5Rx-42" value="" style="sketch=0;points=[[0,0,0],[0.25,0,0],[0.5,0,0],[0.75,0,0],[1,0,0],[0,1,0],[0.25,1,0],[0.5,1,0],[0.75,1,0],[1,1,0],[0,0.25,0],[0,0.5,0],[0,0.75,0],[1,0.25,0],[1,0.5,0],[1,0.75,0]];outlineConnect=0;fontColor=#232F3E;gradientColor=#4D72F3;gradientDirection=north;fillColor=#3334B9;strokeColor=#ffffff;dashed=0;verticalLabelPosition=bottom;verticalAlign=top;align=center;html=1;fontSize=12;fontStyle=0;aspect=fixed;shape=mxgraph.aws4.resourceIcon;resIcon=mxgraph.aws4.dynamodb;" parent="1" vertex="1">
          <mxGeometry x="666" y="341.25" width="19" height="19" as="geometry" />
        </mxCell>
        <mxCell id="bafCSVWqdxFba6eRa5Rx-43" value="" style="sketch=0;points=[[0,0,0],[0.25,0,0],[0.5,0,0],[0.75,0,0],[1,0,0],[0,1,0],[0.25,1,0],[0.5,1,0],[0.75,1,0],[1,1,0],[0,0.25,0],[0,0.5,0],[0,0.75,0],[1,0.25,0],[1,0.5,0],[1,0.75,0]];outlineConnect=0;fontColor=#232F3E;gradientColor=#4D72F3;gradientDirection=north;fillColor=#3334B9;strokeColor=#ffffff;dashed=0;verticalLabelPosition=bottom;verticalAlign=top;align=center;html=1;fontSize=12;fontStyle=0;aspect=fixed;shape=mxgraph.aws4.resourceIcon;resIcon=mxgraph.aws4.dynamodb;" parent="1" vertex="1">
          <mxGeometry x="827.48" y="341.25" width="19" height="19" as="geometry" />
        </mxCell>
        <mxCell id="bafCSVWqdxFba6eRa5Rx-44" value="" style="sketch=0;points=[[0,0,0],[0.25,0,0],[0.5,0,0],[0.75,0,0],[1,0,0],[0,1,0],[0.25,1,0],[0.5,1,0],[0.75,1,0],[1,1,0],[0,0.25,0],[0,0.5,0],[0,0.75,0],[1,0.25,0],[1,0.5,0],[1,0.75,0]];outlineConnect=0;fontColor=#232F3E;gradientColor=#4D72F3;gradientDirection=north;fillColor=#3334B9;strokeColor=#ffffff;dashed=0;verticalLabelPosition=bottom;verticalAlign=top;align=center;html=1;fontSize=12;fontStyle=0;aspect=fixed;shape=mxgraph.aws4.resourceIcon;resIcon=mxgraph.aws4.dynamodb;" parent="1" vertex="1">
          <mxGeometry x="991.24" y="341.25" width="19" height="19" as="geometry" />
        </mxCell>
        <mxCell id="bafCSVWqdxFba6eRa5Rx-45" value="" style="sketch=0;points=[[0,0,0],[0.25,0,0],[0.5,0,0],[0.75,0,0],[1,0,0],[0,1,0],[0.25,1,0],[0.5,1,0],[0.75,1,0],[1,1,0],[0,0.25,0],[0,0.5,0],[0,0.75,0],[1,0.25,0],[1,0.5,0],[1,0.75,0]];outlineConnect=0;fontColor=#232F3E;gradientColor=#945DF2;gradientDirection=north;fillColor=#5A30B5;strokeColor=#ffffff;dashed=0;verticalLabelPosition=bottom;verticalAlign=top;align=center;html=1;fontSize=12;fontStyle=0;aspect=fixed;shape=mxgraph.aws4.resourceIcon;resIcon=mxgraph.aws4.managed_streaming_for_kafka;" parent="1" vertex="1">
          <mxGeometry x="795" y="381.25" width="18" height="18" as="geometry" />
        </mxCell>
        <mxCell id="bafCSVWqdxFba6eRa5Rx-46" value="" style="sketch=0;points=[[0,0,0],[0.25,0,0],[0.5,0,0],[0.75,0,0],[1,0,0],[0,1,0],[0.25,1,0],[0.5,1,0],[0.75,1,0],[1,1,0],[0,0.25,0],[0,0.5,0],[0,0.75,0],[1,0.25,0],[1,0.5,0],[1,0.75,0]];outlineConnect=0;fontColor=#232F3E;gradientColor=#945DF2;gradientDirection=north;fillColor=#5A30B5;strokeColor=#ffffff;dashed=0;verticalLabelPosition=bottom;verticalAlign=top;align=center;html=1;fontSize=12;fontStyle=0;aspect=fixed;shape=mxgraph.aws4.resourceIcon;resIcon=mxgraph.aws4.managed_streaming_for_kafka;" parent="1" vertex="1">
          <mxGeometry x="955" y="381.25" width="18" height="18" as="geometry" />
        </mxCell>
        <mxCell id="bafCSVWqdxFba6eRa5Rx-51" value="VPN Gateway" style="sketch=0;outlineConnect=0;fontColor=#232F3E;gradientColor=none;strokeColor=#232F3E;fillColor=#ffffff;dashed=0;verticalLabelPosition=bottom;verticalAlign=top;align=center;html=1;fontSize=12;fontStyle=0;aspect=fixed;shape=mxgraph.aws4.resourceIcon;resIcon=mxgraph.aws4.vpn_gateway;" parent="1" vertex="1">
          <mxGeometry x="550" y="81.75" width="60" height="60" as="geometry" />
        </mxCell>
        <mxCell id="bafCSVWqdxFba6eRa5Rx-55" value="Region 1 - Primary" style="text;html=1;align=center;verticalAlign=middle;resizable=0;points=[];autosize=1;strokeColor=none;fillColor=none;" parent="1" vertex="1">
          <mxGeometry x="10" y="80" width="120" height="30" as="geometry" />
        </mxCell>
        <mxCell id="bafCSVWqdxFba6eRa5Rx-56" value="Region 2 - Secundary" style="text;html=1;align=center;verticalAlign=middle;resizable=0;points=[];autosize=1;strokeColor=none;fillColor=none;" parent="1" vertex="1">
          <mxGeometry x="695" y="96.75" width="140" height="30" as="geometry" />
        </mxCell>
        <mxCell id="bafCSVWqdxFba6eRa5Rx-57" value="VPN Gateway" style="sketch=0;outlineConnect=0;fontColor=#232F3E;gradientColor=none;strokeColor=#232F3E;fillColor=#ffffff;dashed=0;verticalLabelPosition=bottom;verticalAlign=top;align=center;html=1;fontSize=12;fontStyle=0;aspect=fixed;shape=mxgraph.aws4.resourceIcon;resIcon=mxgraph.aws4.vpn_gateway;" parent="1" vertex="1">
          <mxGeometry x="617" y="660" width="60" height="60" as="geometry" />
        </mxCell>
        <mxCell id="CFXTKVDy9Lpk8QSHqmDx-1" value="&lt;b&gt;&lt;font style=&quot;font-size: 16px;&quot;&gt;SYNC&lt;/font&gt;&lt;/b&gt;" style="text;html=1;align=center;verticalAlign=middle;resizable=0;points=[];autosize=1;strokeColor=none;fillColor=none;rotation=-90;" vertex="1" parent="1">
          <mxGeometry x="545" y="399.25" width="70" height="30" as="geometry" />
        </mxCell>
      </root>
    </mxGraphModel>
  </diagram>
</mxfile>
